<svg width="717" height="585" viewBox="0 0 717 585" fill="none" xmlns="http://www.w3.org/2000/svg">
<g clip-path="url(#clip0_102_2)">
<g filter="url(#filter0_d_102_2)">
<rect width="717" height="585" rx="14" fill="white"/>
</g>
<path d="M33.3116 468.759C34.4969 467.807 35.4256 467.027 36.0976 466.421C36.7696 465.805 37.3343 465.165 37.7916 464.503C38.2583 463.831 38.4916 463.173 38.4916 462.529C38.4916 461.922 38.3423 461.446 38.0436 461.101C37.7543 460.746 37.2829 460.569 36.6296 460.569C35.9949 460.569 35.5003 460.769 35.1456 461.171C34.8003 461.563 34.6136 462.09 34.5856 462.753H33.3536C33.3909 461.707 33.7083 460.9 34.3056 460.331C34.9029 459.761 35.6729 459.477 36.6156 459.477C37.5769 459.477 38.3376 459.743 38.8976 460.275C39.4669 460.807 39.7516 461.539 39.7516 462.473C39.7516 463.247 39.5183 464.003 39.0516 464.741C38.5943 465.469 38.0716 466.113 37.4836 466.673C36.8956 467.223 36.1443 467.867 35.2296 468.605H40.0456V469.669H33.3116V468.759ZM41.5183 464.615C41.5183 463.009 41.7797 461.759 42.3023 460.863C42.825 459.957 43.7397 459.505 45.0463 459.505C46.3437 459.505 47.2537 459.957 47.7763 460.863C48.299 461.759 48.5603 463.009 48.5603 464.615C48.5603 466.248 48.299 467.517 47.7763 468.423C47.2537 469.328 46.3437 469.781 45.0463 469.781C43.7397 469.781 42.825 469.328 42.3023 468.423C41.7797 467.517 41.5183 466.248 41.5183 464.615ZM47.3003 464.615C47.3003 463.803 47.2443 463.117 47.1323 462.557C47.0297 461.987 46.8103 461.53 46.4743 461.185C46.1477 460.839 45.6717 460.667 45.0463 460.667C44.4117 460.667 43.9263 460.839 43.5903 461.185C43.2637 461.53 43.0443 461.987 42.9323 462.557C42.8297 463.117 42.7783 463.803 42.7783 464.615C42.7783 465.455 42.8297 466.159 42.9323 466.729C43.0443 467.298 43.2637 467.755 43.5903 468.101C43.9263 468.446 44.4117 468.619 45.0463 468.619C45.6717 468.619 46.1477 468.446 46.4743 468.101C46.8103 467.755 47.0297 467.298 47.1323 466.729C47.2443 466.159 47.3003 465.455 47.3003 464.615ZM50.3093 464.615C50.3093 463.009 50.5707 461.759 51.0933 460.863C51.616 459.957 52.5307 459.505 53.8373 459.505C55.1347 459.505 56.0447 459.957 56.5673 460.863C57.09 461.759 57.3513 463.009 57.3513 464.615C57.3513 466.248 57.09 467.517 56.5673 468.423C56.0447 469.328 55.1347 469.781 53.8373 469.781C52.5307 469.781 51.616 469.328 51.0933 468.423C50.5707 467.517 50.3093 466.248 50.3093 464.615ZM56.0913 464.615C56.0913 463.803 56.0353 463.117 55.9233 462.557C55.8207 461.987 55.6013 461.53 55.2653 461.185C54.9387 460.839 54.4627 460.667 53.8373 460.667C53.2027 460.667 52.7173 460.839 52.3813 461.185C52.0547 461.53 51.8353 461.987 51.7233 462.557C51.6207 463.117 51.5693 463.803 51.5693 464.615C51.5693 465.455 51.6207 466.159 51.7233 466.729C51.8353 467.298 52.0547 467.755 52.3813 468.101C52.7173 468.446 53.2027 468.619 53.8373 468.619C54.4627 468.619 54.9387 468.446 55.2653 468.101C55.6013 467.755 55.8207 467.298 55.9233 466.729C56.0353 466.159 56.0913 465.455 56.0913 464.615ZM63.5944 469.781L60.5844 466.393V469.781H59.3104V459.421H60.5844V465.511L63.5384 462.109H65.3164L61.7044 465.931L65.3304 469.781H63.5944Z" fill="#808080"/>
<path d="M33.1576 407.35V406.384L38.0716 399.58H39.5976V406.244H40.9976V407.35H39.5976V409.604H38.3376V407.35H33.1576ZM38.3936 400.91L34.6276 406.244H38.3936V400.91ZM42.2703 404.438C42.2703 402.832 42.5316 401.582 43.0543 400.686C43.5769 399.78 44.4916 399.328 45.7983 399.328C47.0956 399.328 48.0056 399.78 48.5283 400.686C49.0509 401.582 49.3123 402.832 49.3123 404.438C49.3123 406.071 49.0509 407.34 48.5283 408.246C48.0056 409.151 47.0956 409.604 45.7983 409.604C44.4916 409.604 43.5769 409.151 43.0543 408.246C42.5316 407.34 42.2703 406.071 42.2703 404.438ZM48.0523 404.438C48.0523 403.626 47.9963 402.94 47.8843 402.38C47.7816 401.81 47.5623 401.353 47.2263 401.008C46.8996 400.662 46.4236 400.49 45.7983 400.49C45.1636 400.49 44.6783 400.662 44.3423 401.008C44.0156 401.353 43.7963 401.81 43.6843 402.38C43.5816 402.94 43.5303 403.626 43.5303 404.438C43.5303 405.278 43.5816 405.982 43.6843 406.552C43.7963 407.121 44.0156 407.578 44.3423 407.924C44.6783 408.269 45.1636 408.442 45.7983 408.442C46.4236 408.442 46.8996 408.269 47.2263 407.924C47.5623 407.578 47.7816 407.121 47.8843 406.552C47.9963 405.982 48.0523 405.278 48.0523 404.438ZM51.0613 404.438C51.0613 402.832 51.3226 401.582 51.8453 400.686C52.368 399.78 53.2826 399.328 54.5893 399.328C55.8866 399.328 56.7966 399.78 57.3193 400.686C57.842 401.582 58.1033 402.832 58.1033 404.438C58.1033 406.071 57.842 407.34 57.3193 408.246C56.7966 409.151 55.8866 409.604 54.5893 409.604C53.2826 409.604 52.368 409.151 51.8453 408.246C51.3226 407.34 51.0613 406.071 51.0613 404.438ZM56.8433 404.438C56.8433 403.626 56.7873 402.94 56.6753 402.38C56.5726 401.81 56.3533 401.353 56.0173 401.008C55.6906 400.662 55.2146 400.49 54.5893 400.49C53.9546 400.49 53.4693 400.662 53.1333 401.008C52.8066 401.353 52.5873 401.81 52.4753 402.38C52.3726 402.94 52.3213 403.626 52.3213 404.438C52.3213 405.278 52.3726 405.982 52.4753 406.552C52.5873 407.121 52.8066 407.578 53.1333 407.924C53.4693 408.269 53.9546 408.442 54.5893 408.442C55.2146 408.442 55.6906 408.269 56.0173 407.924C56.3533 407.578 56.5726 407.121 56.6753 406.552C56.7873 405.982 56.8433 405.278 56.8433 404.438ZM64.3463 409.604L61.3363 406.216V409.604H60.0623V399.244H61.3363V405.334L64.2903 401.932H66.0683L62.4563 405.754L66.0823 409.604H64.3463Z" fill="#808080"/>
<path d="M39.1076 341.713C38.9023 340.677 38.2629 340.159 37.1896 340.159C36.3589 340.159 35.7383 340.481 35.3276 341.125C34.9169 341.759 34.7163 342.809 34.7256 344.275C34.9403 343.789 35.2949 343.411 35.7896 343.141C36.2936 342.861 36.8536 342.721 37.4696 342.721C38.4309 342.721 39.1963 343.019 39.7656 343.617C40.3443 344.214 40.6336 345.04 40.6336 346.095C40.6336 346.729 40.5076 347.299 40.2556 347.803C40.0129 348.307 39.6396 348.708 39.1356 349.007C38.6409 349.305 38.0389 349.455 37.3296 349.455C36.3683 349.455 35.6169 349.24 35.0756 348.811C34.5343 348.381 34.1563 347.789 33.9416 347.033C33.7269 346.277 33.6196 345.343 33.6196 344.233C33.6196 340.807 34.8143 339.095 37.2036 339.095C38.1183 339.095 38.8369 339.342 39.3596 339.837C39.8823 340.331 40.1903 340.957 40.2836 341.713H39.1076ZM37.2036 343.799C36.8023 343.799 36.4243 343.883 36.0696 344.051C35.7149 344.209 35.4256 344.457 35.2016 344.793C34.9869 345.119 34.8796 345.521 34.8796 345.997C34.8796 346.706 35.0849 347.285 35.4956 347.733C35.9063 348.171 36.4943 348.391 37.2596 348.391C37.9129 348.391 38.4309 348.19 38.8136 347.789C39.2056 347.378 39.4016 346.827 39.4016 346.137C39.4016 345.409 39.2149 344.839 38.8416 344.429C38.4683 344.009 37.9223 343.799 37.2036 343.799ZM42.3523 344.261C42.3523 342.655 42.6136 341.405 43.1363 340.509C43.659 339.603 44.5736 339.151 45.8803 339.151C47.1776 339.151 48.0876 339.603 48.6103 340.509C49.133 341.405 49.3943 342.655 49.3943 344.261C49.3943 345.894 49.133 347.163 48.6103 348.069C48.0876 348.974 47.1776 349.427 45.8803 349.427C44.5736 349.427 43.659 348.974 43.1363 348.069C42.6136 347.163 42.3523 345.894 42.3523 344.261ZM48.1343 344.261C48.1343 343.449 48.0783 342.763 47.9663 342.203C47.8636 341.633 47.6443 341.176 47.3083 340.831C46.9816 340.485 46.5056 340.313 45.8803 340.313C45.2456 340.313 44.7603 340.485 44.4243 340.831C44.0976 341.176 43.8783 341.633 43.7663 342.203C43.6636 342.763 43.6123 343.449 43.6123 344.261C43.6123 345.101 43.6636 345.805 43.7663 346.375C43.8783 346.944 44.0976 347.401 44.4243 347.747C44.7603 348.092 45.2456 348.265 45.8803 348.265C46.5056 348.265 46.9816 348.092 47.3083 347.747C47.6443 347.401 47.8636 346.944 47.9663 346.375C48.0783 345.805 48.1343 345.101 48.1343 344.261ZM51.1433 344.261C51.1433 342.655 51.4047 341.405 51.9273 340.509C52.45 339.603 53.3647 339.151 54.6713 339.151C55.9687 339.151 56.8787 339.603 57.4013 340.509C57.924 341.405 58.1853 342.655 58.1853 344.261C58.1853 345.894 57.924 347.163 57.4013 348.069C56.8787 348.974 55.9687 349.427 54.6713 349.427C53.3647 349.427 52.45 348.974 51.9273 348.069C51.4047 347.163 51.1433 345.894 51.1433 344.261ZM56.9253 344.261C56.9253 343.449 56.8693 342.763 56.7573 342.203C56.6547 341.633 56.4353 341.176 56.0993 340.831C55.7727 340.485 55.2967 340.313 54.6713 340.313C54.0367 340.313 53.5513 340.485 53.2153 340.831C52.8887 341.176 52.6693 341.633 52.5573 342.203C52.4547 342.763 52.4033 343.449 52.4033 344.261C52.4033 345.101 52.4547 345.805 52.5573 346.375C52.6693 346.944 52.8887 347.401 53.2153 347.747C53.5513 348.092 54.0367 348.265 54.6713 348.265C55.2967 348.265 55.7727 348.092 56.0993 347.747C56.4353 347.401 56.6547 346.944 56.7573 346.375C56.8693 345.805 56.9253 345.101 56.9253 344.261ZM64.4283 349.427L61.4183 346.039V349.427H60.1443V339.067H61.4183V345.157L64.3723 341.755H66.1503L62.5383 345.577L66.1643 349.427H64.4283Z" fill="#808080"/>
<path d="M35.3136 283.986C34.7909 283.78 34.3896 283.482 34.1096 283.09C33.8296 282.698 33.6896 282.222 33.6896 281.662C33.6896 281.158 33.8156 280.705 34.0676 280.304C34.3196 279.893 34.6929 279.571 35.1876 279.338C35.6916 279.095 36.2983 278.974 37.0076 278.974C37.7169 278.974 38.3189 279.095 38.8136 279.338C39.3176 279.571 39.6956 279.893 39.9476 280.304C40.2089 280.705 40.3396 281.158 40.3396 281.662C40.3396 282.203 40.1949 282.679 39.9056 283.09C39.6163 283.491 39.2196 283.79 38.7156 283.986C39.2943 284.163 39.7516 284.476 40.0876 284.924C40.4329 285.362 40.6056 285.894 40.6056 286.52C40.6056 287.126 40.4563 287.658 40.1576 288.116C39.8589 288.564 39.4343 288.914 38.8836 289.166C38.3423 289.408 37.7169 289.53 37.0076 289.53C36.2983 289.53 35.6729 289.408 35.1316 289.166C34.5996 288.914 34.1843 288.564 33.8856 288.116C33.5869 287.658 33.4376 287.126 33.4376 286.52C33.4376 285.894 33.6056 285.358 33.9416 284.91C34.2776 284.462 34.7349 284.154 35.3136 283.986ZM39.1076 281.816C39.1076 281.246 38.9209 280.808 38.5476 280.5C38.1743 280.192 37.6609 280.038 37.0076 280.038C36.3636 280.038 35.8549 280.192 35.4816 280.5C35.1083 280.808 34.9216 281.251 34.9216 281.83C34.9216 282.352 35.1129 282.772 35.4956 283.09C35.8876 283.407 36.3916 283.566 37.0076 283.566C37.6329 283.566 38.1369 283.407 38.5196 283.09C38.9116 282.763 39.1076 282.338 39.1076 281.816ZM37.0076 284.546C36.3169 284.546 35.7523 284.709 35.3136 285.036C34.8749 285.353 34.6556 285.834 34.6556 286.478C34.6556 287.075 34.8656 287.556 35.2856 287.92C35.7149 288.284 36.2889 288.466 37.0076 288.466C37.7263 288.466 38.2956 288.284 38.7156 287.92C39.1356 287.556 39.3456 287.075 39.3456 286.478C39.3456 285.852 39.1309 285.376 38.7016 285.05C38.2723 284.714 37.7076 284.546 37.0076 284.546ZM42.2976 284.084C42.2976 282.478 42.559 281.228 43.0816 280.332C43.6043 279.426 44.519 278.974 45.8256 278.974C47.123 278.974 48.033 279.426 48.5556 280.332C49.0783 281.228 49.3396 282.478 49.3396 284.084C49.3396 285.717 49.0783 286.986 48.5556 287.892C48.033 288.797 47.123 289.25 45.8256 289.25C44.519 289.25 43.6043 288.797 43.0816 287.892C42.559 286.986 42.2976 285.717 42.2976 284.084ZM48.0796 284.084C48.0796 283.272 48.0236 282.586 47.9116 282.026C47.809 281.456 47.5896 280.999 47.2536 280.654C46.927 280.308 46.451 280.136 45.8256 280.136C45.191 280.136 44.7056 280.308 44.3696 280.654C44.043 280.999 43.8236 281.456 43.7116 282.026C43.609 282.586 43.5576 283.272 43.5576 284.084C43.5576 284.924 43.609 285.628 43.7116 286.198C43.8236 286.767 44.043 287.224 44.3696 287.57C44.7056 287.915 45.191 288.088 45.8256 288.088C46.451 288.088 46.927 287.915 47.2536 287.57C47.5896 287.224 47.809 286.767 47.9116 286.198C48.0236 285.628 48.0796 284.924 48.0796 284.084ZM51.0886 284.084C51.0886 282.478 51.35 281.228 51.8726 280.332C52.3953 279.426 53.31 278.974 54.6166 278.974C55.914 278.974 56.824 279.426 57.3466 280.332C57.8693 281.228 58.1306 282.478 58.1306 284.084C58.1306 285.717 57.8693 286.986 57.3466 287.892C56.824 288.797 55.914 289.25 54.6166 289.25C53.31 289.25 52.3953 288.797 51.8726 287.892C51.35 286.986 51.0886 285.717 51.0886 284.084ZM56.8706 284.084C56.8706 283.272 56.8146 282.586 56.7026 282.026C56.6 281.456 56.3806 280.999 56.0446 280.654C55.718 280.308 55.242 280.136 54.6166 280.136C53.982 280.136 53.4966 280.308 53.1606 280.654C52.834 280.999 52.6146 281.456 52.5026 282.026C52.4 282.586 52.3486 283.272 52.3486 284.084C52.3486 284.924 52.4 285.628 52.5026 286.198C52.6146 286.767 52.834 287.224 53.1606 287.57C53.4966 287.915 53.982 288.088 54.6166 288.088C55.242 288.088 55.718 287.915 56.0446 287.57C56.3806 287.224 56.6 286.767 56.7026 286.198C56.8146 285.628 56.8706 284.924 56.8706 284.084ZM64.3737 289.25L61.3637 285.862V289.25H60.0897V278.89H61.3637V284.98L64.3177 281.578H66.0957L62.4837 285.4L66.1097 289.25H64.3737Z" fill="#808080"/>
<path d="M33.1296 220.113V218.951H35.7616V229.073H34.4736V220.113H33.1296ZM39.476 227.309L37.908 231.075H37.054L38.076 227.309H39.476ZM40.7254 223.907C40.7254 222.301 40.9867 221.051 41.5094 220.155C42.032 219.249 42.9467 218.797 44.2534 218.797C45.5507 218.797 46.4607 219.249 46.9834 220.155C47.506 221.051 47.7674 222.301 47.7674 223.907C47.7674 225.54 47.506 226.809 46.9834 227.715C46.4607 228.62 45.5507 229.073 44.2534 229.073C42.9467 229.073 42.032 228.62 41.5094 227.715C40.9867 226.809 40.7254 225.54 40.7254 223.907ZM46.5074 223.907C46.5074 223.095 46.4514 222.409 46.3394 221.849C46.2367 221.279 46.0174 220.822 45.6814 220.477C45.3547 220.131 44.8787 219.959 44.2534 219.959C43.6187 219.959 43.1334 220.131 42.7974 220.477C42.4707 220.822 42.2514 221.279 42.1394 221.849C42.0367 222.409 41.9854 223.095 41.9854 223.907C41.9854 224.747 42.0367 225.451 42.1394 226.021C42.2514 226.59 42.4707 227.047 42.7974 227.393C43.1334 227.738 43.6187 227.911 44.2534 227.911C44.8787 227.911 45.3547 227.738 45.6814 227.393C46.0174 227.047 46.2367 226.59 46.3394 226.021C46.4514 225.451 46.5074 224.747 46.5074 223.907ZM49.5164 223.907C49.5164 222.301 49.7777 221.051 50.3004 220.155C50.823 219.249 51.7377 218.797 53.0444 218.797C54.3417 218.797 55.2517 219.249 55.7744 220.155C56.297 221.051 56.5584 222.301 56.5584 223.907C56.5584 225.54 56.297 226.809 55.7744 227.715C55.2517 228.62 54.3417 229.073 53.0444 229.073C51.7377 229.073 50.823 228.62 50.3004 227.715C49.7777 226.809 49.5164 225.54 49.5164 223.907ZM55.2984 223.907C55.2984 223.095 55.2424 222.409 55.1304 221.849C55.0277 221.279 54.8084 220.822 54.4724 220.477C54.1457 220.131 53.6697 219.959 53.0444 219.959C52.4097 219.959 51.9244 220.131 51.5884 220.477C51.2617 220.822 51.0424 221.279 50.9304 221.849C50.8277 222.409 50.7764 223.095 50.7764 223.907C50.7764 224.747 50.8277 225.451 50.9304 226.021C51.0424 226.59 51.2617 227.047 51.5884 227.393C51.9244 227.738 52.4097 227.911 53.0444 227.911C53.6697 227.911 54.1457 227.738 54.4724 227.393C54.8084 227.047 55.0277 226.59 55.1304 226.021C55.2424 225.451 55.2984 224.747 55.2984 223.907ZM58.3074 223.907C58.3074 222.301 58.5687 221.051 59.0914 220.155C59.6141 219.249 60.5287 218.797 61.8354 218.797C63.1327 218.797 64.0427 219.249 64.5654 220.155C65.0881 221.051 65.3494 222.301 65.3494 223.907C65.3494 225.54 65.0881 226.809 64.5654 227.715C64.0427 228.62 63.1327 229.073 61.8354 229.073C60.5287 229.073 59.6141 228.62 59.0914 227.715C58.5687 226.809 58.3074 225.54 58.3074 223.907ZM64.0894 223.907C64.0894 223.095 64.0334 222.409 63.9214 221.849C63.8187 221.279 63.5994 220.822 63.2634 220.477C62.9367 220.131 62.4607 219.959 61.8354 219.959C61.2007 219.959 60.7154 220.131 60.3794 220.477C60.0527 220.822 59.8334 221.279 59.7214 221.849C59.6187 222.409 59.5674 223.095 59.5674 223.907C59.5674 224.747 59.6187 225.451 59.7214 226.021C59.8334 226.59 60.0527 227.047 60.3794 227.393C60.7154 227.738 61.2007 227.911 61.8354 227.911C62.4607 227.911 62.9367 227.738 63.2634 227.393C63.5994 227.047 63.8187 226.59 63.9214 226.021C64.0334 225.451 64.0894 224.747 64.0894 223.907ZM71.5924 229.073L68.5824 225.685V229.073H67.3084V218.713H68.5824V224.803L71.5364 221.401H73.3144L69.7024 225.223L73.3284 229.073H71.5924Z" fill="#808080"/>
<path d="M108.847 523.805C108.847 522.2 109.109 520.949 109.631 520.053C110.154 519.148 111.069 518.695 112.375 518.695C113.673 518.695 114.583 519.148 115.105 520.053C115.628 520.949 115.889 522.2 115.889 523.805C115.889 525.439 115.628 526.708 115.105 527.613C114.583 528.519 113.673 528.971 112.375 528.971C111.069 528.971 110.154 528.519 109.631 527.613C109.109 526.708 108.847 525.439 108.847 523.805ZM114.629 523.805C114.629 522.993 114.573 522.307 114.461 521.747C114.359 521.178 114.139 520.721 113.803 520.375C113.477 520.03 113.001 519.857 112.375 519.857C111.741 519.857 111.255 520.03 110.919 520.375C110.593 520.721 110.373 521.178 110.261 521.747C110.159 522.307 110.107 522.993 110.107 523.805C110.107 524.645 110.159 525.35 110.261 525.919C110.373 526.489 110.593 526.946 110.919 527.291C111.255 527.637 111.741 527.809 112.375 527.809C113.001 527.809 113.477 527.637 113.803 527.291C114.139 526.946 114.359 526.489 114.461 525.919C114.573 525.35 114.629 524.645 114.629 523.805ZM123.28 521.257C123.075 520.221 122.436 519.703 121.362 519.703C120.532 519.703 119.911 520.025 119.5 520.669C119.09 521.304 118.889 522.354 118.898 523.819C119.113 523.334 119.468 522.956 119.962 522.685C120.466 522.405 121.026 522.265 121.642 522.265C122.604 522.265 123.369 522.564 123.938 523.161C124.517 523.759 124.806 524.585 124.806 525.639C124.806 526.274 124.68 526.843 124.428 527.347C124.186 527.851 123.812 528.253 123.308 528.551C122.814 528.85 122.212 528.999 121.502 528.999C120.541 528.999 119.79 528.785 119.248 528.355C118.707 527.926 118.329 527.333 118.114 526.577C117.9 525.821 117.792 524.888 117.792 523.777C117.792 520.352 118.987 518.639 121.376 518.639C122.291 518.639 123.01 518.887 123.532 519.381C124.055 519.876 124.363 520.501 124.456 521.257H123.28ZM121.376 523.343C120.975 523.343 120.597 523.427 120.242 523.595C119.888 523.754 119.598 524.001 119.374 524.337C119.16 524.664 119.052 525.065 119.052 525.541C119.052 526.251 119.258 526.829 119.668 527.277C120.079 527.716 120.667 527.935 121.432 527.935C122.086 527.935 122.604 527.735 122.986 527.333C123.378 526.923 123.574 526.372 123.574 525.681C123.574 524.953 123.388 524.384 123.014 523.973C122.641 523.553 122.095 523.343 121.376 523.343Z" fill="#808080"/>
<path d="M156.725 523.805C156.725 522.2 156.986 520.949 157.509 520.053C158.032 519.148 158.946 518.695 160.253 518.695C161.55 518.695 162.46 519.148 162.983 520.053C163.506 520.949 163.767 522.2 163.767 523.805C163.767 525.439 163.506 526.708 162.983 527.613C162.46 528.519 161.55 528.971 160.253 528.971C158.946 528.971 158.032 528.519 157.509 527.613C156.986 526.708 156.725 525.439 156.725 523.805ZM162.507 523.805C162.507 522.993 162.451 522.307 162.339 521.747C162.236 521.178 162.017 520.721 161.681 520.375C161.354 520.03 160.878 519.857 160.253 519.857C159.618 519.857 159.133 520.03 158.797 520.375C158.47 520.721 158.251 521.178 158.139 521.747C158.036 522.307 157.985 522.993 157.985 523.805C157.985 524.645 158.036 525.35 158.139 525.919C158.251 526.489 158.47 526.946 158.797 527.291C159.133 527.637 159.618 527.809 160.253 527.809C160.878 527.809 161.354 527.637 161.681 527.291C162.017 526.946 162.236 526.489 162.339 525.919C162.451 525.35 162.507 524.645 162.507 523.805ZM171.746 519.843L167.854 528.971H166.566L170.514 519.969H165.11V518.877H171.746V519.843Z" fill="#808080"/>
<path d="M202.565 523.805C202.565 522.2 202.827 520.949 203.349 520.053C203.872 519.148 204.787 518.695 206.093 518.695C207.391 518.695 208.301 519.148 208.823 520.053C209.346 520.949 209.607 522.2 209.607 523.805C209.607 525.439 209.346 526.708 208.823 527.613C208.301 528.519 207.391 528.971 206.093 528.971C204.787 528.971 203.872 528.519 203.349 527.613C202.827 526.708 202.565 525.439 202.565 523.805ZM208.347 523.805C208.347 522.993 208.291 522.307 208.179 521.747C208.077 521.178 207.857 520.721 207.521 520.375C207.195 520.03 206.719 519.857 206.093 519.857C205.459 519.857 204.973 520.03 204.637 520.375C204.311 520.721 204.091 521.178 203.979 521.747C203.877 522.307 203.825 522.993 203.825 523.805C203.825 524.645 203.877 525.35 203.979 525.919C204.091 526.489 204.311 526.946 204.637 527.291C204.973 527.637 205.459 527.809 206.093 527.809C206.719 527.809 207.195 527.637 207.521 527.291C207.857 526.946 208.077 526.489 208.179 525.919C208.291 525.35 208.347 524.645 208.347 523.805ZM213.204 523.707C212.682 523.502 212.28 523.203 212 522.811C211.72 522.419 211.58 521.943 211.58 521.383C211.58 520.879 211.706 520.427 211.958 520.025C212.21 519.615 212.584 519.293 213.078 519.059C213.582 518.817 214.189 518.695 214.898 518.695C215.608 518.695 216.21 518.817 216.704 519.059C217.208 519.293 217.586 519.615 217.838 520.025C218.1 520.427 218.23 520.879 218.23 521.383C218.23 521.925 218.086 522.401 217.796 522.811C217.507 523.213 217.11 523.511 216.606 523.707C217.185 523.885 217.642 524.197 217.978 524.645C218.324 525.084 218.496 525.616 218.496 526.241C218.496 526.848 218.347 527.38 218.048 527.837C217.75 528.285 217.325 528.635 216.774 528.887C216.233 529.13 215.608 529.251 214.898 529.251C214.189 529.251 213.564 529.13 213.022 528.887C212.49 528.635 212.075 528.285 211.776 527.837C211.478 527.38 211.328 526.848 211.328 526.241C211.328 525.616 211.496 525.079 211.832 524.631C212.168 524.183 212.626 523.875 213.204 523.707ZM216.998 521.537C216.998 520.968 216.812 520.529 216.438 520.221C216.065 519.913 215.552 519.759 214.898 519.759C214.254 519.759 213.746 519.913 213.372 520.221C212.999 520.529 212.812 520.973 212.812 521.551C212.812 522.074 213.004 522.494 213.386 522.811C213.778 523.129 214.282 523.287 214.898 523.287C215.524 523.287 216.028 523.129 216.41 522.811C216.802 522.485 216.998 522.06 216.998 521.537ZM214.898 524.267C214.208 524.267 213.643 524.431 213.204 524.757C212.766 525.075 212.546 525.555 212.546 526.199C212.546 526.797 212.756 527.277 213.176 527.641C213.606 528.005 214.18 528.187 214.898 528.187C215.617 528.187 216.186 528.005 216.606 527.641C217.026 527.277 217.236 526.797 217.236 526.199C217.236 525.574 217.022 525.098 216.592 524.771C216.163 524.435 215.598 524.267 214.898 524.267Z" fill="#808080"/>
<path d="M248.406 523.805C248.406 522.2 248.667 520.949 249.19 520.053C249.712 519.148 250.627 518.695 251.934 518.695C253.231 518.695 254.141 519.148 254.664 520.053C255.186 520.949 255.448 522.2 255.448 523.805C255.448 525.439 255.186 526.708 254.664 527.613C254.141 528.519 253.231 528.971 251.934 528.971C250.627 528.971 249.712 528.519 249.19 527.613C248.667 526.708 248.406 525.439 248.406 523.805ZM254.188 523.805C254.188 522.993 254.132 522.307 254.02 521.747C253.917 521.178 253.698 520.721 253.362 520.375C253.035 520.03 252.559 519.857 251.934 519.857C251.299 519.857 250.814 520.03 250.478 520.375C250.151 520.721 249.932 521.178 249.82 521.747C249.717 522.307 249.666 522.993 249.666 523.805C249.666 524.645 249.717 525.35 249.82 525.919C249.932 526.489 250.151 526.946 250.478 527.291C250.814 527.637 251.299 527.809 251.934 527.809C252.559 527.809 253.035 527.637 253.362 527.291C253.698 526.946 253.917 526.489 254.02 525.919C254.132 525.35 254.188 524.645 254.188 523.805ZM258.835 526.255C258.928 526.787 259.143 527.198 259.479 527.487C259.824 527.777 260.286 527.921 260.865 527.921C261.639 527.921 262.209 527.618 262.573 527.011C262.946 526.405 263.123 525.383 263.105 523.945C262.909 524.365 262.582 524.697 262.125 524.939C261.667 525.173 261.159 525.289 260.599 525.289C259.973 525.289 259.413 525.163 258.919 524.911C258.433 524.65 258.051 524.272 257.771 523.777C257.491 523.283 257.351 522.685 257.351 521.985C257.351 520.987 257.64 520.184 258.219 519.577C258.797 518.961 259.619 518.653 260.683 518.653C261.989 518.653 262.904 519.078 263.427 519.927C263.959 520.777 264.225 522.041 264.225 523.721C264.225 524.897 264.117 525.868 263.903 526.633C263.697 527.399 263.343 527.982 262.839 528.383C262.344 528.785 261.663 528.985 260.795 528.985C259.843 528.985 259.101 528.729 258.569 528.215C258.037 527.702 257.733 527.049 257.659 526.255H258.835ZM260.809 524.211C261.434 524.211 261.947 524.02 262.349 523.637C262.75 523.245 262.951 522.718 262.951 522.055C262.951 521.355 262.755 520.791 262.363 520.361C261.971 519.932 261.42 519.717 260.711 519.717C260.057 519.717 259.535 519.923 259.143 520.333C258.76 520.744 258.569 521.285 258.569 521.957C258.569 522.639 258.76 523.185 259.143 523.595C259.525 524.006 260.081 524.211 260.809 524.211Z" fill="#808080"/>
<path d="M293.91 520.011V518.849H296.542V528.971H295.254V520.011H293.91ZM298.73 523.805C298.73 522.2 298.992 520.949 299.514 520.053C300.037 519.148 300.952 518.695 302.258 518.695C303.556 518.695 304.466 519.148 304.988 520.053C305.511 520.949 305.772 522.2 305.772 523.805C305.772 525.439 305.511 526.708 304.988 527.613C304.466 528.519 303.556 528.971 302.258 528.971C300.952 528.971 300.037 528.519 299.514 527.613C298.992 526.708 298.73 525.439 298.73 523.805ZM304.512 523.805C304.512 522.993 304.456 522.307 304.344 521.747C304.242 521.178 304.022 520.721 303.686 520.375C303.36 520.03 302.884 519.857 302.258 519.857C301.624 519.857 301.138 520.03 300.802 520.375C300.476 520.721 300.256 521.178 300.144 521.747C300.042 522.307 299.99 522.993 299.99 523.805C299.99 524.645 300.042 525.35 300.144 525.919C300.256 526.489 300.476 526.946 300.802 527.291C301.138 527.637 301.624 527.809 302.258 527.809C302.884 527.809 303.36 527.637 303.686 527.291C304.022 526.946 304.242 526.489 304.344 525.919C304.456 525.35 304.512 524.645 304.512 523.805Z" fill="#808080"/>
<path d="M339.75 520.011V518.849H342.382V528.971H341.094V520.011H339.75ZM344.235 520.011V518.849H346.867V528.971H345.579V520.011H344.235Z" fill="#808080"/>
<path d="M387.628 520.011V518.849H390.26V528.971H388.972V520.011H387.628ZM392.295 527.949C393.48 526.997 394.409 526.218 395.081 525.611C395.753 524.995 396.317 524.356 396.775 523.693C397.241 523.021 397.475 522.363 397.475 521.719C397.475 521.113 397.325 520.637 397.027 520.291C396.737 519.937 396.266 519.759 395.613 519.759C394.978 519.759 394.483 519.96 394.129 520.361C393.783 520.753 393.597 521.281 393.569 521.943H392.337C392.374 520.898 392.691 520.091 393.289 519.521C393.886 518.952 394.656 518.667 395.599 518.667C396.56 518.667 397.321 518.933 397.881 519.465C398.45 519.997 398.735 520.73 398.735 521.663C398.735 522.438 398.501 523.194 398.035 523.931C397.577 524.659 397.055 525.303 396.467 525.863C395.879 526.414 395.127 527.058 394.213 527.795H399.029V528.859H392.295V527.949Z" fill="#808080"/>
<path d="M431.431 520.011V518.849H434.063V528.971H432.775V520.011H431.431ZM436.224 521.397C436.289 520.539 436.62 519.867 437.218 519.381C437.815 518.896 438.59 518.653 439.542 518.653C440.176 518.653 440.722 518.77 441.18 519.003C441.646 519.227 441.996 519.535 442.23 519.927C442.472 520.319 442.594 520.763 442.594 521.257C442.594 521.836 442.426 522.335 442.09 522.755C441.763 523.175 441.334 523.446 440.802 523.567V523.637C441.408 523.787 441.889 524.081 442.244 524.519C442.598 524.958 442.776 525.532 442.776 526.241C442.776 526.773 442.654 527.254 442.412 527.683C442.169 528.103 441.805 528.435 441.32 528.677C440.834 528.92 440.251 529.041 439.57 529.041C438.58 529.041 437.768 528.785 437.134 528.271C436.499 527.749 436.144 527.011 436.07 526.059H437.302C437.367 526.619 437.596 527.077 437.988 527.431C438.38 527.786 438.902 527.963 439.556 527.963C440.209 527.963 440.704 527.795 441.04 527.459C441.385 527.114 441.558 526.671 441.558 526.129C441.558 525.429 441.324 524.925 440.858 524.617C440.391 524.309 439.686 524.155 438.744 524.155H438.422V523.091H438.758C439.616 523.082 440.265 522.942 440.704 522.671C441.142 522.391 441.362 521.962 441.362 521.383C441.362 520.889 441.198 520.492 440.872 520.193C440.554 519.895 440.097 519.745 439.5 519.745C438.921 519.745 438.454 519.895 438.1 520.193C437.745 520.492 437.535 520.893 437.47 521.397H436.224Z" fill="#808080"/>
<path d="M476.253 520.011V518.849H478.885V528.971H477.597V520.011H476.253ZM480.765 526.717V525.751L485.679 518.947H487.205V525.611H488.605V526.717H487.205V528.971H485.945V526.717H480.765ZM486.001 520.277L482.235 525.611H486.001V520.277Z" fill="#808080"/>
<path d="M522.093 520.011V518.849H524.725V528.971H523.437V520.011H522.093ZM533.368 519.955H528.454V523.147C528.668 522.849 528.986 522.606 529.406 522.419C529.826 522.223 530.278 522.125 530.764 522.125C531.538 522.125 532.168 522.289 532.654 522.615C533.139 522.933 533.484 523.348 533.69 523.861C533.904 524.365 534.012 524.902 534.012 525.471C534.012 526.143 533.886 526.745 533.634 527.277C533.382 527.809 532.994 528.229 532.472 528.537C531.958 528.845 531.319 528.999 530.554 528.999C529.574 528.999 528.78 528.747 528.174 528.243C527.567 527.739 527.198 527.067 527.068 526.227H528.314C528.435 526.759 528.692 527.175 529.084 527.473C529.476 527.772 529.97 527.921 530.568 527.921C531.305 527.921 531.86 527.702 532.234 527.263C532.607 526.815 532.794 526.227 532.794 525.499C532.794 524.771 532.607 524.211 532.234 523.819C531.86 523.418 531.31 523.217 530.582 523.217C530.087 523.217 529.653 523.339 529.28 523.581C528.916 523.815 528.65 524.137 528.482 524.547H527.278V518.835H533.368V519.955Z" fill="#808080"/>
<path d="M567.933 520.011V518.849H570.565V528.971H569.277V520.011H567.933ZM578.396 521.257C578.191 520.221 577.551 519.703 576.478 519.703C575.647 519.703 575.027 520.025 574.616 520.669C574.205 521.304 574.005 522.354 574.014 523.819C574.229 523.334 574.583 522.956 575.078 522.685C575.582 522.405 576.142 522.265 576.758 522.265C577.719 522.265 578.485 522.564 579.054 523.161C579.633 523.759 579.922 524.585 579.922 525.639C579.922 526.274 579.796 526.843 579.544 527.347C579.301 527.851 578.928 528.253 578.424 528.551C577.929 528.85 577.327 528.999 576.618 528.999C575.657 528.999 574.905 528.785 574.364 528.355C573.823 527.926 573.445 527.333 573.23 526.577C573.015 525.821 572.908 524.888 572.908 523.777C572.908 520.352 574.103 518.639 576.492 518.639C577.407 518.639 578.125 518.887 578.648 519.381C579.171 519.876 579.479 520.501 579.572 521.257H578.396ZM576.492 523.343C576.091 523.343 575.713 523.427 575.358 523.595C575.003 523.754 574.714 524.001 574.49 524.337C574.275 524.664 574.168 525.065 574.168 525.541C574.168 526.251 574.373 526.829 574.784 527.277C575.195 527.716 575.783 527.935 576.548 527.935C577.201 527.935 577.719 527.735 578.102 527.333C578.494 526.923 578.69 526.372 578.69 525.681C578.69 524.953 578.503 524.384 578.13 523.973C577.757 523.553 577.211 523.343 576.492 523.343Z" fill="#808080"/>
<path d="M609.699 520.011V518.849H612.331V528.971H611.043V520.011H609.699ZM620.749 519.843L616.857 528.971H615.569L619.517 519.969H614.113V518.877H620.749V519.843Z" fill="#808080"/>
<path d="M659.614 520.011V518.849H662.246V528.971H660.958V520.011H659.614ZM666.282 523.707C665.76 523.502 665.358 523.203 665.078 522.811C664.798 522.419 664.658 521.943 664.658 521.383C664.658 520.879 664.784 520.427 665.036 520.025C665.288 519.615 665.662 519.293 666.156 519.059C666.66 518.817 667.267 518.695 667.976 518.695C668.686 518.695 669.288 518.817 669.782 519.059C670.286 519.293 670.664 519.615 670.916 520.025C671.178 520.427 671.308 520.879 671.308 521.383C671.308 521.925 671.164 522.401 670.874 522.811C670.585 523.213 670.188 523.511 669.684 523.707C670.263 523.885 670.72 524.197 671.056 524.645C671.402 525.084 671.574 525.616 671.574 526.241C671.574 526.848 671.425 527.38 671.126 527.837C670.828 528.285 670.403 528.635 669.852 528.887C669.311 529.13 668.686 529.251 667.976 529.251C667.267 529.251 666.642 529.13 666.1 528.887C665.568 528.635 665.153 528.285 664.854 527.837C664.556 527.38 664.406 526.848 664.406 526.241C664.406 525.616 664.574 525.079 664.91 524.631C665.246 524.183 665.704 523.875 666.282 523.707ZM670.076 521.537C670.076 520.968 669.89 520.529 669.516 520.221C669.143 519.913 668.63 519.759 667.976 519.759C667.332 519.759 666.824 519.913 666.45 520.221C666.077 520.529 665.89 520.973 665.89 521.551C665.89 522.074 666.082 522.494 666.464 522.811C666.856 523.129 667.36 523.287 667.976 523.287C668.602 523.287 669.106 523.129 669.488 522.811C669.88 522.485 670.076 522.06 670.076 521.537ZM667.976 524.267C667.286 524.267 666.721 524.431 666.282 524.757C665.844 525.075 665.624 525.555 665.624 526.199C665.624 526.797 665.834 527.277 666.254 527.641C666.684 528.005 667.258 528.187 667.976 528.187C668.695 528.187 669.264 528.005 669.684 527.641C670.104 527.277 670.314 526.797 670.314 526.199C670.314 525.574 670.1 525.098 669.67 524.771C669.241 524.435 668.676 524.267 667.976 524.267Z" fill="#808080"/>
<rect width="13.2428" height="284.115" rx="6.62138" transform="matrix(-1 0 0 1 673.344 214.073)" fill="#EEEEEE"/>
<rect width="13.2428" height="152.351" rx="6.62138" transform="matrix(-1 0 0 1 673.344 345.493)" fill="url(#paint0_linear_102_2)"/>
<rect width="13.2428" height="284.115" rx="6.62138" transform="matrix(-1 0 0 1 627.503 214.073)" fill="#EEEEEE"/>
<rect width="13.2428" height="236.762" rx="6.62138" transform="matrix(-1 0 0 1 627.503 261.425)" fill="url(#paint1_linear_102_2)"/>
<rect width="13.2428" height="284.115" rx="6.62138" transform="matrix(-1 0 0 1 581.663 214.073)" fill="#EEEEEE"/>
<rect width="13.2428" height="152.351" rx="6.62138" transform="matrix(-1 0 0 1 581.663 346.265)" fill="url(#paint2_linear_102_2)"/>
<rect width="13.2428" height="284.115" rx="6.62138" transform="matrix(-1 0 0 1 535.823 214.073)" fill="#EEEEEE"/>
<rect width="13.2428" height="111.175" rx="6.62138" transform="matrix(-1 0 0 1 535.823 386.712)" fill="url(#paint3_linear_102_2)"/>
<rect width="13.2428" height="284.115" rx="6.62138" transform="matrix(-1 0 0 1 489.982 214.073)" fill="#EEEEEE"/>
<rect width="13.2428" height="142.057" rx="6.62138" transform="matrix(-1 0 0 1 489.982 356.13)" fill="url(#paint4_linear_102_2)"/>
<rect width="13.2428" height="284.115" rx="6.62138" transform="matrix(-1 0 0 1 444.142 214.073)" fill="#EEEEEE"/>
<rect width="13.2428" height="131.763" rx="6.62138" transform="matrix(-1 0 0 1 444.142 365.995)" fill="url(#paint5_linear_102_2)"/>
<rect width="13.2428" height="284.115" rx="6.62138" transform="matrix(-1 0 0 1 398.302 214.073)" fill="#EEEEEE"/>
<rect width="13.2428" height="96.7637" rx="6.62138" transform="matrix(-1 0 0 1 398.302 401.509)" fill="url(#paint6_linear_102_2)"/>
<rect width="13.2428" height="284.115" rx="6.62138" transform="matrix(-1 0 0 1 352.461 214.073)" fill="#EEEEEE"/>
<rect width="13.2428" height="119.411" rx="6.62138" transform="matrix(-1 0 0 1 352.461 378.82)" fill="url(#paint7_linear_102_2)"/>
<rect width="13.2428" height="284.115" rx="6.62138" transform="matrix(-1 0 0 1 306.621 214.073)" fill="#EEEEEE"/>
<rect width="13.2428" height="86.4697" rx="6.62138" transform="matrix(-1 0 0 1 306.621 411.374)" fill="url(#paint8_linear_102_2)"/>
<rect width="13.2428" height="284.115" rx="6.62138" transform="matrix(-1 0 0 1 260.781 214.073)" fill="#EEEEEE"/>
<rect width="13.2428" height="152.351" rx="6.62138" transform="matrix(-1 0 0 1 260.781 346.265)" fill="url(#paint9_linear_102_2)"/>
<rect width="13.2428" height="284.115" rx="6.62138" transform="matrix(-1 0 0 1 214.94 214.073)" fill="#EEEEEE"/>
<rect width="13.2428" height="152.351" rx="6.62138" transform="matrix(-1 0 0 1 214.94 346.265)" fill="url(#paint10_linear_102_2)"/>
<rect width="13.2428" height="284.115" rx="6.62138" transform="matrix(-1 0 0 1 169.1 214.073)" fill="#EEEEEE"/>
<rect width="13.2428" height="127.646" rx="6.62138" transform="matrix(-1 0 0 1 169.1 370.927)" fill="url(#paint11_linear_102_2)"/>
<rect width="13.2428" height="284.115" rx="6.62138" transform="matrix(-1 0 0 1 123.26 214.073)" fill="#EEEEEE"/>
<rect width="13.2428" height="68.0691" rx="6.62138" transform="matrix(-1 0 0 1 123.26 430.118)" fill="url(#paint12_linear_102_2)"/>
<path d="M445.876 155.591C445.876 156.562 445.624 157.477 445.12 158.335C444.635 159.175 443.907 159.875 442.936 160.435C441.984 160.977 440.855 161.294 439.548 161.387V163.655H437.756V161.359C435.889 161.191 434.387 160.631 433.248 159.679C432.109 158.709 431.521 157.402 431.484 155.759H435.684C435.796 157.103 436.487 157.915 437.756 158.195V152.847C436.412 152.511 435.329 152.175 434.508 151.839C433.687 151.503 432.977 150.962 432.38 150.215C431.783 149.469 431.484 148.451 431.484 147.163C431.484 145.539 432.063 144.214 433.22 143.187C434.396 142.161 435.908 141.573 437.756 141.423V139.155H439.548V141.423C441.34 141.573 442.768 142.114 443.832 143.047C444.915 143.981 445.521 145.269 445.652 146.911H441.424C441.368 146.37 441.172 145.903 440.836 145.511C440.519 145.101 440.089 144.811 439.548 144.643V149.935C440.948 150.29 442.049 150.635 442.852 150.971C443.673 151.289 444.383 151.821 444.98 152.567C445.577 153.295 445.876 154.303 445.876 155.591ZM435.572 146.967C435.572 147.583 435.759 148.087 436.132 148.479C436.505 148.853 437.047 149.161 437.756 149.403V144.559C437.084 144.653 436.552 144.905 436.16 145.315C435.768 145.726 435.572 146.277 435.572 146.967ZM439.548 158.251C440.257 158.121 440.808 157.831 441.2 157.383C441.611 156.935 441.816 156.394 441.816 155.759C441.816 155.143 441.62 154.649 441.228 154.275C440.836 153.902 440.276 153.594 439.548 153.351V158.251ZM463.524 144.195H454.452V148.983C454.844 148.498 455.404 148.106 456.132 147.807C456.86 147.49 457.635 147.331 458.456 147.331C459.95 147.331 461.172 147.658 462.124 148.311C463.076 148.965 463.767 149.805 464.196 150.831C464.626 151.839 464.84 152.922 464.84 154.079C464.84 156.226 464.224 157.953 462.992 159.259C461.779 160.566 460.043 161.219 457.784 161.219C455.656 161.219 453.958 160.687 452.688 159.623C451.419 158.559 450.7 157.169 450.532 155.451H454.34C454.508 156.198 454.882 156.795 455.46 157.243C456.058 157.691 456.814 157.915 457.728 157.915C458.83 157.915 459.66 157.57 460.22 156.879C460.78 156.189 461.06 155.274 461.06 154.135C461.06 152.978 460.771 152.101 460.192 151.503C459.632 150.887 458.802 150.579 457.7 150.579C456.916 150.579 456.263 150.775 455.74 151.167C455.218 151.559 454.844 152.082 454.62 152.735H450.868V140.751H463.524V144.195ZM481.544 144.195H472.472V148.983C472.864 148.498 473.424 148.106 474.152 147.807C474.88 147.49 475.655 147.331 476.476 147.331C477.969 147.331 479.192 147.658 480.144 148.311C481.096 148.965 481.787 149.805 482.216 150.831C482.645 151.839 482.86 152.922 482.86 154.079C482.86 156.226 482.244 157.953 481.012 159.259C479.799 160.566 478.063 161.219 475.804 161.219C473.676 161.219 471.977 160.687 470.708 159.623C469.439 158.559 468.72 157.169 468.552 155.451H472.36C472.528 156.198 472.901 156.795 473.48 157.243C474.077 157.691 474.833 157.915 475.748 157.915C476.849 157.915 477.68 157.57 478.24 156.879C478.8 156.189 479.08 155.274 479.08 154.135C479.08 152.978 478.791 152.101 478.212 151.503C477.652 150.887 476.821 150.579 475.72 150.579C474.936 150.579 474.283 150.775 473.76 151.167C473.237 151.559 472.864 152.082 472.64 152.735H468.888V140.751H481.544V144.195ZM498.835 143.775L491.387 161.219H487.411L494.915 144.223H485.339V140.863H498.835V143.775ZM505.915 157.103L502.639 164.971H500.119L501.939 157.103H505.915ZM509.525 156.795C511.317 155.302 512.745 154.061 513.809 153.071C514.873 152.063 515.759 151.018 516.469 149.935C517.178 148.853 517.533 147.789 517.533 146.743C517.533 145.791 517.309 145.045 516.861 144.503C516.413 143.962 515.722 143.691 514.789 143.691C513.855 143.691 513.137 144.009 512.633 144.643C512.129 145.259 511.867 146.109 511.849 147.191H508.041C508.115 144.951 508.778 143.253 510.029 142.095C511.298 140.938 512.903 140.359 514.845 140.359C516.973 140.359 518.606 140.929 519.745 142.067C520.883 143.187 521.453 144.671 521.453 146.519C521.453 147.975 521.061 149.366 520.277 150.691C519.493 152.017 518.597 153.174 517.589 154.163C516.581 155.134 515.265 156.31 513.641 157.691H521.901V160.939H508.069V158.027L509.525 156.795ZM524.427 146.183C524.52 144.317 525.173 142.879 526.387 141.871C527.619 140.845 529.233 140.331 531.231 140.331C532.593 140.331 533.76 140.574 534.731 141.059C535.701 141.526 536.429 142.17 536.915 142.991C537.419 143.794 537.671 144.709 537.671 145.735C537.671 146.911 537.363 147.91 536.747 148.731C536.149 149.534 535.431 150.075 534.591 150.355V150.467C535.673 150.803 536.513 151.401 537.111 152.259C537.727 153.118 538.035 154.219 538.035 155.563C538.035 156.683 537.773 157.682 537.251 158.559C536.747 159.437 535.991 160.127 534.983 160.631C533.993 161.117 532.799 161.359 531.399 161.359C529.289 161.359 527.572 160.827 526.247 159.763C524.921 158.699 524.221 157.131 524.147 155.059H527.955C527.992 155.974 528.3 156.711 528.879 157.271C529.476 157.813 530.288 158.083 531.315 158.083C532.267 158.083 532.995 157.822 533.499 157.299C534.021 156.758 534.283 156.067 534.283 155.227C534.283 154.107 533.928 153.305 533.219 152.819C532.509 152.334 531.408 152.091 529.915 152.091H529.103V148.871H529.915C532.565 148.871 533.891 147.985 533.891 146.211C533.891 145.409 533.648 144.783 533.163 144.335C532.696 143.887 532.015 143.663 531.119 143.663C530.241 143.663 529.56 143.906 529.075 144.391C528.608 144.858 528.337 145.455 528.263 146.183H524.427ZM554.852 144.195H545.78V148.983C546.172 148.498 546.732 148.106 547.46 147.807C548.188 147.49 548.963 147.331 549.784 147.331C551.278 147.331 552.5 147.658 553.452 148.311C554.404 148.965 555.095 149.805 555.524 150.831C555.954 151.839 556.168 152.922 556.168 154.079C556.168 156.226 555.552 157.953 554.32 159.259C553.107 160.566 551.371 161.219 549.112 161.219C546.984 161.219 545.286 160.687 544.016 159.623C542.747 158.559 542.028 157.169 541.86 155.451H545.668C545.836 156.198 546.21 156.795 546.788 157.243C547.386 157.691 548.142 157.915 549.056 157.915C550.158 157.915 550.988 157.57 551.548 156.879C552.108 156.189 552.388 155.274 552.388 154.135C552.388 152.978 552.099 152.101 551.52 151.503C550.96 150.887 550.13 150.579 549.028 150.579C548.244 150.579 547.591 150.775 547.068 151.167C546.546 151.559 546.172 152.082 545.948 152.735H542.196V140.751H554.852V144.195ZM561.336 161.415C560.627 161.415 560.039 161.201 559.572 160.771C559.124 160.323 558.9 159.773 558.9 159.119C558.9 158.466 559.124 157.925 559.572 157.495C560.039 157.047 560.627 156.823 561.336 156.823C562.027 156.823 562.596 157.047 563.044 157.495C563.492 157.925 563.716 158.466 563.716 159.119C563.716 159.773 563.492 160.323 563.044 160.771C562.596 161.201 562.027 161.415 561.336 161.415ZM566.481 146.183C566.575 144.317 567.228 142.879 568.441 141.871C569.673 140.845 571.288 140.331 573.285 140.331C574.648 140.331 575.815 140.574 576.785 141.059C577.756 141.526 578.484 142.17 578.969 142.991C579.473 143.794 579.725 144.709 579.725 145.735C579.725 146.911 579.417 147.91 578.801 148.731C578.204 149.534 577.485 150.075 576.645 150.355V150.467C577.728 150.803 578.568 151.401 579.165 152.259C579.781 153.118 580.089 154.219 580.089 155.563C580.089 156.683 579.828 157.682 579.305 158.559C578.801 159.437 578.045 160.127 577.037 160.631C576.048 161.117 574.853 161.359 573.453 161.359C571.344 161.359 569.627 160.827 568.301 159.763C566.976 158.699 566.276 157.131 566.201 155.059H570.009C570.047 155.974 570.355 156.711 570.933 157.271C571.531 157.813 572.343 158.083 573.369 158.083C574.321 158.083 575.049 157.822 575.553 157.299C576.076 156.758 576.337 156.067 576.337 155.227C576.337 154.107 575.983 153.305 575.273 152.819C574.564 152.334 573.463 152.091 571.969 152.091H571.157V148.871H571.969C574.62 148.871 575.945 147.985 575.945 146.211C575.945 145.409 575.703 144.783 575.217 144.335C574.751 143.887 574.069 143.663 573.173 143.663C572.296 143.663 571.615 143.906 571.129 144.391C570.663 144.858 570.392 145.455 570.317 146.183H566.481ZM582.711 144.419V140.807H589.459V161.219H585.427V144.419H582.711Z" fill="black"/>
<path d="M626.02 143.821L619.904 158.165H617.88L624.084 144.019H615.592V142.303H626.02V143.821ZM627.799 145.845C627.799 144.848 628.1 144.056 628.701 143.469C629.303 142.868 630.073 142.567 631.011 142.567C631.95 142.567 632.72 142.868 633.321 143.469C633.923 144.056 634.223 144.848 634.223 145.845C634.223 146.857 633.923 147.664 633.321 148.265C632.72 148.852 631.95 149.145 631.011 149.145C630.073 149.145 629.303 148.852 628.701 148.265C628.1 147.664 627.799 146.857 627.799 145.845ZM640.647 142.809L631.737 158.165H629.757L638.667 142.809H640.647ZM631.011 143.799C630.513 143.799 630.117 143.975 629.823 144.327C629.545 144.665 629.405 145.171 629.405 145.845C629.405 146.52 629.545 147.033 629.823 147.385C630.117 147.737 630.513 147.913 631.011 147.913C631.51 147.913 631.906 147.737 632.199 147.385C632.493 147.019 632.639 146.505 632.639 145.845C632.639 145.171 632.493 144.665 632.199 144.327C631.906 143.975 631.51 143.799 631.011 143.799ZM636.225 155.129C636.225 154.117 636.526 153.318 637.127 152.731C637.729 152.13 638.499 151.829 639.437 151.829C640.376 151.829 641.139 152.13 641.725 152.731C642.327 153.318 642.627 154.117 642.627 155.129C642.627 156.127 642.327 156.926 641.725 157.527C641.139 158.129 640.376 158.429 639.437 158.429C638.499 158.429 637.729 158.136 637.127 157.549C636.526 156.948 636.225 156.141 636.225 155.129ZM639.415 153.083C638.917 153.083 638.521 153.259 638.227 153.611C637.934 153.949 637.787 154.455 637.787 155.129C637.787 155.789 637.934 156.295 638.227 156.647C638.521 156.985 638.917 157.153 639.415 157.153C639.914 157.153 640.31 156.985 640.603 156.647C640.897 156.295 641.043 155.789 641.043 155.129C641.043 154.455 640.897 153.949 640.603 153.611C640.31 153.259 639.914 153.083 639.415 153.083Z" fill="#0008CE"/>
<path d="M656.631 152.909L662.743 146.99L668.855 152.909" fill="#0008CE"/>
<path d="M35.688 155.914H39.592V157.098H34.232V145.946H35.688V155.914ZM40.5943 152.682C40.5943 151.786 40.7756 151.002 41.1383 150.33C41.5009 149.647 41.9969 149.119 42.6263 148.746C43.2663 148.372 43.9756 148.186 44.7543 148.186C45.5223 148.186 46.1889 148.351 46.7543 148.682C47.3196 149.012 47.7409 149.428 48.0183 149.93V148.33H49.4903V157.098H48.0183V155.466C47.7303 155.978 47.2983 156.404 46.7223 156.746C46.1569 157.076 45.4956 157.242 44.7383 157.242C43.9596 157.242 43.2556 157.05 42.6263 156.666C41.9969 156.282 41.5009 155.743 41.1383 155.05C40.7756 154.356 40.5943 153.567 40.5943 152.682ZM48.0183 152.698C48.0183 152.036 47.8849 151.46 47.6183 150.97C47.3516 150.479 46.9889 150.106 46.5303 149.85C46.0823 149.583 45.5863 149.45 45.0423 149.45C44.4983 149.45 44.0023 149.578 43.5543 149.834C43.1063 150.09 42.7489 150.463 42.4823 150.954C42.2156 151.444 42.0823 152.02 42.0823 152.682C42.0823 153.354 42.2156 153.94 42.4823 154.442C42.7489 154.932 43.1063 155.311 43.5543 155.578C44.0023 155.834 44.4983 155.962 45.0423 155.962C45.5863 155.962 46.0823 155.834 46.5303 155.578C46.9889 155.311 47.3516 154.932 47.6183 154.442C47.8849 153.94 48.0183 153.359 48.0183 152.698ZM55.0548 157.242C54.3828 157.242 53.7801 157.13 53.2468 156.906C52.7134 156.671 52.2921 156.351 51.9828 155.946C51.6734 155.53 51.5028 155.055 51.4708 154.522H52.9748C53.0174 154.959 53.2201 155.316 53.5828 155.594C53.9561 155.871 54.4414 156.01 55.0388 156.01C55.5934 156.01 56.0308 155.887 56.3508 155.642C56.6708 155.396 56.8308 155.087 56.8308 154.714C56.8308 154.33 56.6601 154.047 56.3188 153.866C55.9774 153.674 55.4494 153.487 54.7348 153.306C54.0841 153.135 53.5508 152.964 53.1348 152.794C52.7294 152.612 52.3774 152.351 52.0788 152.01C51.7908 151.658 51.6468 151.199 51.6468 150.634C51.6468 150.186 51.7801 149.775 52.0468 149.402C52.3134 149.028 52.6921 148.735 53.1828 148.522C53.6734 148.298 54.2334 148.186 54.8628 148.186C55.8334 148.186 56.6174 148.431 57.2148 148.922C57.8121 149.412 58.1321 150.084 58.1748 150.938H56.7188C56.6868 150.479 56.5001 150.111 56.1588 149.834C55.8281 149.556 55.3801 149.418 54.8148 149.418C54.2921 149.418 53.8761 149.53 53.5668 149.754C53.2574 149.978 53.1028 150.271 53.1028 150.634C53.1028 150.922 53.1934 151.162 53.3748 151.354C53.5668 151.535 53.8014 151.684 54.0788 151.802C54.3668 151.908 54.7614 152.031 55.2628 152.17C55.8921 152.34 56.4041 152.511 56.7988 152.682C57.1934 152.842 57.5294 153.087 57.8068 153.418C58.0948 153.748 58.2441 154.18 58.2548 154.714C58.2548 155.194 58.1214 155.626 57.8548 156.01C57.5881 156.394 57.2094 156.698 56.7188 156.922C56.2388 157.135 55.6841 157.242 55.0548 157.242ZM62.0861 149.53V154.698C62.0861 155.124 62.1768 155.428 62.3581 155.61C62.5395 155.78 62.8541 155.866 63.3021 155.866H64.3741V157.098H63.0621C62.2515 157.098 61.6435 156.911 61.2381 156.538C60.8328 156.164 60.6301 155.551 60.6301 154.698V149.53H59.4941V148.33H60.6301V146.122H62.0861V148.33H64.3741V149.53H62.0861ZM84.4199 145.946L81.1879 157.098H79.5559L76.9639 148.122L74.2759 157.098L72.6599 157.114L69.5399 145.946H71.0919L73.5239 155.402L76.2119 145.946H77.8439L80.4039 155.37L82.8519 145.946H84.4199ZM94.0133 152.378C94.0133 152.655 93.9973 152.948 93.9653 153.258H86.9573C87.0106 154.122 87.3039 154.799 87.8373 155.29C88.3813 155.77 89.0373 156.01 89.8053 156.01C90.4346 156.01 90.9573 155.866 91.3733 155.578C91.7999 155.279 92.0986 154.884 92.2693 154.394H93.8373C93.6026 155.236 93.1333 155.924 92.4293 156.458C91.7253 156.98 90.8506 157.242 89.8053 157.242C88.9733 157.242 88.2266 157.055 87.5653 156.682C86.9146 156.308 86.4026 155.78 86.0293 155.098C85.6559 154.404 85.4693 153.604 85.4693 152.698C85.4693 151.791 85.6506 150.996 86.0133 150.314C86.3759 149.631 86.8826 149.108 87.5333 148.746C88.1946 148.372 88.9519 148.186 89.8053 148.186C90.6373 148.186 91.3733 148.367 92.0133 148.73C92.6533 149.092 93.1439 149.594 93.4853 150.234C93.8373 150.863 94.0133 151.578 94.0133 152.378ZM92.5093 152.074C92.5093 151.519 92.3866 151.044 92.1413 150.65C91.8959 150.244 91.5599 149.94 91.1333 149.738C90.7173 149.524 90.2533 149.418 89.7413 149.418C89.0053 149.418 88.3759 149.652 87.8533 150.122C87.3413 150.591 87.0479 151.242 86.9733 152.074H92.5093ZM103.935 152.378C103.935 152.655 103.919 152.948 103.887 153.258H96.8791C96.9325 154.122 97.2258 154.799 97.7591 155.29C98.3031 155.77 98.9591 156.01 99.7271 156.01C100.356 156.01 100.879 155.866 101.295 155.578C101.722 155.279 102.02 154.884 102.191 154.394H103.759C103.524 155.236 103.055 155.924 102.351 156.458C101.647 156.98 100.772 157.242 99.7271 157.242C98.8951 157.242 98.1485 157.055 97.4871 156.682C96.8365 156.308 96.3245 155.78 95.9511 155.098C95.5778 154.404 95.3911 153.604 95.3911 152.698C95.3911 151.791 95.5725 150.996 95.9351 150.314C96.2978 149.631 96.8045 149.108 97.4551 148.746C98.1165 148.372 98.8738 148.186 99.7271 148.186C100.559 148.186 101.295 148.367 101.935 148.73C102.575 149.092 103.066 149.594 103.407 150.234C103.759 150.863 103.935 151.578 103.935 152.378ZM102.431 152.074C102.431 151.519 102.308 151.044 102.063 150.65C101.818 150.244 101.482 149.94 101.055 149.738C100.639 149.524 100.175 149.418 99.6631 149.418C98.9271 149.418 98.2978 149.652 97.7751 150.122C97.2631 150.591 96.9698 151.242 96.8951 152.074H102.431ZM110.753 157.098L107.313 153.226V157.098H105.857V145.258H107.313V152.218L110.689 148.33H112.721L108.593 152.698L112.737 157.098H110.753Z" fill="black"/>
<path d="M125.557 154.042C125.557 154.554 125.429 155.044 125.173 155.514C124.917 155.972 124.538 156.356 124.037 156.666C123.546 156.975 122.954 157.151 122.261 157.194V158.49H121.397V157.194C120.426 157.108 119.637 156.799 119.029 156.266C118.421 155.722 118.112 155.034 118.101 154.202H119.653C119.696 154.65 119.861 155.039 120.149 155.37C120.448 155.7 120.864 155.908 121.397 155.994V151.994C120.682 151.812 120.106 151.626 119.669 151.434C119.232 151.242 118.858 150.943 118.549 150.538C118.24 150.132 118.085 149.588 118.085 148.906C118.085 148.042 118.384 147.327 118.981 146.762C119.589 146.196 120.394 145.882 121.397 145.818V144.49H122.261V145.818C123.168 145.892 123.898 146.186 124.453 146.698C125.008 147.199 125.328 147.855 125.413 148.666H123.861C123.808 148.292 123.642 147.956 123.365 147.658C123.088 147.348 122.72 147.146 122.261 147.05V150.954C122.965 151.135 123.536 151.322 123.973 151.514C124.421 151.695 124.794 151.988 125.093 152.394C125.402 152.799 125.557 153.348 125.557 154.042ZM119.573 148.826C119.573 149.348 119.728 149.748 120.037 150.026C120.346 150.303 120.8 150.532 121.397 150.714V147.018C120.842 147.071 120.4 147.252 120.069 147.562C119.738 147.86 119.573 148.282 119.573 148.826ZM122.261 156.01C122.837 155.946 123.285 155.738 123.605 155.386C123.936 155.034 124.101 154.612 124.101 154.122C124.101 153.599 123.941 153.199 123.621 152.922C123.301 152.634 122.848 152.404 122.261 152.234V156.01ZM135.446 146.794H129.83V150.442C130.075 150.1 130.438 149.823 130.918 149.61C131.398 149.386 131.915 149.274 132.47 149.274C133.355 149.274 134.075 149.46 134.63 149.834C135.185 150.196 135.579 150.671 135.814 151.258C136.059 151.834 136.182 152.447 136.182 153.098C136.182 153.866 136.038 154.554 135.75 155.162C135.462 155.77 135.019 156.25 134.422 156.602C133.835 156.954 133.105 157.13 132.23 157.13C131.11 157.13 130.203 156.842 129.51 156.266C128.817 155.69 128.395 154.922 128.246 153.962H129.67C129.809 154.57 130.102 155.044 130.55 155.386C130.998 155.727 131.563 155.898 132.246 155.898C133.089 155.898 133.723 155.647 134.15 155.146C134.577 154.634 134.79 153.962 134.79 153.13C134.79 152.298 134.577 151.658 134.15 151.21C133.723 150.751 133.094 150.522 132.262 150.522C131.697 150.522 131.201 150.66 130.774 150.938C130.358 151.204 130.054 151.572 129.862 152.042H128.486V145.514H135.446V146.794ZM144.565 148.282C144.33 147.098 143.6 146.506 142.373 146.506C141.424 146.506 140.714 146.874 140.245 147.61C139.776 148.335 139.546 149.535 139.557 151.21C139.802 150.655 140.208 150.223 140.773 149.914C141.349 149.594 141.989 149.434 142.693 149.434C143.792 149.434 144.666 149.775 145.317 150.458C145.978 151.14 146.309 152.084 146.309 153.29C146.309 154.015 146.165 154.666 145.877 155.242C145.6 155.818 145.173 156.276 144.597 156.618C144.032 156.959 143.344 157.13 142.533 157.13C141.434 157.13 140.576 156.884 139.957 156.394C139.338 155.903 138.906 155.226 138.661 154.362C138.416 153.498 138.293 152.431 138.293 151.162C138.293 147.247 139.658 145.29 142.389 145.29C143.434 145.29 144.256 145.572 144.853 146.138C145.45 146.703 145.802 147.418 145.909 148.282H144.565ZM142.389 150.666C141.93 150.666 141.498 150.762 141.093 150.954C140.688 151.135 140.357 151.418 140.101 151.802C139.856 152.175 139.733 152.634 139.733 153.178C139.733 153.988 139.968 154.65 140.437 155.162C140.906 155.663 141.578 155.914 142.453 155.914C143.2 155.914 143.792 155.684 144.229 155.226C144.677 154.756 144.901 154.127 144.901 153.338C144.901 152.506 144.688 151.855 144.261 151.386C143.834 150.906 143.21 150.666 142.389 150.666ZM148.241 148.442C148.316 147.46 148.695 146.692 149.377 146.138C150.06 145.583 150.945 145.306 152.033 145.306C152.759 145.306 153.383 145.439 153.905 145.706C154.439 145.962 154.839 146.314 155.105 146.762C155.383 147.21 155.521 147.716 155.521 148.282C155.521 148.943 155.329 149.514 154.945 149.994C154.572 150.474 154.081 150.783 153.473 150.922V151.002C154.167 151.172 154.716 151.508 155.121 152.01C155.527 152.511 155.729 153.167 155.729 153.978C155.729 154.586 155.591 155.135 155.313 155.626C155.036 156.106 154.62 156.484 154.065 156.762C153.511 157.039 152.844 157.178 152.065 157.178C150.935 157.178 150.007 156.884 149.281 156.298C148.556 155.7 148.151 154.858 148.065 153.77H149.473C149.548 154.41 149.809 154.932 150.257 155.338C150.705 155.743 151.303 155.946 152.049 155.946C152.796 155.946 153.361 155.754 153.745 155.37C154.14 154.975 154.337 154.468 154.337 153.85C154.337 153.05 154.071 152.474 153.537 152.122C153.004 151.77 152.199 151.594 151.121 151.594H150.753V150.378H151.137C152.119 150.367 152.86 150.207 153.361 149.898C153.863 149.578 154.113 149.087 154.113 148.426C154.113 147.86 153.927 147.407 153.553 147.066C153.191 146.724 152.668 146.554 151.985 146.554C151.324 146.554 150.791 146.724 150.385 147.066C149.98 147.407 149.74 147.866 149.665 148.442H148.241ZM159.439 155.082L157.647 159.386H156.671L157.839 155.082H159.439ZM160.515 154.522V153.418L166.131 145.642H167.875V153.258H169.475V154.522H167.875V157.098H166.435V154.522H160.515ZM166.499 147.162L162.195 153.258H166.499V147.162ZM170.578 154.522V153.418L176.194 145.642H177.938V153.258H179.538V154.522H177.938V157.098H176.498V154.522H170.578ZM176.562 147.162L172.258 153.258H176.562V147.162ZM180.96 148.442C181.035 147.46 181.413 146.692 182.096 146.138C182.779 145.583 183.664 145.306 184.752 145.306C185.477 145.306 186.101 145.439 186.624 145.706C187.157 145.962 187.557 146.314 187.824 146.762C188.101 147.21 188.24 147.716 188.24 148.282C188.24 148.943 188.048 149.514 187.664 149.994C187.291 150.474 186.8 150.783 186.192 150.922V151.002C186.885 151.172 187.435 151.508 187.84 152.01C188.245 152.511 188.448 153.167 188.448 153.978C188.448 154.586 188.309 155.135 188.032 155.626C187.755 156.106 187.339 156.484 186.784 156.762C186.229 157.039 185.563 157.178 184.784 157.178C183.653 157.178 182.725 156.884 182 156.298C181.275 155.7 180.869 154.858 180.784 153.77H182.192C182.267 154.41 182.528 154.932 182.976 155.338C183.424 155.743 184.021 155.946 184.768 155.946C185.515 155.946 186.08 155.754 186.464 155.37C186.859 154.975 187.056 154.468 187.056 153.85C187.056 153.05 186.789 152.474 186.256 152.122C185.723 151.77 184.917 151.594 183.84 151.594H183.472V150.378H183.856C184.837 150.367 185.579 150.207 186.08 149.898C186.581 149.578 186.832 149.087 186.832 148.426C186.832 147.86 186.645 147.407 186.272 147.066C185.909 146.724 185.387 146.554 184.704 146.554C184.043 146.554 183.509 146.724 183.104 147.066C182.699 147.407 182.459 147.866 182.384 148.442H180.96Z" fill="#C8AE24"/>
<path d="M35.84 71.4655C34.5467 71.4655 33.3533 71.1655 32.26 70.5655C31.18 69.9521 30.32 69.1055 29.68 68.0255C29.0533 66.9321 28.74 65.7055 28.74 64.3455C28.74 62.9855 29.0533 61.7655 29.68 60.6855C30.32 59.6055 31.18 58.7655 32.26 58.1655C33.3533 57.5521 34.5467 57.2455 35.84 57.2455C37.1467 57.2455 38.34 57.5521 39.42 58.1655C40.5133 58.7655 41.3733 59.6055 42 60.6855C42.6267 61.7655 42.94 62.9855 42.94 64.3455C42.94 65.7055 42.6267 66.9321 42 68.0255C41.3733 69.1055 40.5133 69.9521 39.42 70.5655C38.34 71.1655 37.1467 71.4655 35.84 71.4655ZM35.84 69.4855C36.76 69.4855 37.58 69.2788 38.3 68.8655C39.02 68.4388 39.58 67.8388 39.98 67.0655C40.3933 66.2788 40.6 65.3721 40.6 64.3455C40.6 63.3188 40.3933 62.4188 39.98 61.6455C39.58 60.8721 39.02 60.2788 38.3 59.8655C37.58 59.4521 36.76 59.2455 35.84 59.2455C34.92 59.2455 34.1 59.4521 33.38 59.8655C32.66 60.2788 32.0933 60.8721 31.68 61.6455C31.28 62.4188 31.08 63.3188 31.08 64.3455C31.08 65.3721 31.28 66.2788 31.68 67.0655C32.0933 67.8388 32.66 68.4388 33.38 68.8655C34.1 69.2788 34.92 69.4855 35.84 69.4855ZM49.4436 69.2855L52.5636 60.3055H54.9836L50.7836 71.3255H48.0636L43.8836 60.3055H46.3236L49.4436 69.2855ZM66.807 65.5455C66.807 65.9588 66.7804 66.3321 66.727 66.6655H58.307C58.3737 67.5455 58.7004 68.2521 59.287 68.7855C59.8737 69.3188 60.5937 69.5855 61.447 69.5855C62.6737 69.5855 63.5404 69.0721 64.047 68.0455H66.507C66.1737 69.0588 65.567 69.8921 64.687 70.5455C63.8204 71.1855 62.7404 71.5055 61.447 71.5055C60.3937 71.5055 59.447 71.2721 58.607 70.8055C57.7804 70.3255 57.127 69.6588 56.647 68.8055C56.1804 67.9388 55.947 66.9388 55.947 65.8055C55.947 64.6721 56.1737 63.6788 56.627 62.8255C57.0937 61.9588 57.7404 61.2921 58.567 60.8255C59.407 60.3588 60.367 60.1255 61.447 60.1255C62.487 60.1255 63.4137 60.3521 64.227 60.8055C65.0404 61.2588 65.6737 61.8988 66.127 62.7255C66.5804 63.5388 66.807 64.4788 66.807 65.5455ZM64.427 64.8255C64.4137 63.9855 64.1137 63.3121 63.527 62.8055C62.9404 62.2988 62.2137 62.0455 61.347 62.0455C60.5604 62.0455 59.887 62.2988 59.327 62.8055C58.767 63.2988 58.4337 63.9721 58.327 64.8255H64.427ZM71.3308 61.9055C71.6641 61.3455 72.1041 60.9121 72.6508 60.6055C73.2108 60.2855 73.8708 60.1255 74.6308 60.1255V62.4855H74.0508C73.1574 62.4855 72.4774 62.7121 72.0108 63.1655C71.5574 63.6188 71.3308 64.4055 71.3308 65.5255V71.3255H69.0508V60.3055H71.3308V61.9055ZM80.9866 69.2855L84.1066 60.3055H86.5266L82.3266 71.3255H79.6066L75.4266 60.3055H77.8666L80.9866 69.2855ZM89.41 58.8455C88.9967 58.8455 88.65 58.7055 88.37 58.4255C88.09 58.1455 87.95 57.7988 87.95 57.3855C87.95 56.9721 88.09 56.6255 88.37 56.3455C88.65 56.0655 88.9967 55.9255 89.41 55.9255C89.81 55.9255 90.15 56.0655 90.43 56.3455C90.71 56.6255 90.85 56.9721 90.85 57.3855C90.85 57.7988 90.71 58.1455 90.43 58.4255C90.15 58.7055 89.81 58.8455 89.41 58.8455ZM90.53 60.3055V71.3255H88.25V60.3055H90.53ZM103.623 65.5455C103.623 65.9588 103.597 66.3321 103.543 66.6655H95.1234C95.1901 67.5455 95.5168 68.2521 96.1034 68.7855C96.6901 69.3188 97.4101 69.5855 98.2634 69.5855C99.4901 69.5855 100.357 69.0721 100.863 68.0455H103.323C102.99 69.0588 102.383 69.8921 101.503 70.5455C100.637 71.1855 99.5568 71.5055 98.2634 71.5055C97.2101 71.5055 96.2634 71.2721 95.4234 70.8055C94.5968 70.3255 93.9434 69.6588 93.4634 68.8055C92.9968 67.9388 92.7634 66.9388 92.7634 65.8055C92.7634 64.6721 92.9901 63.6788 93.4434 62.8255C93.9101 61.9588 94.5568 61.2921 95.3834 60.8255C96.2234 60.3588 97.1834 60.1255 98.2634 60.1255C99.3034 60.1255 100.23 60.3521 101.043 60.8055C101.857 61.2588 102.49 61.8988 102.943 62.7255C103.397 63.5388 103.623 64.4788 103.623 65.5455ZM101.243 64.8255C101.23 63.9855 100.93 63.3121 100.343 62.8055C99.7568 62.2988 99.0301 62.0455 98.1634 62.0455C97.3768 62.0455 96.7034 62.2988 96.1434 62.8055C95.5834 63.2988 95.2501 63.9721 95.1434 64.8255H101.243ZM120.667 60.3055L117.247 71.3255H114.847L112.627 63.1855L110.407 71.3255H108.007L104.567 60.3055H106.887L109.187 69.1655L111.527 60.3055H113.907L116.147 69.1255L118.427 60.3055H120.667ZM135.006 64.1855C135.753 64.3188 136.386 64.7121 136.906 65.3655C137.426 66.0188 137.686 66.7588 137.686 67.5855C137.686 68.2921 137.5 68.9321 137.126 69.5055C136.766 70.0655 136.24 70.5121 135.546 70.8455C134.853 71.1655 134.046 71.3255 133.126 71.3255H127.566V57.4255H132.866C133.813 57.4255 134.626 57.5855 135.306 57.9055C135.986 58.2255 136.5 58.6588 136.846 59.2055C137.193 59.7388 137.366 60.3388 137.366 61.0055C137.366 61.8055 137.153 62.4721 136.726 63.0055C136.3 63.5388 135.726 63.9321 135.006 64.1855ZM129.846 63.2655H132.666C133.413 63.2655 133.993 63.0988 134.406 62.7655C134.833 62.4188 135.046 61.9255 135.046 61.2855C135.046 60.6588 134.833 60.1721 134.406 59.8255C133.993 59.4655 133.413 59.2855 132.666 59.2855H129.846V63.2655ZM132.926 69.4655C133.7 69.4655 134.306 69.2788 134.746 68.9055C135.186 68.5321 135.406 68.0121 135.406 67.3455C135.406 66.6655 135.173 66.1255 134.706 65.7255C134.24 65.3255 133.62 65.1255 132.846 65.1255H129.846V69.4655H132.926ZM139.404 65.7655C139.404 64.6588 139.631 63.6788 140.084 62.8255C140.551 61.9721 141.177 61.3121 141.964 60.8455C142.764 60.3655 143.644 60.1255 144.604 60.1255C145.471 60.1255 146.224 60.2988 146.864 60.6455C147.517 60.9788 148.037 61.3988 148.424 61.9055V60.3055H150.724V71.3255H148.424V69.6855C148.037 70.2055 147.511 70.6388 146.844 70.9855C146.177 71.3321 145.417 71.5055 144.564 71.5055C143.617 71.5055 142.751 71.2655 141.964 70.7855C141.177 70.2921 140.551 69.6121 140.084 68.7455C139.631 67.8655 139.404 66.8721 139.404 65.7655ZM148.424 65.8055C148.424 65.0455 148.264 64.3855 147.944 63.8255C147.637 63.2655 147.231 62.8388 146.724 62.5455C146.217 62.2521 145.671 62.1055 145.084 62.1055C144.497 62.1055 143.951 62.2521 143.444 62.5455C142.937 62.8255 142.524 63.2455 142.204 63.8055C141.897 64.3521 141.744 65.0055 141.744 65.7655C141.744 66.5255 141.897 67.1921 142.204 67.7655C142.524 68.3388 142.937 68.7788 143.444 69.0855C143.964 69.3788 144.511 69.5255 145.084 69.5255C145.671 69.5255 146.217 69.3788 146.724 69.0855C147.231 68.7921 147.637 68.3655 147.944 67.8055C148.264 67.2321 148.424 66.5655 148.424 65.8055ZM155.999 56.5255V71.3255H153.719V56.5255H155.999ZM158.232 65.7655C158.232 64.6588 158.459 63.6788 158.912 62.8255C159.379 61.9721 160.006 61.3121 160.792 60.8455C161.592 60.3655 162.472 60.1255 163.432 60.1255C164.299 60.1255 165.052 60.2988 165.692 60.6455C166.346 60.9788 166.866 61.3988 167.252 61.9055V60.3055H169.552V71.3255H167.252V69.6855C166.866 70.2055 166.339 70.6388 165.672 70.9855C165.006 71.3321 164.246 71.5055 163.392 71.5055C162.446 71.5055 161.579 71.2655 160.792 70.7855C160.006 70.2921 159.379 69.6121 158.912 68.7455C158.459 67.8655 158.232 66.8721 158.232 65.7655ZM167.252 65.8055C167.252 65.0455 167.092 64.3855 166.772 63.8255C166.466 63.2655 166.059 62.8388 165.552 62.5455C165.046 62.2521 164.499 62.1055 163.912 62.1055C163.326 62.1055 162.779 62.2521 162.272 62.5455C161.766 62.8255 161.352 63.2455 161.032 63.8055C160.726 64.3521 160.572 65.0055 160.572 65.7655C160.572 66.5255 160.726 67.1921 161.032 67.7655C161.352 68.3388 161.766 68.7788 162.272 69.0855C162.792 69.3788 163.339 69.5255 163.912 69.5255C164.499 69.5255 165.046 69.3788 165.552 69.0855C166.059 68.7921 166.466 68.3655 166.772 67.8055C167.092 67.2321 167.252 66.5655 167.252 65.8055ZM178.107 60.1255C178.974 60.1255 179.747 60.3055 180.427 60.6655C181.12 61.0255 181.66 61.5588 182.047 62.2655C182.434 62.9721 182.627 63.8255 182.627 64.8255V71.3255H180.367V65.1655C180.367 64.1788 180.12 63.4255 179.627 62.9055C179.134 62.3721 178.46 62.1055 177.607 62.1055C176.754 62.1055 176.074 62.3721 175.567 62.9055C175.074 63.4255 174.827 64.1788 174.827 65.1655V71.3255H172.547V60.3055H174.827V61.5655C175.2 61.1121 175.674 60.7588 176.247 60.5055C176.834 60.2521 177.454 60.1255 178.107 60.1255ZM184.775 65.8055C184.775 64.6721 185.002 63.6788 185.455 62.8255C185.922 61.9588 186.562 61.2921 187.375 60.8255C188.188 60.3588 189.122 60.1255 190.175 60.1255C191.508 60.1255 192.608 60.4455 193.475 61.0855C194.355 61.7121 194.948 62.6121 195.255 63.7855H192.795C192.595 63.2388 192.275 62.8121 191.835 62.5055C191.395 62.1988 190.842 62.0455 190.175 62.0455C189.242 62.0455 188.495 62.3788 187.935 63.0455C187.388 63.6988 187.115 64.6188 187.115 65.8055C187.115 66.9921 187.388 67.9188 187.935 68.5855C188.495 69.2521 189.242 69.5855 190.175 69.5855C191.495 69.5855 192.368 69.0055 192.795 67.8455H195.255C194.935 68.9655 194.335 69.8588 193.455 70.5255C192.575 71.1788 191.482 71.5055 190.175 71.5055C189.122 71.5055 188.188 71.2721 187.375 70.8055C186.562 70.3255 185.922 69.6588 185.455 68.8055C185.002 67.9388 184.775 66.9388 184.775 65.8055ZM207.627 65.5455C207.627 65.9588 207.601 66.3321 207.547 66.6655H199.127C199.194 67.5455 199.521 68.2521 200.107 68.7855C200.694 69.3188 201.414 69.5855 202.267 69.5855C203.494 69.5855 204.361 69.0721 204.867 68.0455H207.327C206.994 69.0588 206.387 69.8921 205.507 70.5455C204.641 71.1855 203.561 71.5055 202.267 71.5055C201.214 71.5055 200.267 71.2721 199.427 70.8055C198.601 70.3255 197.947 69.6588 197.467 68.8055C197.001 67.9388 196.767 66.9388 196.767 65.8055C196.767 64.6721 196.994 63.6788 197.447 62.8255C197.914 61.9588 198.561 61.2921 199.387 60.8255C200.227 60.3588 201.187 60.1255 202.267 60.1255C203.307 60.1255 204.234 60.3521 205.047 60.8055C205.861 61.2588 206.494 61.8988 206.947 62.7255C207.401 63.5388 207.627 64.4788 207.627 65.5455ZM205.247 64.8255C205.234 63.9855 204.934 63.3121 204.347 62.8055C203.761 62.2988 203.034 62.0455 202.167 62.0455C201.381 62.0455 200.707 62.2988 200.147 62.8055C199.587 63.2988 199.254 63.9721 199.147 64.8255H205.247Z" fill="black"/>
<path d="M35.016 93.0058H37.944V93.8938H33.924V85.5298H35.016V93.0058ZM41.9717 94.0018C41.3557 94.0018 40.7957 93.8618 40.2917 93.5818C39.7957 93.3018 39.4037 92.9058 39.1157 92.3938C38.8357 91.8738 38.6957 91.2738 38.6957 90.5938C38.6957 89.9218 38.8397 89.3298 39.1277 88.8178C39.4237 88.2978 39.8237 87.9018 40.3277 87.6298C40.8317 87.3498 41.3957 87.2098 42.0197 87.2098C42.6437 87.2098 43.2077 87.3498 43.7117 87.6298C44.2157 87.9018 44.6117 88.2938 44.8997 88.8058C45.1957 89.3178 45.3437 89.9138 45.3437 90.5938C45.3437 91.2738 45.1917 91.8738 44.8877 92.3938C44.5917 92.9058 44.1877 93.3018 43.6757 93.5818C43.1637 93.8618 42.5957 94.0018 41.9717 94.0018ZM41.9717 93.0418C42.3637 93.0418 42.7317 92.9498 43.0757 92.7658C43.4197 92.5818 43.6957 92.3058 43.9037 91.9378C44.1197 91.5698 44.2277 91.1218 44.2277 90.5938C44.2277 90.0658 44.1237 89.6178 43.9157 89.2498C43.7077 88.8818 43.4357 88.6098 43.0997 88.4338C42.7637 88.2498 42.3997 88.1578 42.0077 88.1578C41.6077 88.1578 41.2397 88.2498 40.9037 88.4338C40.5757 88.6098 40.3117 88.8818 40.1117 89.2498C39.9117 89.6178 39.8117 90.0658 39.8117 90.5938C39.8117 91.1298 39.9077 91.5818 40.0997 91.9498C40.2997 92.3178 40.5637 92.5938 40.8917 92.7778C41.2197 92.9538 41.5797 93.0418 41.9717 93.0418ZM47.8715 88.3858C48.0635 88.0098 48.3355 87.7178 48.6875 87.5098C49.0475 87.3018 49.4835 87.1978 49.9955 87.1978V88.3258H49.7075C48.4835 88.3258 47.8715 88.9898 47.8715 90.3178V93.8938H46.7795V87.3178H47.8715V88.3858ZM57.256 90.3538C57.256 90.5618 57.244 90.7818 57.22 91.0138H51.964C52.004 91.6618 52.224 92.1698 52.624 92.5378C53.032 92.8978 53.524 93.0778 54.1 93.0778C54.572 93.0778 54.964 92.9698 55.276 92.7538C55.596 92.5298 55.82 92.2338 55.948 91.8658H57.124C56.948 92.4978 56.596 93.0138 56.068 93.4138C55.54 93.8058 54.884 94.0018 54.1 94.0018C53.476 94.0018 52.916 93.8618 52.42 93.5818C51.932 93.3018 51.548 92.9058 51.268 92.3938C50.988 91.8738 50.848 91.2738 50.848 90.5938C50.848 89.9138 50.984 89.3178 51.256 88.8058C51.528 88.2938 51.908 87.9018 52.396 87.6298C52.892 87.3498 53.46 87.2098 54.1 87.2098C54.724 87.2098 55.276 87.3458 55.756 87.6178C56.236 87.8898 56.604 88.2658 56.86 88.7458C57.124 89.2178 57.256 89.7538 57.256 90.3538ZM56.128 90.1258C56.128 89.7098 56.036 89.3538 55.852 89.0578C55.668 88.7538 55.416 88.5258 55.096 88.3738C54.784 88.2138 54.436 88.1338 54.052 88.1338C53.5 88.1338 53.028 88.3098 52.636 88.6618C52.252 89.0138 52.032 89.5018 51.976 90.1258H56.128ZM66.6054 87.1978C67.1174 87.1978 67.5734 87.3058 67.9734 87.5218C68.3734 87.7298 68.6894 88.0458 68.9214 88.4698C69.1534 88.8938 69.2694 89.4098 69.2694 90.0178V93.8938H68.1894V90.1738C68.1894 89.5178 68.0254 89.0178 67.6974 88.6738C67.3774 88.3218 66.9414 88.1458 66.3894 88.1458C65.8214 88.1458 65.3694 88.3298 65.0334 88.6978C64.6974 89.0578 64.5294 89.5818 64.5294 90.2698V93.8938H63.4494V90.1738C63.4494 89.5178 63.2854 89.0178 62.9574 88.6738C62.6374 88.3218 62.2014 88.1458 61.6494 88.1458C61.0814 88.1458 60.6294 88.3298 60.2934 88.6978C59.9574 89.0578 59.7894 89.5818 59.7894 90.2698V93.8938H58.6974V87.3178H59.7894V88.2658C60.0054 87.9218 60.2934 87.6578 60.6534 87.4738C61.0214 87.2898 61.4254 87.1978 61.8654 87.1978C62.4174 87.1978 62.9054 87.3218 63.3294 87.5698C63.7534 87.8178 64.0694 88.1818 64.2774 88.6618C64.4614 88.1978 64.7654 87.8378 65.1894 87.5818C65.6134 87.3258 66.0854 87.1978 66.6054 87.1978ZM74.8239 86.2498C74.6159 86.2498 74.4399 86.1778 74.2959 86.0338C74.1519 85.8898 74.0799 85.7138 74.0799 85.5058C74.0799 85.2978 74.1519 85.1218 74.2959 84.9778C74.4399 84.8338 74.6159 84.7618 74.8239 84.7618C75.0239 84.7618 75.1919 84.8338 75.3279 84.9778C75.4719 85.1218 75.5439 85.2978 75.5439 85.5058C75.5439 85.7138 75.4719 85.8898 75.3279 86.0338C75.1919 86.1778 75.0239 86.2498 74.8239 86.2498ZM75.3519 87.3178V93.8938H74.2599V87.3178H75.3519ZM78.3051 88.5298C78.5211 88.1538 78.8411 87.8418 79.2651 87.5938C79.6971 87.3378 80.1971 87.2098 80.7651 87.2098C81.3491 87.2098 81.8771 87.3498 82.3491 87.6298C82.8291 87.9098 83.2051 88.3058 83.4771 88.8178C83.7491 89.3218 83.8851 89.9098 83.8851 90.5818C83.8851 91.2458 83.7491 91.8378 83.4771 92.3578C83.2051 92.8778 82.8291 93.2818 82.3491 93.5698C81.8771 93.8578 81.3491 94.0018 80.7651 94.0018C80.2051 94.0018 79.7091 93.8778 79.2771 93.6298C78.8531 93.3738 78.5291 93.0578 78.3051 92.6818V97.0138H77.2131V87.3178H78.3051V88.5298ZM82.7691 90.5818C82.7691 90.0858 82.6691 89.6538 82.4691 89.2858C82.2691 88.9178 81.9971 88.6378 81.6531 88.4458C81.3171 88.2538 80.9451 88.1578 80.5371 88.1578C80.1371 88.1578 79.7651 88.2578 79.4211 88.4578C79.0851 88.6498 78.8131 88.9338 78.6051 89.3098C78.4051 89.6778 78.3051 90.1058 78.3051 90.5938C78.3051 91.0898 78.4051 91.5258 78.6051 91.9018C78.8131 92.2698 79.0851 92.5538 79.4211 92.7538C79.7651 92.9458 80.1371 93.0418 80.5371 93.0418C80.9451 93.0418 81.3171 92.9458 81.6531 92.7538C81.9971 92.5538 82.2691 92.2698 82.4691 91.9018C82.6691 91.5258 82.7691 91.0858 82.7691 90.5818ZM87.6504 94.0018C87.1464 94.0018 86.6944 93.9178 86.2944 93.7498C85.8944 93.5738 85.5784 93.3338 85.3464 93.0298C85.1144 92.7178 84.9864 92.3618 84.9624 91.9618H86.0904C86.1224 92.2898 86.2744 92.5578 86.5464 92.7658C86.8264 92.9738 87.1904 93.0778 87.6384 93.0778C88.0544 93.0778 88.3824 92.9858 88.6224 92.8018C88.8624 92.6178 88.9824 92.3858 88.9824 92.1058C88.9824 91.8178 88.8544 91.6058 88.5984 91.4698C88.3424 91.3258 87.9464 91.1858 87.4104 91.0498C86.9224 90.9218 86.5224 90.7938 86.2104 90.6658C85.9064 90.5298 85.6424 90.3338 85.4184 90.0778C85.2024 89.8138 85.0944 89.4698 85.0944 89.0458C85.0944 88.7098 85.1944 88.4018 85.3944 88.1218C85.5944 87.8418 85.8784 87.6218 86.2464 87.4618C86.6144 87.2938 87.0344 87.2098 87.5064 87.2098C88.2344 87.2098 88.8224 87.3938 89.2704 87.7618C89.7184 88.1298 89.9584 88.6338 89.9904 89.2738H88.8984C88.8744 88.9298 88.7344 88.6538 88.4784 88.4458C88.2304 88.2378 87.8944 88.1338 87.4704 88.1338C87.0784 88.1338 86.7664 88.2178 86.5344 88.3858C86.3024 88.5538 86.1864 88.7738 86.1864 89.0458C86.1864 89.2618 86.2544 89.4418 86.3904 89.5858C86.5344 89.7218 86.7104 89.8338 86.9184 89.9218C87.1344 90.0018 87.4304 90.0938 87.8064 90.1978C88.2784 90.3258 88.6624 90.4538 88.9584 90.5818C89.2544 90.7018 89.5064 90.8858 89.7144 91.1338C89.9304 91.3818 90.0424 91.7058 90.0504 92.1058C90.0504 92.4658 89.9504 92.7898 89.7504 93.0778C89.5504 93.3658 89.2664 93.5938 88.8984 93.7618C88.5384 93.9218 88.1224 94.0018 87.6504 94.0018ZM97.424 87.3178V93.8938H96.332V92.9218C96.124 93.2578 95.832 93.5218 95.456 93.7138C95.088 93.8978 94.68 93.9898 94.232 93.9898C93.72 93.9898 93.26 93.8858 92.852 93.6778C92.444 93.4618 92.12 93.1418 91.88 92.7178C91.648 92.2938 91.532 91.7778 91.532 91.1698V87.3178H92.612V91.0258C92.612 91.6738 92.776 92.1738 93.104 92.5258C93.432 92.8698 93.88 93.0418 94.448 93.0418C95.032 93.0418 95.492 92.8618 95.828 92.5018C96.164 92.1418 96.332 91.6178 96.332 90.9298V87.3178H97.424ZM107.176 87.1978C107.688 87.1978 108.144 87.3058 108.544 87.5218C108.944 87.7298 109.26 88.0458 109.492 88.4698C109.724 88.8938 109.84 89.4098 109.84 90.0178V93.8938H108.76V90.1738C108.76 89.5178 108.596 89.0178 108.268 88.6738C107.948 88.3218 107.512 88.1458 106.96 88.1458C106.392 88.1458 105.94 88.3298 105.604 88.6978C105.268 89.0578 105.1 89.5818 105.1 90.2698V93.8938H104.02V90.1738C104.02 89.5178 103.856 89.0178 103.528 88.6738C103.208 88.3218 102.772 88.1458 102.22 88.1458C101.652 88.1458 101.2 88.3298 100.864 88.6978C100.528 89.0578 100.36 89.5818 100.36 90.2698V93.8938H99.2678V87.3178H100.36V88.2658C100.576 87.9218 100.864 87.6578 101.224 87.4738C101.592 87.2898 101.996 87.1978 102.436 87.1978C102.988 87.1978 103.476 87.3218 103.9 87.5698C104.324 87.8178 104.64 88.1818 104.848 88.6618C105.032 88.1978 105.336 87.8378 105.76 87.5818C106.184 87.3258 106.656 87.1978 107.176 87.1978ZM114.422 90.5818C114.422 89.9098 114.558 89.3218 114.83 88.8178C115.102 88.3058 115.474 87.9098 115.946 87.6298C116.426 87.3498 116.962 87.2098 117.554 87.2098C118.066 87.2098 118.542 87.3298 118.982 87.5698C119.422 87.8018 119.758 88.1098 119.99 88.4938V85.0138H121.094V93.8938H119.99V92.6578C119.774 93.0498 119.454 93.3738 119.03 93.6298C118.606 93.8778 118.11 94.0018 117.542 94.0018C116.958 94.0018 116.426 93.8578 115.946 93.5698C115.474 93.2818 115.102 92.8778 114.83 92.3578C114.558 91.8378 114.422 91.2458 114.422 90.5818ZM119.99 90.5938C119.99 90.0978 119.89 89.6658 119.69 89.2978C119.49 88.9298 119.218 88.6498 118.874 88.4578C118.538 88.2578 118.166 88.1578 117.758 88.1578C117.35 88.1578 116.978 88.2538 116.642 88.4458C116.306 88.6378 116.038 88.9178 115.838 89.2858C115.638 89.6538 115.538 90.0858 115.538 90.5818C115.538 91.0858 115.638 91.5258 115.838 91.9018C116.038 92.2698 116.306 92.5538 116.642 92.7538C116.978 92.9458 117.35 93.0418 117.758 93.0418C118.166 93.0418 118.538 92.9458 118.874 92.7538C119.218 92.5538 119.49 92.2698 119.69 91.9018C119.89 91.5258 119.99 91.0898 119.99 90.5938ZM125.808 94.0018C125.192 94.0018 124.632 93.8618 124.128 93.5818C123.632 93.3018 123.24 92.9058 122.952 92.3938C122.672 91.8738 122.532 91.2738 122.532 90.5938C122.532 89.9218 122.676 89.3298 122.964 88.8178C123.26 88.2978 123.66 87.9018 124.164 87.6298C124.668 87.3498 125.232 87.2098 125.856 87.2098C126.48 87.2098 127.044 87.3498 127.548 87.6298C128.052 87.9018 128.448 88.2938 128.736 88.8058C129.032 89.3178 129.18 89.9138 129.18 90.5938C129.18 91.2738 129.028 91.8738 128.724 92.3938C128.428 92.9058 128.024 93.3018 127.512 93.5818C127 93.8618 126.432 94.0018 125.808 94.0018ZM125.808 93.0418C126.2 93.0418 126.568 92.9498 126.912 92.7658C127.256 92.5818 127.532 92.3058 127.74 91.9378C127.956 91.5698 128.064 91.1218 128.064 90.5938C128.064 90.0658 127.96 89.6178 127.752 89.2498C127.544 88.8818 127.272 88.6098 126.936 88.4338C126.6 88.2498 126.236 88.1578 125.844 88.1578C125.444 88.1578 125.076 88.2498 124.74 88.4338C124.412 88.6098 124.148 88.8818 123.948 89.2498C123.748 89.6178 123.648 90.0658 123.648 90.5938C123.648 91.1298 123.744 91.5818 123.936 91.9498C124.136 92.3178 124.4 92.5938 124.728 92.7778C125.056 92.9538 125.416 93.0418 125.808 93.0418ZM131.707 85.0138V93.8938H130.615V85.0138H131.707ZM136.437 94.0018C135.821 94.0018 135.261 93.8618 134.757 93.5818C134.261 93.3018 133.869 92.9058 133.581 92.3938C133.301 91.8738 133.161 91.2738 133.161 90.5938C133.161 89.9218 133.305 89.3298 133.593 88.8178C133.889 88.2978 134.289 87.9018 134.793 87.6298C135.297 87.3498 135.861 87.2098 136.485 87.2098C137.109 87.2098 137.673 87.3498 138.177 87.6298C138.681 87.9018 139.077 88.2938 139.365 88.8058C139.661 89.3178 139.809 89.9138 139.809 90.5938C139.809 91.2738 139.657 91.8738 139.353 92.3938C139.057 92.9058 138.653 93.3018 138.141 93.5818C137.629 93.8618 137.061 94.0018 136.437 94.0018ZM136.437 93.0418C136.829 93.0418 137.197 92.9498 137.541 92.7658C137.885 92.5818 138.161 92.3058 138.369 91.9378C138.585 91.5698 138.693 91.1218 138.693 90.5938C138.693 90.0658 138.589 89.6178 138.381 89.2498C138.173 88.8818 137.901 88.6098 137.565 88.4338C137.229 88.2498 136.865 88.1578 136.473 88.1578C136.073 88.1578 135.705 88.2498 135.369 88.4338C135.041 88.6098 134.777 88.8818 134.577 89.2498C134.377 89.6178 134.277 90.0658 134.277 90.5938C134.277 91.1298 134.373 91.5818 134.565 91.9498C134.765 92.3178 135.029 92.5938 135.357 92.7778C135.685 92.9538 136.045 93.0418 136.437 93.0418ZM142.336 88.3858C142.528 88.0098 142.8 87.7178 143.152 87.5098C143.512 87.3018 143.948 87.1978 144.46 87.1978V88.3258H144.172C142.948 88.3258 142.336 88.9898 142.336 90.3178V93.8938H141.244V87.3178H142.336V88.3858ZM151.248 94.0018C150.744 94.0018 150.292 93.9178 149.892 93.7498C149.492 93.5738 149.176 93.3338 148.944 93.0298C148.712 92.7178 148.584 92.3618 148.56 91.9618H149.688C149.72 92.2898 149.872 92.5578 150.144 92.7658C150.424 92.9738 150.788 93.0778 151.236 93.0778C151.652 93.0778 151.98 92.9858 152.22 92.8018C152.46 92.6178 152.58 92.3858 152.58 92.1058C152.58 91.8178 152.452 91.6058 152.196 91.4698C151.94 91.3258 151.544 91.1858 151.008 91.0498C150.52 90.9218 150.12 90.7938 149.808 90.6658C149.504 90.5298 149.24 90.3338 149.016 90.0778C148.8 89.8138 148.692 89.4698 148.692 89.0458C148.692 88.7098 148.792 88.4018 148.992 88.1218C149.192 87.8418 149.476 87.6218 149.844 87.4618C150.212 87.2938 150.632 87.2098 151.104 87.2098C151.832 87.2098 152.42 87.3938 152.868 87.7618C153.316 88.1298 153.556 88.6338 153.588 89.2738H152.496C152.472 88.9298 152.332 88.6538 152.076 88.4458C151.828 88.2378 151.492 88.1338 151.068 88.1338C150.676 88.1338 150.364 88.2178 150.132 88.3858C149.9 88.5538 149.784 88.7738 149.784 89.0458C149.784 89.2618 149.852 89.4418 149.988 89.5858C150.132 89.7218 150.308 89.8338 150.516 89.9218C150.732 90.0018 151.028 90.0938 151.404 90.1978C151.876 90.3258 152.26 90.4538 152.556 90.5818C152.852 90.7018 153.104 90.8858 153.312 91.1338C153.528 91.3818 153.64 91.7058 153.648 92.1058C153.648 92.4658 153.548 92.7898 153.348 93.0778C153.148 93.3658 152.864 93.5938 152.496 93.7618C152.136 93.9218 151.72 94.0018 151.248 94.0018ZM155.754 86.2498C155.546 86.2498 155.37 86.1778 155.226 86.0338C155.082 85.8898 155.01 85.7138 155.01 85.5058C155.01 85.2978 155.082 85.1218 155.226 84.9778C155.37 84.8338 155.546 84.7618 155.754 84.7618C155.954 84.7618 156.122 84.8338 156.258 84.9778C156.402 85.1218 156.474 85.2978 156.474 85.5058C156.474 85.7138 156.402 85.8898 156.258 86.0338C156.122 86.1778 155.954 86.2498 155.754 86.2498ZM156.282 87.3178V93.8938H155.19V87.3178H156.282ZM159.475 88.2178V92.0938C159.475 92.4138 159.543 92.6418 159.679 92.7778C159.815 92.9058 160.051 92.9698 160.387 92.9698H161.191V93.8938H160.207C159.599 93.8938 159.143 93.7538 158.839 93.4738C158.535 93.1938 158.383 92.7338 158.383 92.0938V88.2178H157.531V87.3178H158.383V85.6618H159.475V87.3178H161.191V88.2178H159.475ZM165.305 90.5818C165.305 89.9098 165.441 89.3218 165.713 88.8178C165.985 88.3058 166.357 87.9098 166.829 87.6298C167.309 87.3498 167.841 87.2098 168.425 87.2098C169.001 87.2098 169.501 87.3338 169.925 87.5818C170.349 87.8298 170.665 88.1418 170.873 88.5178V87.3178H171.977V93.8938H170.873V92.6698C170.657 93.0538 170.333 93.3738 169.901 93.6298C169.477 93.8778 168.981 94.0018 168.413 94.0018C167.829 94.0018 167.301 93.8578 166.829 93.5698C166.357 93.2818 165.985 92.8778 165.713 92.3578C165.441 91.8378 165.305 91.2458 165.305 90.5818ZM170.873 90.5938C170.873 90.0978 170.773 89.6658 170.573 89.2978C170.373 88.9298 170.101 88.6498 169.757 88.4578C169.421 88.2578 169.049 88.1578 168.641 88.1578C168.233 88.1578 167.861 88.2538 167.525 88.4458C167.189 88.6378 166.921 88.9178 166.721 89.2858C166.521 89.6538 166.421 90.0858 166.421 90.5818C166.421 91.0858 166.521 91.5258 166.721 91.9018C166.921 92.2698 167.189 92.5538 167.525 92.7538C167.861 92.9458 168.233 93.0418 168.641 93.0418C169.049 93.0418 169.421 92.9458 169.757 92.7538C170.101 92.5538 170.373 92.2698 170.573 91.9018C170.773 91.5258 170.873 91.0898 170.873 90.5938ZM181.73 87.1978C182.242 87.1978 182.698 87.3058 183.098 87.5218C183.498 87.7298 183.814 88.0458 184.046 88.4698C184.278 88.8938 184.394 89.4098 184.394 90.0178V93.8938H183.314V90.1738C183.314 89.5178 183.15 89.0178 182.822 88.6738C182.502 88.3218 182.066 88.1458 181.514 88.1458C180.946 88.1458 180.494 88.3298 180.158 88.6978C179.822 89.0578 179.654 89.5818 179.654 90.2698V93.8938H178.574V90.1738C178.574 89.5178 178.41 89.0178 178.082 88.6738C177.762 88.3218 177.326 88.1458 176.774 88.1458C176.206 88.1458 175.754 88.3298 175.418 88.6978C175.082 89.0578 174.914 89.5818 174.914 90.2698V93.8938H173.822V87.3178H174.914V88.2658C175.13 87.9218 175.418 87.6578 175.778 87.4738C176.146 87.2898 176.55 87.1978 176.99 87.1978C177.542 87.1978 178.03 87.3218 178.454 87.5698C178.878 87.8178 179.194 88.1818 179.402 88.6618C179.586 88.1978 179.89 87.8378 180.314 87.5818C180.738 87.3258 181.21 87.1978 181.73 87.1978ZM192.186 90.3538C192.186 90.5618 192.174 90.7818 192.15 91.0138H186.894C186.934 91.6618 187.154 92.1698 187.554 92.5378C187.962 92.8978 188.454 93.0778 189.03 93.0778C189.502 93.0778 189.894 92.9698 190.206 92.7538C190.526 92.5298 190.75 92.2338 190.878 91.8658H192.054C191.878 92.4978 191.526 93.0138 190.998 93.4138C190.47 93.8058 189.814 94.0018 189.03 94.0018C188.406 94.0018 187.846 93.8618 187.35 93.5818C186.862 93.3018 186.478 92.9058 186.198 92.3938C185.918 91.8738 185.778 91.2738 185.778 90.5938C185.778 89.9138 185.914 89.3178 186.186 88.8058C186.458 88.2938 186.838 87.9018 187.326 87.6298C187.822 87.3498 188.39 87.2098 189.03 87.2098C189.654 87.2098 190.206 87.3458 190.686 87.6178C191.166 87.8898 191.534 88.2658 191.79 88.7458C192.054 89.2178 192.186 89.7538 192.186 90.3538ZM191.058 90.1258C191.058 89.7098 190.966 89.3538 190.782 89.0578C190.598 88.7538 190.346 88.5258 190.026 88.3738C189.714 88.2138 189.366 88.1338 188.982 88.1338C188.43 88.1338 187.958 88.3098 187.566 88.6618C187.182 89.0138 186.962 89.5018 186.906 90.1258H191.058ZM194.959 88.2178V92.0938C194.959 92.4138 195.027 92.6418 195.163 92.7778C195.299 92.9058 195.535 92.9698 195.871 92.9698H196.675V93.8938H195.691C195.083 93.8938 194.627 93.7538 194.323 93.4738C194.019 93.1938 193.867 92.7338 193.867 92.0938V88.2178H193.015V87.3178H193.867V85.6618H194.959V87.3178H196.675V88.2178H194.959ZM199.126 92.3818L197.782 95.6098H197.05L197.926 92.3818H199.126ZM203.168 90.5938C203.168 89.9138 203.304 89.3218 203.576 88.8178C203.848 88.3058 204.224 87.9098 204.704 87.6298C205.192 87.3498 205.748 87.2098 206.372 87.2098C207.18 87.2098 207.844 87.4058 208.364 87.7978C208.892 88.1898 209.24 88.7338 209.408 89.4298H208.232C208.12 89.0298 207.9 88.7138 207.572 88.4818C207.252 88.2498 206.852 88.1338 206.372 88.1338C205.748 88.1338 205.244 88.3498 204.86 88.7818C204.476 89.2058 204.284 89.8098 204.284 90.5938C204.284 91.3858 204.476 91.9978 204.86 92.4298C205.244 92.8618 205.748 93.0778 206.372 93.0778C206.852 93.0778 207.252 92.9658 207.572 92.7418C207.892 92.5178 208.112 92.1978 208.232 91.7818H209.408C209.232 92.4538 208.88 92.9938 208.352 93.4018C207.824 93.8018 207.164 94.0018 206.372 94.0018C205.748 94.0018 205.192 93.8618 204.704 93.5818C204.224 93.3018 203.848 92.9058 203.576 92.3938C203.304 91.8818 203.168 91.2818 203.168 90.5938ZM213.733 94.0018C213.117 94.0018 212.557 93.8618 212.053 93.5818C211.557 93.3018 211.165 92.9058 210.877 92.3938C210.597 91.8738 210.457 91.2738 210.457 90.5938C210.457 89.9218 210.601 89.3298 210.889 88.8178C211.185 88.2978 211.585 87.9018 212.089 87.6298C212.593 87.3498 213.157 87.2098 213.781 87.2098C214.405 87.2098 214.969 87.3498 215.473 87.6298C215.977 87.9018 216.373 88.2938 216.661 88.8058C216.957 89.3178 217.105 89.9138 217.105 90.5938C217.105 91.2738 216.953 91.8738 216.649 92.3938C216.353 92.9058 215.949 93.3018 215.437 93.5818C214.925 93.8618 214.357 94.0018 213.733 94.0018ZM213.733 93.0418C214.125 93.0418 214.493 92.9498 214.837 92.7658C215.181 92.5818 215.457 92.3058 215.665 91.9378C215.881 91.5698 215.989 91.1218 215.989 90.5938C215.989 90.0658 215.885 89.6178 215.677 89.2498C215.469 88.8818 215.197 88.6098 214.861 88.4338C214.525 88.2498 214.161 88.1578 213.769 88.1578C213.369 88.1578 213.001 88.2498 212.665 88.4338C212.337 88.6098 212.073 88.8818 211.873 89.2498C211.673 89.6178 211.573 90.0658 211.573 90.5938C211.573 91.1298 211.669 91.5818 211.861 91.9498C212.061 92.3178 212.325 92.5938 212.653 92.7778C212.981 92.9538 213.341 93.0418 213.733 93.0418ZM221.745 87.1978C222.545 87.1978 223.193 87.4418 223.689 87.9298C224.185 88.4098 224.433 89.1058 224.433 90.0178V93.8938H223.353V90.1738C223.353 89.5178 223.189 89.0178 222.861 88.6738C222.533 88.3218 222.085 88.1458 221.517 88.1458C220.941 88.1458 220.481 88.3258 220.137 88.6858C219.801 89.0458 219.633 89.5698 219.633 90.2578V93.8938H218.541V87.3178H219.633V88.2538C219.849 87.9178 220.141 87.6578 220.509 87.4738C220.885 87.2898 221.297 87.1978 221.745 87.1978ZM228.545 94.0018C228.041 94.0018 227.589 93.9178 227.189 93.7498C226.789 93.5738 226.473 93.3338 226.241 93.0298C226.009 92.7178 225.881 92.3618 225.857 91.9618H226.985C227.017 92.2898 227.169 92.5578 227.441 92.7658C227.721 92.9738 228.085 93.0778 228.533 93.0778C228.949 93.0778 229.277 92.9858 229.517 92.8018C229.757 92.6178 229.877 92.3858 229.877 92.1058C229.877 91.8178 229.749 91.6058 229.493 91.4698C229.237 91.3258 228.841 91.1858 228.305 91.0498C227.817 90.9218 227.417 90.7938 227.105 90.6658C226.801 90.5298 226.537 90.3338 226.313 90.0778C226.097 89.8138 225.989 89.4698 225.989 89.0458C225.989 88.7098 226.089 88.4018 226.289 88.1218C226.489 87.8418 226.773 87.6218 227.141 87.4618C227.509 87.2938 227.929 87.2098 228.401 87.2098C229.129 87.2098 229.717 87.3938 230.165 87.7618C230.613 88.1298 230.853 88.6338 230.885 89.2738H229.793C229.769 88.9298 229.629 88.6538 229.373 88.4458C229.125 88.2378 228.789 88.1338 228.365 88.1338C227.973 88.1338 227.661 88.2178 227.429 88.3858C227.197 88.5538 227.081 88.7738 227.081 89.0458C227.081 89.2618 227.149 89.4418 227.285 89.5858C227.429 89.7218 227.605 89.8338 227.813 89.9218C228.029 90.0018 228.325 90.0938 228.701 90.1978C229.173 90.3258 229.557 90.4538 229.853 90.5818C230.149 90.7018 230.401 90.8858 230.609 91.1338C230.825 91.3818 230.937 91.7058 230.945 92.1058C230.945 92.4658 230.845 92.7898 230.645 93.0778C230.445 93.3658 230.161 93.5938 229.793 93.7618C229.433 93.9218 229.017 94.0018 228.545 94.0018ZM238.487 90.3538C238.487 90.5618 238.475 90.7818 238.451 91.0138H233.195C233.235 91.6618 233.455 92.1698 233.855 92.5378C234.263 92.8978 234.755 93.0778 235.331 93.0778C235.803 93.0778 236.195 92.9698 236.507 92.7538C236.827 92.5298 237.051 92.2338 237.179 91.8658H238.355C238.179 92.4978 237.827 93.0138 237.299 93.4138C236.771 93.8058 236.115 94.0018 235.331 94.0018C234.707 94.0018 234.147 93.8618 233.651 93.5818C233.163 93.3018 232.779 92.9058 232.499 92.3938C232.219 91.8738 232.079 91.2738 232.079 90.5938C232.079 89.9138 232.215 89.3178 232.487 88.8058C232.759 88.2938 233.139 87.9018 233.627 87.6298C234.123 87.3498 234.691 87.2098 235.331 87.2098C235.955 87.2098 236.507 87.3458 236.987 87.6178C237.467 87.8898 237.835 88.2658 238.091 88.7458C238.355 89.2178 238.487 89.7538 238.487 90.3538ZM237.359 90.1258C237.359 89.7098 237.267 89.3538 237.083 89.0578C236.899 88.7538 236.647 88.5258 236.327 88.3738C236.015 88.2138 235.667 88.1338 235.283 88.1338C234.731 88.1338 234.259 88.3098 233.867 88.6618C233.483 89.0138 233.263 89.5018 233.207 90.1258H237.359ZM239.52 90.5938C239.52 89.9138 239.656 89.3218 239.928 88.8178C240.2 88.3058 240.576 87.9098 241.056 87.6298C241.544 87.3498 242.1 87.2098 242.724 87.2098C243.532 87.2098 244.196 87.4058 244.716 87.7978C245.244 88.1898 245.592 88.7338 245.76 89.4298H244.584C244.472 89.0298 244.252 88.7138 243.924 88.4818C243.604 88.2498 243.204 88.1338 242.724 88.1338C242.1 88.1338 241.596 88.3498 241.212 88.7818C240.828 89.2058 240.636 89.8098 240.636 90.5938C240.636 91.3858 240.828 91.9978 241.212 92.4298C241.596 92.8618 242.1 93.0778 242.724 93.0778C243.204 93.0778 243.604 92.9658 243.924 92.7418C244.244 92.5178 244.464 92.1978 244.584 91.7818H245.76C245.584 92.4538 245.232 92.9938 244.704 93.4018C244.176 93.8018 243.516 94.0018 242.724 94.0018C242.1 94.0018 241.544 93.8618 241.056 93.5818C240.576 93.3018 240.2 92.9058 239.928 92.3938C239.656 91.8818 239.52 91.2818 239.52 90.5938ZM248.549 88.2178V92.0938C248.549 92.4138 248.617 92.6418 248.753 92.7778C248.889 92.9058 249.125 92.9698 249.461 92.9698H250.265V93.8938H249.281C248.673 93.8938 248.217 93.7538 247.913 93.4738C247.609 93.1938 247.457 92.7338 247.457 92.0938V88.2178H246.605V87.3178H247.457V85.6618H248.549V87.3178H250.265V88.2178H248.549ZM257.588 90.3538C257.588 90.5618 257.576 90.7818 257.552 91.0138H252.296C252.336 91.6618 252.556 92.1698 252.956 92.5378C253.364 92.8978 253.856 93.0778 254.432 93.0778C254.904 93.0778 255.296 92.9698 255.608 92.7538C255.928 92.5298 256.152 92.2338 256.28 91.8658H257.456C257.28 92.4978 256.928 93.0138 256.4 93.4138C255.872 93.8058 255.216 94.0018 254.432 94.0018C253.808 94.0018 253.248 93.8618 252.752 93.5818C252.264 93.3018 251.88 92.9058 251.6 92.3938C251.32 91.8738 251.18 91.2738 251.18 90.5938C251.18 89.9138 251.316 89.3178 251.588 88.8058C251.86 88.2938 252.24 87.9018 252.728 87.6298C253.224 87.3498 253.792 87.2098 254.432 87.2098C255.056 87.2098 255.608 87.3458 256.088 87.6178C256.568 87.8898 256.936 88.2658 257.192 88.7458C257.456 89.2178 257.588 89.7538 257.588 90.3538ZM256.46 90.1258C256.46 89.7098 256.368 89.3538 256.184 89.0578C256 88.7538 255.748 88.5258 255.428 88.3738C255.116 88.2138 254.768 88.1338 254.384 88.1338C253.832 88.1338 253.36 88.3098 252.968 88.6618C252.584 89.0138 252.364 89.5018 252.308 90.1258H256.46ZM260.361 88.2178V92.0938C260.361 92.4138 260.429 92.6418 260.565 92.7778C260.701 92.9058 260.937 92.9698 261.273 92.9698H262.077V93.8938H261.093C260.485 93.8938 260.029 93.7538 259.725 93.4738C259.421 93.1938 259.269 92.7338 259.269 92.0938V88.2178H258.417V87.3178H259.269V85.6618H260.361V87.3178H262.077V88.2178H260.361ZM269.233 87.3178V93.8938H268.141V92.9218C267.933 93.2578 267.641 93.5218 267.265 93.7138C266.897 93.8978 266.489 93.9898 266.041 93.9898C265.529 93.9898 265.069 93.8858 264.661 93.6778C264.253 93.4618 263.929 93.1418 263.689 92.7178C263.457 92.2938 263.341 91.7778 263.341 91.1698V87.3178H264.421V91.0258C264.421 91.6738 264.585 92.1738 264.913 92.5258C265.241 92.8698 265.689 93.0418 266.257 93.0418C266.841 93.0418 267.301 92.8618 267.637 92.5018C267.973 92.1418 268.141 91.6178 268.141 90.9298V87.3178H269.233ZM272.168 88.3858C272.36 88.0098 272.632 87.7178 272.984 87.5098C273.344 87.3018 273.78 87.1978 274.292 87.1978V88.3258H274.004C272.78 88.3258 272.168 88.9898 272.168 90.3178V93.8938H271.076V87.3178H272.168V88.3858Z" fill="#969696"/>
</g>
<defs>
<filter id="filter0_d_102_2" x="-23" y="-11" width="763" height="631" filterUnits="userSpaceOnUse" color-interpolation-filters="sRGB">
<feFlood flood-opacity="0" result="BackgroundImageFix"/>
<feColorMatrix in="SourceAlpha" type="matrix" values="0 0 0 0 0 0 0 0 0 0 0 0 0 0 0 0 0 0 127 0" result="hardAlpha"/>
<feOffset dy="12"/>
<feGaussianBlur stdDeviation="11.5"/>
<feColorMatrix type="matrix" values="0 0 0 0 0.243137 0 0 0 0 0.286275 0 0 0 0 0.329412 0 0 0 0.04 0"/>
<feBlend mode="normal" in2="BackgroundImageFix" result="effect1_dropShadow_102_2"/>
<feBlend mode="normal" in="SourceGraphic" in2="effect1_dropShadow_102_2" result="shape"/>
</filter>
<linearGradient id="paint0_linear_102_2" x1="6.62138" y1="0" x2="6.62138" y2="152.351" gradientUnits="userSpaceOnUse">
<stop stop-color="#D3BF55"/>
<stop offset="1" stop-color="#150B61"/>
</linearGradient>
<linearGradient id="paint1_linear_102_2" x1="6.62138" y1="0" x2="6.62138" y2="236.762" gradientUnits="userSpaceOnUse">
<stop stop-color="#D3BF55"/>
<stop offset="1" stop-color="#150B61"/>
</linearGradient>
<linearGradient id="paint2_linear_102_2" x1="6.62138" y1="0" x2="6.62138" y2="152.351" gradientUnits="userSpaceOnUse">
<stop stop-color="#D3BF55"/>
<stop offset="1" stop-color="#150B61"/>
</linearGradient>
<linearGradient id="paint3_linear_102_2" x1="6.62138" y1="0" x2="6.62138" y2="111.175" gradientUnits="userSpaceOnUse">
<stop stop-color="#D3BF55"/>
<stop offset="1" stop-color="#150B61"/>
</linearGradient>
<linearGradient id="paint4_linear_102_2" x1="6.62138" y1="0" x2="6.62138" y2="142.057" gradientUnits="userSpaceOnUse">
<stop stop-color="#D3BF55"/>
<stop offset="1" stop-color="#150B61"/>
</linearGradient>
<linearGradient id="paint5_linear_102_2" x1="6.62138" y1="0" x2="6.62138" y2="131.763" gradientUnits="userSpaceOnUse">
<stop stop-color="#D3BF55"/>
<stop offset="1" stop-color="#150B61"/>
</linearGradient>
<linearGradient id="paint6_linear_102_2" x1="6.62138" y1="0" x2="6.62138" y2="96.7637" gradientUnits="userSpaceOnUse">
<stop stop-color="#D3BF55"/>
<stop offset="1" stop-color="#150B61"/>
</linearGradient>
<linearGradient id="paint7_linear_102_2" x1="6.62138" y1="0" x2="6.62138" y2="119.411" gradientUnits="userSpaceOnUse">
<stop stop-color="#D3BF55"/>
<stop offset="1" stop-color="#150B61"/>
</linearGradient>
<linearGradient id="paint8_linear_102_2" x1="6.62138" y1="0" x2="6.62138" y2="86.4697" gradientUnits="userSpaceOnUse">
<stop stop-color="#D3BF55"/>
<stop offset="1" stop-color="#150B61"/>
</linearGradient>
<linearGradient id="paint9_linear_102_2" x1="6.62138" y1="0" x2="6.62138" y2="152.351" gradientUnits="userSpaceOnUse">
<stop stop-color="#D3BF55"/>
<stop offset="1" stop-color="#150B61"/>
</linearGradient>
<linearGradient id="paint10_linear_102_2" x1="6.62138" y1="0" x2="6.62138" y2="152.351" gradientUnits="userSpaceOnUse">
<stop stop-color="#D3BF55"/>
<stop offset="1" stop-color="#150B61"/>
</linearGradient>
<linearGradient id="paint11_linear_102_2" x1="6.62138" y1="0" x2="6.62138" y2="127.646" gradientUnits="userSpaceOnUse">
<stop stop-color="#D3BF55"/>
<stop offset="1" stop-color="#150B61"/>
</linearGradient>
<linearGradient id="paint12_linear_102_2" x1="6.62138" y1="0" x2="6.62138" y2="68.0691" gradientUnits="userSpaceOnUse">
<stop stop-color="#D3BF55"/>
<stop offset="1" stop-color="#150B61"/>
</linearGradient>
<clipPath id="clip0_102_2">
<rect width="717" height="585" fill="white"/>
</clipPath>
</defs>
</svg>
