<svg width="229" height="133" viewBox="0 0 229 133" fill="none" xmlns="http://www.w3.org/2000/svg">
<rect width="229" height="133" fill="#020201"/>
<path d="M50.4266 27.0086L51.4432 30.1373C51.7778 31.1673 52.7377 31.8647 53.8208 31.8647H57.1105C58.5636 31.8647 59.1677 33.7242 57.9922 34.5783L55.3307 36.5119C54.4545 37.1485 54.0879 38.2769 54.4226 39.307L55.4391 42.4357C55.8882 43.8176 54.3064 44.9668 53.1309 44.1127L50.4695 42.1791C49.5932 41.5425 48.4068 41.5425 47.5305 42.1791L44.8691 44.1127C43.6936 44.9668 42.1118 43.8176 42.5609 42.4357L43.5774 39.307C43.9121 38.2769 43.5455 37.1485 42.6693 36.5119L40.0078 34.5783C38.8323 33.7242 39.4364 31.8647 40.8895 31.8647H44.1792C45.2623 31.8647 46.2222 31.1673 46.5568 30.1373L47.5734 27.0086C48.0224 25.6266 49.9776 25.6266 50.4266 27.0086Z" stroke="white"/>
<g opacity="0.4" filter="url(#filter0_f_228_26)">
<path d="M49 26L52.3677 36.3647H63.2658L54.4491 42.7705L57.8168 53.1353L49 46.7295L40.1832 53.1353L43.5509 42.7705L34.7342 36.3647H45.6323L49 26Z" fill="#C4C4C4"/>
</g>
<path d="M180.799 29.25L188.16 42C188.738 43 188.016 44.25 186.861 44.25H172.139C170.984 44.25 170.262 43 170.84 42L178.201 29.25C178.778 28.25 180.222 28.25 180.799 29.25Z" stroke="white"/>
<path d="M146.598 125.475C146.598 124.949 146.431 124.516 146.097 124.176C145.763 123.829 145.207 123.52 144.427 123.248C143.648 122.97 143.042 122.713 142.609 122.478C141.168 121.705 140.447 120.561 140.447 119.045C140.447 118.019 140.76 117.174 141.384 116.513C142.009 115.851 142.856 115.458 143.926 115.334V113.312H145.411V115.353C146.487 115.508 147.319 115.965 147.906 116.726C148.494 117.481 148.788 118.464 148.788 119.676H146.542C146.542 118.897 146.366 118.285 146.014 117.839C145.667 117.388 145.194 117.162 144.594 117.162C144 117.162 143.537 117.323 143.203 117.645C142.869 117.966 142.702 118.427 142.702 119.027C142.702 119.565 142.866 119.998 143.193 120.326C143.527 120.647 144.09 120.953 144.882 121.244C145.674 121.535 146.295 121.804 146.747 122.051C147.198 122.299 147.578 122.583 147.888 122.905C148.197 123.22 148.435 123.585 148.602 124C148.769 124.414 148.853 124.899 148.853 125.456C148.853 126.501 148.531 127.349 147.888 127.998C147.251 128.647 146.36 129.031 145.216 129.148V130.958H143.741V129.158C142.516 129.022 141.573 128.583 140.911 127.84C140.256 127.098 139.928 126.115 139.928 124.89H142.182C142.182 125.669 142.377 126.272 142.767 126.699C143.162 127.126 143.719 127.339 144.437 127.339C145.142 127.339 145.677 127.169 146.042 126.829C146.413 126.489 146.598 126.037 146.598 125.475ZM158.436 124.185H160.115V125.994H158.436V129H156.182V125.994L150.346 125.994L150.281 124.621L156.107 115.492H158.436L158.436 124.185ZM152.647 124.185H156.182L156.182 118.544L156.015 118.841L152.647 124.185ZM162.212 122.302L162.945 115.492L170.2 115.492V117.44L164.819 117.44L164.448 120.669C165.072 120.31 165.778 120.131 166.563 120.131C167.849 120.131 168.848 120.542 169.56 121.365C170.277 122.187 170.636 123.294 170.636 124.686C170.636 126.059 170.24 127.154 169.448 127.97C168.657 128.78 167.571 129.186 166.192 129.186C164.955 129.186 163.928 128.836 163.112 128.137C162.302 127.432 161.862 126.504 161.794 125.354H163.975C164.061 126.01 164.296 126.514 164.68 126.866C165.063 127.213 165.564 127.386 166.183 127.386C166.875 127.386 167.413 127.138 167.797 126.644C168.187 126.149 168.381 125.475 168.381 124.621C168.381 123.799 168.168 123.149 167.741 122.673C167.314 122.19 166.727 121.949 165.979 121.949C165.57 121.949 165.224 122.005 164.939 122.116C164.655 122.221 164.346 122.432 164.012 122.747L162.212 122.302ZM181.49 129L172.408 129V127.451L176.907 122.543C177.557 121.819 178.017 121.216 178.29 120.734C178.568 120.245 178.707 119.757 178.707 119.268C178.707 118.625 178.525 118.105 178.16 117.709C177.801 117.314 177.315 117.116 176.703 117.116C175.973 117.116 175.407 117.338 175.005 117.784C174.603 118.229 174.402 118.838 174.402 119.611H172.148C172.148 118.789 172.333 118.05 172.705 117.394C173.082 116.732 173.617 116.219 174.31 115.854C175.008 115.489 175.812 115.307 176.722 115.307C178.033 115.307 179.066 115.638 179.82 116.299C180.581 116.955 180.961 117.864 180.961 119.027C180.961 119.701 180.77 120.409 180.386 121.151C180.009 121.887 179.387 122.725 178.521 123.666L175.219 127.2L181.49 127.2V129ZM191.714 119.055C191.714 119.716 191.544 120.307 191.204 120.827C190.863 121.34 190.4 121.745 189.812 122.042C190.517 122.37 191.058 122.818 191.436 123.387C191.819 123.956 192.011 124.599 192.011 125.317C192.011 126.504 191.609 127.448 190.805 128.146C190.001 128.839 188.931 129.186 187.595 129.186C186.253 129.186 185.176 128.836 184.366 128.137C183.562 127.438 183.16 126.498 183.16 125.317C183.16 124.593 183.352 123.944 183.735 123.369C184.119 122.793 184.657 122.351 185.35 122.042C184.768 121.745 184.307 121.34 183.967 120.827C183.633 120.307 183.466 119.716 183.466 119.055C183.466 117.904 183.837 116.992 184.58 116.318C185.322 115.644 186.324 115.307 187.585 115.307C188.853 115.307 189.858 115.644 190.601 116.318C191.343 116.992 191.714 117.904 191.714 119.055ZM189.756 125.206C189.756 124.538 189.555 124 189.153 123.591C188.757 123.177 188.232 122.97 187.576 122.97C186.921 122.97 186.395 123.174 185.999 123.582C185.609 123.99 185.415 124.531 185.415 125.206C185.415 125.867 185.606 126.396 185.99 126.792C186.379 127.188 186.914 127.386 187.595 127.386C188.275 127.386 188.804 127.194 189.181 126.811C189.565 126.427 189.756 125.892 189.756 125.206ZM189.469 119.138C189.469 118.551 189.299 118.068 188.958 117.691C188.618 117.307 188.161 117.116 187.585 117.116C187.01 117.116 186.556 117.298 186.222 117.663C185.888 118.022 185.721 118.514 185.721 119.138C185.721 119.757 185.888 120.248 186.222 120.613C186.562 120.978 187.02 121.161 187.595 121.161C188.17 121.161 188.625 120.978 188.958 120.613C189.299 120.248 189.469 119.757 189.469 119.138ZM194.469 132.043L193.254 131.319C193.613 130.757 193.857 130.265 193.987 129.844C194.123 129.43 194.194 129.006 194.2 128.573V126.82H196.232L196.223 128.443C196.216 129.099 196.049 129.755 195.722 130.41C195.4 131.072 194.983 131.616 194.469 132.043ZM206.984 123.313C206.984 125.255 206.619 126.721 205.89 127.71C205.166 128.694 204.062 129.186 202.578 129.186C201.118 129.186 200.017 128.706 199.275 127.748C198.539 126.783 198.162 125.357 198.143 123.471L198.143 121.133C198.143 119.191 198.505 117.734 199.229 116.763C199.958 115.792 201.069 115.307 202.559 115.307C204.037 115.307 205.138 115.78 205.862 116.726C206.592 117.672 206.966 119.089 206.984 120.975V123.313ZM204.73 120.79C204.73 119.522 204.557 118.594 204.21 118.006C203.864 117.413 203.314 117.116 202.559 117.116C201.823 117.116 201.282 117.397 200.936 117.96C200.589 118.517 200.407 119.389 200.388 120.576L200.388 123.638C200.388 124.899 200.564 125.84 200.917 126.458C201.27 127.076 201.823 127.386 202.578 127.386C203.301 127.386 203.836 127.101 204.183 126.532C204.529 125.957 204.711 125.06 204.73 123.842V120.79ZM217.783 123.313C217.783 125.255 217.418 126.721 216.688 127.71C215.965 128.694 214.861 129.186 213.376 129.186C211.917 129.186 210.816 128.706 210.074 127.748C209.338 126.783 208.96 125.357 208.942 123.471V121.133C208.942 119.191 209.304 117.734 210.027 116.763C210.757 115.792 211.867 115.307 213.358 115.307C214.836 115.307 215.937 115.78 216.661 116.726C217.39 117.672 217.765 119.089 217.783 120.975V123.313ZM215.529 120.79C215.529 119.522 215.356 118.594 215.009 118.006C214.663 117.413 214.112 117.116 213.358 117.116C212.622 117.116 212.081 117.397 211.734 117.96C211.388 118.517 211.206 119.389 211.187 120.576V123.638C211.187 124.899 211.363 125.84 211.716 126.458C212.068 127.076 212.622 127.386 213.376 127.386C214.1 127.386 214.635 127.101 214.981 126.532C215.328 125.957 215.51 125.06 215.529 123.842V120.79Z" fill="white"/>
<path d="M16.5981 125.475C16.5981 124.949 16.4312 124.516 16.0972 124.176C15.7632 123.829 15.2065 123.52 14.4272 123.248C13.6479 122.97 13.0418 122.713 12.6089 122.478C11.1678 121.705 10.4473 120.561 10.4473 119.045C10.4473 118.019 10.7596 117.174 11.3843 116.513C12.009 115.851 12.8563 115.458 13.9263 115.334L13.9263 113.312H15.4106L15.4106 115.353C16.4868 115.508 17.3187 115.965 17.9062 116.726C18.4938 117.481 18.7876 118.464 18.7876 119.676H16.5425C16.5425 118.897 16.3662 118.285 16.0137 117.839C15.6673 117.388 15.1942 117.162 14.5942 117.162C14.0005 117.162 13.5366 117.323 13.2026 117.645C12.8687 117.966 12.7017 118.427 12.7017 119.027C12.7017 119.565 12.8656 119.998 13.1934 120.326C13.5273 120.647 14.0902 120.953 14.8818 121.244C15.6735 121.535 16.2951 121.804 16.7466 122.051C17.1981 122.299 17.5785 122.583 17.8877 122.905C18.1969 123.22 18.4351 123.585 18.6021 124C18.769 124.414 18.8525 124.899 18.8525 125.456C18.8525 126.501 18.5309 127.349 17.8877 127.998C17.2507 128.647 16.36 129.031 15.2158 129.148L15.2158 130.958H13.7407L13.7407 129.158C12.5161 129.022 11.5729 128.583 10.9111 127.84C10.2555 127.098 9.92773 126.115 9.92773 124.89H12.1821C12.1821 125.669 12.377 126.272 12.7666 126.699C13.1624 127.126 13.7191 127.339 14.4365 127.339C15.1416 127.339 15.6766 127.169 16.0415 126.829C16.4126 126.489 16.5981 126.037 16.5981 125.475ZM26.9146 129H24.6694L24.6694 118.155L21.3574 119.287L21.3574 117.385L26.627 115.446H26.9146L26.9146 129ZM40.6914 129L31.6089 129L31.6089 127.451L36.1084 122.543C36.7578 121.819 37.2186 121.216 37.4907 120.734C37.769 120.245 37.9082 119.757 37.9082 119.268C37.9082 118.625 37.7257 118.105 37.3608 117.709C37.0021 117.314 36.5166 117.116 35.9043 117.116C35.1745 117.116 34.6086 117.338 34.2065 117.784C33.8045 118.229 33.6035 118.838 33.6035 119.611H31.3491C31.3491 118.789 31.5347 118.05 31.9058 117.394C32.283 116.732 32.818 116.219 33.5107 115.854C34.2096 115.489 35.0137 115.307 35.9229 115.307C37.234 115.307 38.2669 115.638 39.0215 116.299C39.7822 116.955 40.1626 117.864 40.1626 119.027C40.1626 119.701 39.9709 120.409 39.5874 121.151C39.2101 121.887 38.5885 122.725 37.7227 123.666L34.4199 127.2L40.6914 127.2V129ZM51.4902 129L42.4077 129V127.451L46.9072 122.543C47.5566 121.819 48.0174 121.216 48.2896 120.734C48.5679 120.245 48.707 119.757 48.707 119.268C48.707 118.625 48.5246 118.105 48.1597 117.709C47.8009 117.314 47.3154 117.116 46.7031 117.116C45.9733 117.116 45.4074 117.338 45.0054 117.784C44.6034 118.229 44.4023 118.838 44.4023 119.611H42.1479C42.1479 118.789 42.3335 118.05 42.7046 117.394C43.0819 116.732 43.6169 116.219 44.3096 115.854C45.0085 115.489 45.8125 115.307 46.7217 115.307C48.0329 115.307 49.0658 115.638 49.8203 116.299C50.5811 116.955 50.9614 117.864 50.9614 119.027C50.9614 119.701 50.7697 120.409 50.3862 121.151C50.009 121.887 49.3874 122.725 48.5215 123.666L45.2187 127.2L51.4902 127.2V129ZM55.8135 121.216H57.1865C57.8792 121.21 58.4266 121.031 58.8286 120.678C59.2368 120.326 59.4409 119.815 59.4409 119.147C59.4409 118.504 59.2708 118.006 58.9307 117.654C58.5967 117.295 58.0833 117.116 57.3906 117.116C56.7845 117.116 56.2866 117.292 55.897 117.645C55.5073 117.991 55.3125 118.445 55.3125 119.008L53.0581 119.008C53.0581 118.316 53.2406 117.685 53.6055 117.116C53.9766 116.547 54.4899 116.104 55.1455 115.789C55.8073 115.467 56.5464 115.307 57.3628 115.307C58.7111 115.307 59.7687 115.647 60.5356 116.327C61.3088 117.001 61.6953 117.941 61.6953 119.147C61.6953 119.754 61.5005 120.326 61.1108 120.864C60.7274 121.396 60.2295 121.798 59.6172 122.07C60.3594 122.323 60.9222 122.722 61.3057 123.267C61.6953 123.811 61.8901 124.46 61.8901 125.215C61.8901 126.427 61.4727 127.392 60.6377 128.109C59.8089 128.827 58.7173 129.186 57.3628 129.186C56.064 129.186 55.0002 128.839 54.1714 128.146C53.3426 127.454 52.9282 126.532 52.9282 125.382L55.1826 125.382C55.1826 125.976 55.3805 126.458 55.7764 126.829C56.1784 127.2 56.7165 127.386 57.3906 127.386C58.0895 127.386 58.64 127.2 59.042 126.829C59.444 126.458 59.645 125.92 59.645 125.215C59.645 124.504 59.4347 123.956 59.0142 123.573C58.5936 123.189 57.9689 122.998 57.1401 122.998H55.8135L55.8135 121.216ZM64.4692 132.043L63.2539 131.319C63.6126 130.757 63.8569 130.265 63.9868 129.844C64.1229 129.43 64.194 129.006 64.2002 128.573V126.82H66.2319L66.2227 128.443C66.2165 129.099 66.0495 129.755 65.7217 130.41C65.4001 131.072 64.9826 131.616 64.4692 132.043ZM76.9844 123.313C76.9844 125.255 76.6195 126.721 75.8896 127.71C75.166 128.694 74.062 129.186 72.5776 129.186C71.118 129.186 70.0171 128.706 69.2749 127.748C68.5389 126.783 68.1616 125.357 68.1431 123.471L68.1431 121.133C68.1431 119.191 68.5049 117.734 69.2285 116.763C69.9583 115.792 71.0685 115.307 72.5591 115.307C74.0373 115.307 75.1382 115.78 75.8618 116.726C76.5916 117.672 76.9658 119.089 76.9844 120.975V123.313ZM74.73 120.79C74.73 119.522 74.5568 118.594 74.2104 118.006C73.8641 117.413 73.3136 117.116 72.5591 117.116C71.8231 117.116 71.2819 117.397 70.9355 117.96C70.5892 118.517 70.4067 119.389 70.3882 120.576L70.3882 123.638C70.3882 124.899 70.5645 125.84 70.917 126.458C71.2695 127.076 71.8231 127.386 72.5776 127.386C73.3013 127.386 73.8363 127.101 74.1826 126.532C74.529 125.957 74.7114 125.06 74.73 123.842V120.79ZM87.7832 123.313C87.7832 125.255 87.4183 126.721 86.6885 127.71C85.9648 128.694 84.8608 129.186 83.3765 129.186C81.9168 129.186 80.8159 128.706 80.0737 127.748C79.3377 126.783 78.9604 125.357 78.9419 123.471V121.133C78.9419 119.191 79.3037 117.734 80.0273 116.763C80.7572 115.792 81.8674 115.307 83.3579 115.307C84.8361 115.307 85.937 115.78 86.6606 116.726C87.3905 117.672 87.7646 119.089 87.7832 120.975V123.313ZM85.5288 120.79C85.5288 119.522 85.3556 118.594 85.0093 118.006C84.6629 117.413 84.1125 117.116 83.3579 117.116C82.6219 117.116 82.0807 117.397 81.7344 117.96C81.388 118.517 81.2056 119.389 81.187 120.576V123.638C81.187 124.899 81.3633 125.84 81.7158 126.458C82.0684 127.076 82.6219 127.386 83.3765 127.386C84.1001 127.386 84.6351 127.101 84.9814 126.532C85.3278 125.957 85.5103 125.06 85.5288 123.842V120.79Z" fill="white"/>
<path d="M173.36 64.9912C173.267 65.9772 172.903 66.7474 172.268 67.3018C171.633 67.8519 170.789 68.127 169.735 68.127C168.999 68.127 168.349 67.9535 167.787 67.6064C167.228 67.2552 166.796 66.758 166.492 66.1147C166.187 65.4715 166.028 64.7246 166.016 63.874V63.0107C166.016 62.139 166.17 61.3709 166.479 60.7065C166.788 60.0422 167.23 59.5301 167.806 59.1704C168.385 58.8107 169.054 58.6309 169.812 58.6309C170.831 58.6309 171.652 58.908 172.274 59.4624C172.896 60.0168 173.258 60.7996 173.36 61.811H171.76C171.684 61.1466 171.489 60.6685 171.176 60.3765C170.867 60.0802 170.412 59.9321 169.812 59.9321C169.113 59.9321 168.576 60.1882 168.199 60.7002C167.827 61.208 167.636 61.9549 167.628 62.9409V63.7598C167.628 64.7585 167.806 65.5202 168.161 66.0449C168.521 66.5697 169.046 66.832 169.735 66.832C170.366 66.832 170.84 66.6903 171.157 66.4067C171.475 66.1232 171.676 65.6514 171.76 64.9912H173.36ZM180.974 65.8481H177.394L176.645 68H174.976L178.467 58.7578L179.908 58.7578L183.405 68H181.729L180.974 65.8481ZM177.845 64.5532H180.523L179.184 60.7192L177.845 64.5532ZM188.855 64.439H187.065L187.065 68L185.459 68L185.459 58.7578L188.709 58.7578C189.775 58.7578 190.598 58.9969 191.178 59.4751C191.758 59.9533 192.048 60.6452 192.048 61.5508C192.048 62.1686 191.898 62.687 191.597 63.106C191.301 63.5207 190.886 63.8402 190.353 64.0645L192.429 67.9175V68H190.708L188.855 64.439ZM187.065 63.1504L188.715 63.1504C189.257 63.1504 189.68 63.015 189.985 62.7441C190.29 62.4691 190.442 62.0946 190.442 61.6206C190.442 61.1255 190.3 60.7425 190.017 60.4717C189.737 60.2008 189.318 60.0612 188.76 60.0527L187.065 60.0527V63.1504Z" fill="white"/>
<path d="M33.0859 62.6172V63.8804L28.1792 63.8804L28.1792 62.6172L33.0859 62.6172ZM28.5728 58.7578L28.5728 68H26.9795L26.9795 58.7578L28.5728 58.7578ZM34.311 58.7578L34.311 68H32.7241L32.7241 58.7578H34.311ZM44.5786 63.125V63.6328C44.5786 64.3311 44.4876 64.9574 44.3057 65.5117C44.1237 66.0661 43.8634 66.5379 43.5249 66.9272C43.1906 67.3166 42.7886 67.6149 42.3188 67.8223C41.8491 68.0254 41.3286 68.127 40.7573 68.127C40.1903 68.127 39.6719 68.0254 39.2021 67.8223C38.7367 67.6149 38.3325 67.3166 37.9897 66.9272C37.647 66.5379 37.3804 66.0661 37.1899 65.5117C37.0037 64.9574 36.9106 64.3311 36.9106 63.6328V63.125C36.9106 62.4268 37.0037 61.8026 37.1899 61.2524C37.3761 60.6981 37.6385 60.2262 37.9771 59.8369C38.3198 59.4434 38.724 59.145 39.1895 58.9419C39.6592 58.7345 40.1776 58.6309 40.7446 58.6309C41.3159 58.6309 41.8364 58.7345 42.3062 58.9419C42.7759 59.145 43.18 59.4434 43.5186 59.8369C43.8571 60.2262 44.1174 60.6981 44.2993 61.2524C44.4855 61.8026 44.5786 62.4268 44.5786 63.125ZM42.9854 63.6328V63.1123C42.9854 62.596 42.9346 62.1411 42.833 61.7476C42.7357 61.3498 42.5897 61.0176 42.395 60.751C42.2046 60.4801 41.9697 60.277 41.6904 60.1416C41.4111 60.002 41.0959 59.9321 40.7446 59.9321C40.3934 59.9321 40.0802 60.002 39.8052 60.1416C39.5301 60.277 39.2952 60.4801 39.1006 60.751C38.9102 61.0176 38.7642 61.3498 38.6626 61.7476C38.561 62.1411 38.5103 62.596 38.5103 63.1123V63.6328C38.5103 64.1491 38.561 64.6061 38.6626 65.0039C38.7642 65.4017 38.9123 65.7381 39.1069 66.0132C39.3058 66.284 39.5428 66.4893 39.8179 66.6289C40.0929 66.7643 40.4061 66.832 40.7573 66.832C41.1128 66.832 41.4281 66.7643 41.7031 66.6289C41.9782 66.4893 42.2109 66.284 42.4014 66.0132C42.5918 65.7381 42.7357 65.4017 42.833 65.0039C42.9346 64.6061 42.9854 64.1491 42.9854 63.6328ZM52.3579 58.7578L53.9448 58.7578L53.9448 64.9341C53.9448 65.6366 53.7925 66.2248 53.4878 66.6987C53.1831 67.1727 52.7684 67.5303 52.2437 67.7715C51.7231 68.0085 51.1413 68.127 50.498 68.127C49.8337 68.127 49.2412 68.0085 48.7207 67.7715C48.2002 67.5303 47.7897 67.1727 47.4893 66.6987C47.193 66.2248 47.0449 65.6366 47.0449 64.9341L47.0449 58.7578H48.6318L48.6318 64.9341C48.6318 65.3784 48.708 65.7445 48.8604 66.0322C49.0127 66.3158 49.2285 66.5252 49.5078 66.6606C49.7871 66.7961 50.1172 66.8638 50.498 66.8638C50.8789 66.8638 51.2069 66.7961 51.4819 66.6606C51.7612 66.5252 51.9771 66.3158 52.1294 66.0322C52.2817 65.7445 52.3579 65.3784 52.3579 64.9341L52.3579 58.7578ZM61.54 65.6196C61.54 65.4292 61.5104 65.2599 61.4512 65.1118C61.3962 64.9637 61.2967 64.8283 61.1528 64.7056C61.009 64.5828 60.8058 64.4644 60.5435 64.3501C60.2853 64.2316 59.9552 64.111 59.5532 63.9883C59.1131 63.8529 58.7069 63.7026 58.3345 63.5376C57.9663 63.3683 57.6447 63.1737 57.3696 62.9536C57.0946 62.7293 56.8809 62.4733 56.7285 62.1855C56.5762 61.8936 56.5 61.5571 56.5 61.1763C56.5 60.7996 56.5783 60.4569 56.7349 60.1479C56.8957 59.839 57.1221 59.5724 57.4141 59.3481C57.7103 59.1196 58.0594 58.944 58.4614 58.8213C58.8634 58.6943 59.3078 58.6309 59.7944 58.6309C60.48 58.6309 61.0703 58.7578 61.5654 59.0117C62.0648 59.2656 62.4478 59.6063 62.7144 60.0337C62.9852 60.4611 63.1206 60.9329 63.1206 61.4492H61.54C61.54 61.1445 61.4744 60.8758 61.3433 60.6431C61.2163 60.4061 61.0216 60.2199 60.7593 60.0845C60.5011 59.9491 60.1732 59.8813 59.7754 59.8813C59.3988 59.8813 59.0856 59.9385 58.8359 60.0527C58.5863 60.167 58.4001 60.3215 58.2773 60.5161C58.1546 60.7108 58.0933 60.9308 58.0933 61.1763C58.0933 61.3498 58.1335 61.5085 58.2139 61.6523C58.2943 61.792 58.417 61.9232 58.582 62.0459C58.7471 62.1644 58.9544 62.2765 59.2041 62.3823C59.4538 62.4881 59.7479 62.5897 60.0864 62.687C60.5985 62.8394 61.0449 63.0086 61.4258 63.1948C61.8066 63.3768 62.124 63.5841 62.3779 63.8169C62.6318 64.0496 62.8223 64.3141 62.9492 64.6104C63.0762 64.9023 63.1396 65.2345 63.1396 65.6069C63.1396 65.9963 63.0614 66.3475 62.9048 66.6606C62.7482 66.9696 62.5239 67.234 62.2319 67.4541C61.9442 67.6699 61.5972 67.8371 61.1909 67.9556C60.7889 68.0698 60.3403 68.127 59.8452 68.127C59.4009 68.127 58.9629 68.0677 58.5312 67.9492C58.1038 67.8307 57.7145 67.6509 57.3633 67.4097C57.012 67.1642 56.7327 66.8595 56.5254 66.4956C56.318 66.1274 56.2144 65.6979 56.2144 65.207H57.8076C57.8076 65.5075 57.8584 65.7635 57.96 65.9751C58.0658 66.1867 58.2118 66.3602 58.3979 66.4956C58.5841 66.6268 58.8 66.7241 59.0454 66.7876C59.2951 66.8511 59.5617 66.8828 59.8452 66.8828C60.2176 66.8828 60.5286 66.8299 60.7783 66.7241C61.0322 66.6183 61.2227 66.4702 61.3496 66.2798C61.4766 66.0894 61.54 65.8693 61.54 65.6196ZM71.5981 66.7368V68L66.6914 68V66.7368L71.5981 66.7368ZM67.1421 58.7578L67.1421 68H65.5488L65.5488 58.7578H67.1421ZM70.957 62.6172V63.8613L66.6914 63.8613V62.6172L70.957 62.6172ZM71.5664 58.7578V60.0273L66.6914 60.0273V58.7578L71.5664 58.7578Z" fill="white"/>
<circle opacity="0.5" cx="49" cy="49" r="45.5" transform="matrix(-1 0 0 1 98 0)" stroke="#CBCCC4" stroke-opacity="0.4" stroke-width="7"/>
<path d="M49.1211 3.65252C49.1211 1.63624 50.7613 -0.0124015 52.7721 0.135344C78.1959 2.00333 98.2422 23.2221 98.2422 49.1228C98.2422 75.0236 78.1959 96.2423 52.7721 98.1103C50.7613 98.2581 49.1211 96.6094 49.1211 94.5931V94.5931C49.1211 92.5768 50.7623 90.9574 52.7731 90.808C75.1621 89.1445 90.9406 72.1935 90.9406 49.1228C90.9406 26.0521 75.1621 9.10112 52.7731 7.43765C50.7623 7.28825 49.1211 5.66881 49.1211 3.65252V3.65252Z" fill="#DFB022"/>
<circle opacity="0.5" cx="49" cy="49" r="45.5" transform="matrix(-1 0 0 1 228 0)" stroke="#CBCCC4" stroke-opacity="0.4" stroke-width="7"/>
<path d="M179.7 3.70085C179.7 1.66674 181.368 0.0104942 183.394 0.185137C208.522 2.35054 228.242 23.4338 228.242 49.123C228.242 76.2518 206.25 98.2441 179.121 98.2441C166.492 98.2441 154.977 93.4783 146.274 85.6472C145.172 84.6551 144.952 83.029 145.673 81.7329V81.7329C146.747 79.8016 149.377 79.4445 151.079 80.8535C158.694 87.1553 168.465 90.9424 179.121 90.9424C203.427 90.9424 220.941 73.429 220.941 49.123C220.941 26.234 205.441 9.39996 183.306 7.48505C181.314 7.31274 179.7 5.70006 179.7 3.70085V3.70085Z" fill="#BBBBBB" fill-opacity="0.733333"/>
<defs>
<filter id="filter0_f_228_26" x="20.7342" y="12" width="56.5317" height="55.1353" filterUnits="userSpaceOnUse" color-interpolation-filters="sRGB">
<feFlood flood-opacity="0" result="BackgroundImageFix"/>
<feBlend mode="normal" in="SourceGraphic" in2="BackgroundImageFix" result="shape"/>
<feGaussianBlur stdDeviation="7" result="effect1_foregroundBlur_228_26"/>
</filter>
</defs>
</svg>
