<svg width="870" height="409" viewBox="0 0 870 409" fill="none" xmlns="http://www.w3.org/2000/svg">
<path d="M0 0H870V409H0V0Z" fill="#272727"/>
<path d="M92.9702 143.727V116.455H94.7173V143.727H92.9702ZM98.0092 125.18C97.9098 124.249 97.4908 123.525 96.7521 123.006C96.0206 122.488 95.0689 122.229 93.897 122.229C93.0732 122.229 92.3665 122.353 91.777 122.602C91.1875 122.85 90.7365 123.187 90.424 123.614C90.1115 124.04 89.9517 124.526 89.9446 125.073C89.9446 125.528 90.0476 125.922 90.2536 126.256C90.4666 126.589 90.7543 126.874 91.1165 127.108C91.4787 127.335 91.88 127.527 92.3203 127.683C92.7607 127.839 93.2045 127.971 93.652 128.077L95.6974 128.589C96.5213 128.781 97.3132 129.04 98.0732 129.366C98.8402 129.693 99.5256 130.105 100.129 130.602C100.74 131.099 101.223 131.7 101.578 132.403C101.933 133.106 102.111 133.93 102.111 134.874C102.111 136.153 101.784 137.278 101.131 138.251C100.477 139.217 99.5327 139.974 98.2969 140.521C97.0682 141.06 95.5803 141.33 93.8331 141.33C92.1357 141.33 90.6619 141.067 89.4119 140.542C88.169 140.016 87.196 139.249 86.4929 138.241C85.7969 137.232 85.4205 136.004 85.3636 134.555H89.2521C89.3089 135.315 89.5433 135.947 89.9553 136.451C90.3672 136.955 90.9034 137.332 91.5639 137.58C92.2315 137.829 92.9773 137.953 93.8011 137.953C94.6605 137.953 95.4134 137.825 96.0597 137.57C96.7131 137.307 97.2244 136.945 97.5938 136.483C97.9631 136.014 98.1513 135.467 98.1584 134.842C98.1513 134.274 97.9844 133.805 97.6577 133.436C97.331 133.06 96.8729 132.747 96.2834 132.499C95.701 132.243 95.0192 132.016 94.2379 131.817L91.7557 131.178C89.9588 130.716 88.5384 130.016 87.4943 129.079C86.4574 128.134 85.9389 126.881 85.9389 125.318C85.9389 124.033 86.2869 122.907 86.983 121.941C87.6861 120.975 88.6413 120.226 89.8487 119.693C91.0561 119.153 92.4233 118.884 93.9503 118.884C95.4986 118.884 96.8551 119.153 98.0199 119.693C99.1918 120.226 100.112 120.968 100.779 121.92C101.447 122.864 101.791 123.951 101.812 125.18H98.0092Z" fill="#DFB022"/>
<path d="M43.9702 199.727V172.455H45.7173V199.727H43.9702ZM49.0092 181.18C48.9098 180.249 48.4908 179.525 47.7521 179.006C47.0206 178.488 46.0689 178.229 44.897 178.229C44.0732 178.229 43.3665 178.353 42.777 178.602C42.1875 178.85 41.7365 179.187 41.424 179.614C41.1115 180.04 40.9517 180.526 40.9446 181.073C40.9446 181.528 41.0476 181.922 41.2536 182.256C41.4666 182.589 41.7543 182.874 42.1165 183.108C42.4787 183.335 42.88 183.527 43.3203 183.683C43.7607 183.839 44.2045 183.971 44.652 184.077L46.6974 184.589C47.5213 184.781 48.3132 185.04 49.0732 185.366C49.8402 185.693 50.5256 186.105 51.1293 186.602C51.7401 187.099 52.223 187.7 52.5781 188.403C52.9332 189.106 53.1108 189.93 53.1108 190.874C53.1108 192.153 52.7841 193.278 52.1307 194.251C51.4773 195.217 50.5327 195.974 49.2969 196.521C48.0682 197.06 46.5803 197.33 44.8331 197.33C43.1357 197.33 41.6619 197.067 40.4119 196.542C39.169 196.016 38.196 195.249 37.4929 194.241C36.7969 193.232 36.4205 192.004 36.3636 190.555H40.2521C40.3089 191.315 40.5433 191.947 40.9553 192.451C41.3672 192.955 41.9034 193.332 42.5639 193.58C43.2315 193.829 43.9773 193.953 44.8011 193.953C45.6605 193.953 46.4134 193.825 47.0597 193.57C47.7131 193.307 48.2244 192.945 48.5938 192.483C48.9631 192.014 49.1513 191.467 49.1584 190.842C49.1513 190.274 48.9844 189.805 48.6577 189.436C48.331 189.06 47.8729 188.747 47.2834 188.499C46.701 188.243 46.0192 188.016 45.2379 187.817L42.7557 187.178C40.9588 186.716 39.5384 186.016 38.4943 185.079C37.4574 184.134 36.9389 182.881 36.9389 181.318C36.9389 180.033 37.2869 178.907 37.983 177.941C38.6861 176.975 39.6413 176.226 40.8487 175.693C42.0561 175.153 43.4233 174.884 44.9503 174.884C46.4986 174.884 47.8551 175.153 49.0199 175.693C50.1918 176.226 51.1115 176.968 51.7791 177.92C52.4467 178.864 52.7912 179.951 52.8125 181.18H49.0092Z" fill="#DFB022"/>
<path d="M92.9702 258.727V231.455H94.7173V258.727H92.9702ZM98.0092 240.18C97.9098 239.249 97.4908 238.525 96.7521 238.006C96.0206 237.488 95.0689 237.229 93.897 237.229C93.0732 237.229 92.3665 237.353 91.777 237.602C91.1875 237.85 90.7365 238.187 90.424 238.614C90.1115 239.04 89.9517 239.526 89.9446 240.073C89.9446 240.528 90.0476 240.922 90.2536 241.256C90.4666 241.589 90.7543 241.874 91.1165 242.108C91.4787 242.335 91.88 242.527 92.3203 242.683C92.7607 242.839 93.2045 242.971 93.652 243.077L95.6974 243.589C96.5213 243.781 97.3132 244.04 98.0732 244.366C98.8402 244.693 99.5256 245.105 100.129 245.602C100.74 246.099 101.223 246.7 101.578 247.403C101.933 248.106 102.111 248.93 102.111 249.874C102.111 251.153 101.784 252.278 101.131 253.251C100.477 254.217 99.5327 254.974 98.2969 255.521C97.0682 256.06 95.5803 256.33 93.8331 256.33C92.1357 256.33 90.6619 256.067 89.4119 255.542C88.169 255.016 87.196 254.249 86.4929 253.241C85.7969 252.232 85.4205 251.004 85.3636 249.555H89.2521C89.3089 250.315 89.5433 250.947 89.9553 251.451C90.3672 251.955 90.9034 252.332 91.5639 252.58C92.2315 252.829 92.9773 252.953 93.8011 252.953C94.6605 252.953 95.4134 252.825 96.0597 252.57C96.7131 252.307 97.2244 251.945 97.5938 251.483C97.9631 251.014 98.1513 250.467 98.1584 249.842C98.1513 249.274 97.9844 248.805 97.6577 248.436C97.331 248.06 96.8729 247.747 96.2834 247.499C95.701 247.243 95.0192 247.016 94.2379 246.817L91.7557 246.178C89.9588 245.716 88.5384 245.016 87.4943 244.079C86.4574 243.134 85.9389 241.881 85.9389 240.318C85.9389 239.033 86.2869 237.907 86.983 236.941C87.6861 235.975 88.6413 235.226 89.8487 234.693C91.0561 234.153 92.4233 233.884 93.9503 233.884C95.4986 233.884 96.8551 234.153 98.0199 234.693C99.1918 235.226 100.112 235.968 100.779 236.92C101.447 237.864 101.791 238.951 101.812 240.18H98.0092Z" fill="#DFB022"/>
<path d="M43.9702 317.727V290.455H45.7173V317.727H43.9702ZM49.0092 299.18C48.9098 298.249 48.4908 297.525 47.7521 297.006C47.0206 296.488 46.0689 296.229 44.897 296.229C44.0732 296.229 43.3665 296.353 42.777 296.602C42.1875 296.85 41.7365 297.187 41.424 297.614C41.1115 298.04 40.9517 298.526 40.9446 299.073C40.9446 299.528 41.0476 299.922 41.2536 300.256C41.4666 300.589 41.7543 300.874 42.1165 301.108C42.4787 301.335 42.88 301.527 43.3203 301.683C43.7607 301.839 44.2045 301.971 44.652 302.077L46.6974 302.589C47.5213 302.781 48.3132 303.04 49.0732 303.366C49.8402 303.693 50.5256 304.105 51.1293 304.602C51.7401 305.099 52.223 305.7 52.5781 306.403C52.9332 307.106 53.1108 307.93 53.1108 308.874C53.1108 310.153 52.7841 311.278 52.1307 312.251C51.4773 313.217 50.5327 313.974 49.2969 314.521C48.0682 315.06 46.5803 315.33 44.8331 315.33C43.1357 315.33 41.6619 315.067 40.4119 314.542C39.169 314.016 38.196 313.249 37.4929 312.241C36.7969 311.232 36.4205 310.004 36.3636 308.555H40.2521C40.3089 309.315 40.5433 309.947 40.9553 310.451C41.3672 310.955 41.9034 311.332 42.5639 311.58C43.2315 311.829 43.9773 311.953 44.8011 311.953C45.6605 311.953 46.4134 311.825 47.0597 311.57C47.7131 311.307 48.2244 310.945 48.5938 310.483C48.9631 310.014 49.1513 309.467 49.1584 308.842C49.1513 308.274 48.9844 307.805 48.6577 307.436C48.331 307.06 47.8729 306.747 47.2834 306.499C46.701 306.243 46.0192 306.016 45.2379 305.817L42.7557 305.178C40.9588 304.716 39.5384 304.016 38.4943 303.079C37.4574 302.134 36.9389 300.881 36.9389 299.318C36.9389 298.033 37.2869 296.907 37.983 295.941C38.6861 294.975 39.6413 294.226 40.8487 293.693C42.0561 293.153 43.4233 292.884 44.9503 292.884C46.4986 292.884 47.8551 293.153 49.0199 293.693C50.1918 294.226 51.1115 294.968 51.7791 295.92C52.4467 296.864 52.7912 297.951 52.8125 299.18H49.0092Z" fill="#DFB022"/>
<path d="M92.9702 373.727V346.455H94.7173V373.727H92.9702ZM98.0092 355.18C97.9098 354.249 97.4908 353.525 96.7521 353.006C96.0206 352.488 95.0689 352.229 93.897 352.229C93.0732 352.229 92.3665 352.353 91.777 352.602C91.1875 352.85 90.7365 353.187 90.424 353.614C90.1115 354.04 89.9517 354.526 89.9446 355.073C89.9446 355.528 90.0476 355.922 90.2536 356.256C90.4666 356.589 90.7543 356.874 91.1165 357.108C91.4787 357.335 91.88 357.527 92.3203 357.683C92.7607 357.839 93.2045 357.971 93.652 358.077L95.6974 358.589C96.5213 358.781 97.3132 359.04 98.0732 359.366C98.8402 359.693 99.5256 360.105 100.129 360.602C100.74 361.099 101.223 361.7 101.578 362.403C101.933 363.106 102.111 363.93 102.111 364.874C102.111 366.153 101.784 367.278 101.131 368.251C100.477 369.217 99.5327 369.974 98.2969 370.521C97.0682 371.06 95.5803 371.33 93.8331 371.33C92.1357 371.33 90.6619 371.067 89.4119 370.542C88.169 370.016 87.196 369.249 86.4929 368.241C85.7969 367.232 85.4205 366.004 85.3636 364.555H89.2521C89.3089 365.315 89.5433 365.947 89.9553 366.451C90.3672 366.955 90.9034 367.332 91.5639 367.58C92.2315 367.829 92.9773 367.953 93.8011 367.953C94.6605 367.953 95.4134 367.825 96.0597 367.57C96.7131 367.307 97.2244 366.945 97.5938 366.483C97.9631 366.014 98.1513 365.467 98.1584 364.842C98.1513 364.274 97.9844 363.805 97.6577 363.436C97.331 363.06 96.8729 362.747 96.2834 362.499C95.701 362.243 95.0192 362.016 94.2379 361.817L91.7557 361.178C89.9588 360.716 88.5384 360.016 87.4943 359.079C86.4574 358.134 85.9389 356.881 85.9389 355.318C85.9389 354.033 86.2869 352.907 86.983 351.941C87.6861 350.975 88.6413 350.226 89.8487 349.693C91.0561 349.153 92.4233 348.884 93.9503 348.884C95.4986 348.884 96.8551 349.153 98.0199 349.693C99.1918 350.226 100.112 350.968 100.779 351.92C101.447 352.864 101.791 353.951 101.812 355.18H98.0092Z" fill="#DFB022"/>
<path d="M183.97 143.727V116.455H185.717V143.727H183.97ZM189.009 125.18C188.91 124.249 188.491 123.525 187.752 123.006C187.021 122.488 186.069 122.229 184.897 122.229C184.073 122.229 183.366 122.353 182.777 122.602C182.188 122.85 181.737 123.187 181.424 123.614C181.112 124.04 180.952 124.526 180.945 125.073C180.945 125.528 181.048 125.922 181.254 126.256C181.467 126.589 181.754 126.874 182.116 127.108C182.479 127.335 182.88 127.527 183.32 127.683C183.761 127.839 184.205 127.971 184.652 128.077L186.697 128.589C187.521 128.781 188.313 129.04 189.073 129.366C189.84 129.693 190.526 130.105 191.129 130.602C191.74 131.099 192.223 131.7 192.578 132.403C192.933 133.106 193.111 133.93 193.111 134.874C193.111 136.153 192.784 137.278 192.131 138.251C191.477 139.217 190.533 139.974 189.297 140.521C188.068 141.06 186.58 141.33 184.833 141.33C183.136 141.33 181.662 141.067 180.412 140.542C179.169 140.016 178.196 139.249 177.493 138.241C176.797 137.232 176.42 136.004 176.364 134.555H180.252C180.309 135.315 180.543 135.947 180.955 136.451C181.367 136.955 181.903 137.332 182.564 137.58C183.232 137.829 183.977 137.953 184.801 137.953C185.661 137.953 186.413 137.825 187.06 137.57C187.713 137.307 188.224 136.945 188.594 136.483C188.963 136.014 189.151 135.467 189.158 134.842C189.151 134.274 188.984 133.805 188.658 133.436C188.331 133.06 187.873 132.747 187.283 132.499C186.701 132.243 186.019 132.016 185.238 131.817L182.756 131.178C180.959 130.716 179.538 130.016 178.494 129.079C177.457 128.134 176.939 126.881 176.939 125.318C176.939 124.033 177.287 122.907 177.983 121.941C178.686 120.975 179.641 120.226 180.849 119.693C182.056 119.153 183.423 118.884 184.95 118.884C186.499 118.884 187.855 119.153 189.02 119.693C190.192 120.226 191.112 120.968 191.779 121.92C192.447 122.864 192.791 123.951 192.812 125.18H189.009Z" fill="#DFB022"/>
<path d="M134.97 199.727V172.455H136.717V199.727H134.97ZM140.009 181.18C139.91 180.249 139.491 179.525 138.752 179.006C138.021 178.488 137.069 178.229 135.897 178.229C135.073 178.229 134.366 178.353 133.777 178.602C133.188 178.85 132.737 179.187 132.424 179.614C132.112 180.04 131.952 180.526 131.945 181.073C131.945 181.528 132.048 181.922 132.254 182.256C132.467 182.589 132.754 182.874 133.116 183.108C133.479 183.335 133.88 183.527 134.32 183.683C134.761 183.839 135.205 183.971 135.652 184.077L137.697 184.589C138.521 184.781 139.313 185.04 140.073 185.366C140.84 185.693 141.526 186.105 142.129 186.602C142.74 187.099 143.223 187.7 143.578 188.403C143.933 189.106 144.111 189.93 144.111 190.874C144.111 192.153 143.784 193.278 143.131 194.251C142.477 195.217 141.533 195.974 140.297 196.521C139.068 197.06 137.58 197.33 135.833 197.33C134.136 197.33 132.662 197.067 131.412 196.542C130.169 196.016 129.196 195.249 128.493 194.241C127.797 193.232 127.42 192.004 127.364 190.555H131.252C131.309 191.315 131.543 191.947 131.955 192.451C132.367 192.955 132.903 193.332 133.564 193.58C134.232 193.829 134.977 193.953 135.801 193.953C136.661 193.953 137.413 193.825 138.06 193.57C138.713 193.307 139.224 192.945 139.594 192.483C139.963 192.014 140.151 191.467 140.158 190.842C140.151 190.274 139.984 189.805 139.658 189.436C139.331 189.06 138.873 188.747 138.283 188.499C137.701 188.243 137.019 188.016 136.238 187.817L133.756 187.178C131.959 186.716 130.538 186.016 129.494 185.079C128.457 184.134 127.939 182.881 127.939 181.318C127.939 180.033 128.287 178.907 128.983 177.941C129.686 176.975 130.641 176.226 131.849 175.693C133.056 175.153 134.423 174.884 135.95 174.884C137.499 174.884 138.855 175.153 140.02 175.693C141.192 176.226 142.112 176.968 142.779 177.92C143.447 178.864 143.791 179.951 143.812 181.18H140.009Z" fill="#DFB022"/>
<path d="M183.97 258.727V231.455H185.717V258.727H183.97ZM189.009 240.18C188.91 239.249 188.491 238.525 187.752 238.006C187.021 237.488 186.069 237.229 184.897 237.229C184.073 237.229 183.366 237.353 182.777 237.602C182.188 237.85 181.737 238.187 181.424 238.614C181.112 239.04 180.952 239.526 180.945 240.073C180.945 240.528 181.048 240.922 181.254 241.256C181.467 241.589 181.754 241.874 182.116 242.108C182.479 242.335 182.88 242.527 183.32 242.683C183.761 242.839 184.205 242.971 184.652 243.077L186.697 243.589C187.521 243.781 188.313 244.04 189.073 244.366C189.84 244.693 190.526 245.105 191.129 245.602C191.74 246.099 192.223 246.7 192.578 247.403C192.933 248.106 193.111 248.93 193.111 249.874C193.111 251.153 192.784 252.278 192.131 253.251C191.477 254.217 190.533 254.974 189.297 255.521C188.068 256.06 186.58 256.33 184.833 256.33C183.136 256.33 181.662 256.067 180.412 255.542C179.169 255.016 178.196 254.249 177.493 253.241C176.797 252.232 176.42 251.004 176.364 249.555H180.252C180.309 250.315 180.543 250.947 180.955 251.451C181.367 251.955 181.903 252.332 182.564 252.58C183.232 252.829 183.977 252.953 184.801 252.953C185.661 252.953 186.413 252.825 187.06 252.57C187.713 252.307 188.224 251.945 188.594 251.483C188.963 251.014 189.151 250.467 189.158 249.842C189.151 249.274 188.984 248.805 188.658 248.436C188.331 248.06 187.873 247.747 187.283 247.499C186.701 247.243 186.019 247.016 185.238 246.817L182.756 246.178C180.959 245.716 179.538 245.016 178.494 244.079C177.457 243.134 176.939 241.881 176.939 240.318C176.939 239.033 177.287 237.907 177.983 236.941C178.686 235.975 179.641 235.226 180.849 234.693C182.056 234.153 183.423 233.884 184.95 233.884C186.499 233.884 187.855 234.153 189.02 234.693C190.192 235.226 191.112 235.968 191.779 236.92C192.447 237.864 192.791 238.951 192.812 240.18H189.009Z" fill="#DFB022"/>
<path d="M134.97 317.727V290.455H136.717V317.727H134.97ZM140.009 299.18C139.91 298.249 139.491 297.525 138.752 297.006C138.021 296.488 137.069 296.229 135.897 296.229C135.073 296.229 134.366 296.353 133.777 296.602C133.188 296.85 132.737 297.187 132.424 297.614C132.112 298.04 131.952 298.526 131.945 299.073C131.945 299.528 132.048 299.922 132.254 300.256C132.467 300.589 132.754 300.874 133.116 301.108C133.479 301.335 133.88 301.527 134.32 301.683C134.761 301.839 135.205 301.971 135.652 302.077L137.697 302.589C138.521 302.781 139.313 303.04 140.073 303.366C140.84 303.693 141.526 304.105 142.129 304.602C142.74 305.099 143.223 305.7 143.578 306.403C143.933 307.106 144.111 307.93 144.111 308.874C144.111 310.153 143.784 311.278 143.131 312.251C142.477 313.217 141.533 313.974 140.297 314.521C139.068 315.06 137.58 315.33 135.833 315.33C134.136 315.33 132.662 315.067 131.412 314.542C130.169 314.016 129.196 313.249 128.493 312.241C127.797 311.232 127.42 310.004 127.364 308.555H131.252C131.309 309.315 131.543 309.947 131.955 310.451C132.367 310.955 132.903 311.332 133.564 311.58C134.232 311.829 134.977 311.953 135.801 311.953C136.661 311.953 137.413 311.825 138.06 311.57C138.713 311.307 139.224 310.945 139.594 310.483C139.963 310.014 140.151 309.467 140.158 308.842C140.151 308.274 139.984 307.805 139.658 307.436C139.331 307.06 138.873 306.747 138.283 306.499C137.701 306.243 137.019 306.016 136.238 305.817L133.756 305.178C131.959 304.716 130.538 304.016 129.494 303.079C128.457 302.134 127.939 300.881 127.939 299.318C127.939 298.033 128.287 296.907 128.983 295.941C129.686 294.975 130.641 294.226 131.849 293.693C133.056 293.153 134.423 292.884 135.95 292.884C137.499 292.884 138.855 293.153 140.02 293.693C141.192 294.226 142.112 294.968 142.779 295.92C143.447 296.864 143.791 297.951 143.812 299.18H140.009Z" fill="#DFB022"/>
<path d="M183.97 373.727V346.455H185.717V373.727H183.97ZM189.009 355.18C188.91 354.249 188.491 353.525 187.752 353.006C187.021 352.488 186.069 352.229 184.897 352.229C184.073 352.229 183.366 352.353 182.777 352.602C182.188 352.85 181.737 353.187 181.424 353.614C181.112 354.04 180.952 354.526 180.945 355.073C180.945 355.528 181.048 355.922 181.254 356.256C181.467 356.589 181.754 356.874 182.116 357.108C182.479 357.335 182.88 357.527 183.32 357.683C183.761 357.839 184.205 357.971 184.652 358.077L186.697 358.589C187.521 358.781 188.313 359.04 189.073 359.366C189.84 359.693 190.526 360.105 191.129 360.602C191.74 361.099 192.223 361.7 192.578 362.403C192.933 363.106 193.111 363.93 193.111 364.874C193.111 366.153 192.784 367.278 192.131 368.251C191.477 369.217 190.533 369.974 189.297 370.521C188.068 371.06 186.58 371.33 184.833 371.33C183.136 371.33 181.662 371.067 180.412 370.542C179.169 370.016 178.196 369.249 177.493 368.241C176.797 367.232 176.42 366.004 176.364 364.555H180.252C180.309 365.315 180.543 365.947 180.955 366.451C181.367 366.955 181.903 367.332 182.564 367.58C183.232 367.829 183.977 367.953 184.801 367.953C185.661 367.953 186.413 367.825 187.06 367.57C187.713 367.307 188.224 366.945 188.594 366.483C188.963 366.014 189.151 365.467 189.158 364.842C189.151 364.274 188.984 363.805 188.658 363.436C188.331 363.06 187.873 362.747 187.283 362.499C186.701 362.243 186.019 362.016 185.238 361.817L182.756 361.178C180.959 360.716 179.538 360.016 178.494 359.079C177.457 358.134 176.939 356.881 176.939 355.318C176.939 354.033 177.287 352.907 177.983 351.941C178.686 350.975 179.641 350.226 180.849 349.693C182.056 349.153 183.423 348.884 184.95 348.884C186.499 348.884 187.855 349.153 189.02 349.693C190.192 350.226 191.112 350.968 191.779 351.92C192.447 352.864 192.791 353.951 192.812 355.18H189.009Z" fill="#DFB022"/>
<path d="M274.97 143.727V116.455H276.717V143.727H274.97ZM280.009 125.18C279.91 124.249 279.491 123.525 278.752 123.006C278.021 122.488 277.069 122.229 275.897 122.229C275.073 122.229 274.366 122.353 273.777 122.602C273.188 122.85 272.737 123.187 272.424 123.614C272.112 124.04 271.952 124.526 271.945 125.073C271.945 125.528 272.048 125.922 272.254 126.256C272.467 126.589 272.754 126.874 273.116 127.108C273.479 127.335 273.88 127.527 274.32 127.683C274.761 127.839 275.205 127.971 275.652 128.077L277.697 128.589C278.521 128.781 279.313 129.04 280.073 129.366C280.84 129.693 281.526 130.105 282.129 130.602C282.74 131.099 283.223 131.7 283.578 132.403C283.933 133.106 284.111 133.93 284.111 134.874C284.111 136.153 283.784 137.278 283.131 138.251C282.477 139.217 281.533 139.974 280.297 140.521C279.068 141.06 277.58 141.33 275.833 141.33C274.136 141.33 272.662 141.067 271.412 140.542C270.169 140.016 269.196 139.249 268.493 138.241C267.797 137.232 267.42 136.004 267.364 134.555H271.252C271.309 135.315 271.543 135.947 271.955 136.451C272.367 136.955 272.903 137.332 273.564 137.58C274.232 137.829 274.977 137.953 275.801 137.953C276.661 137.953 277.413 137.825 278.06 137.57C278.713 137.307 279.224 136.945 279.594 136.483C279.963 136.014 280.151 135.467 280.158 134.842C280.151 134.274 279.984 133.805 279.658 133.436C279.331 133.06 278.873 132.747 278.283 132.499C277.701 132.243 277.019 132.016 276.238 131.817L273.756 131.178C271.959 130.716 270.538 130.016 269.494 129.079C268.457 128.134 267.939 126.881 267.939 125.318C267.939 124.033 268.287 122.907 268.983 121.941C269.686 120.975 270.641 120.226 271.849 119.693C273.056 119.153 274.423 118.884 275.95 118.884C277.499 118.884 278.855 119.153 280.02 119.693C281.192 120.226 282.112 120.968 282.779 121.92C283.447 122.864 283.791 123.951 283.812 125.18H280.009Z" fill="#DFB022"/>
<path d="M225.97 199.727V172.455H227.717V199.727H225.97ZM231.009 181.18C230.91 180.249 230.491 179.525 229.752 179.006C229.021 178.488 228.069 178.229 226.897 178.229C226.073 178.229 225.366 178.353 224.777 178.602C224.188 178.85 223.737 179.187 223.424 179.614C223.112 180.04 222.952 180.526 222.945 181.073C222.945 181.528 223.048 181.922 223.254 182.256C223.467 182.589 223.754 182.874 224.116 183.108C224.479 183.335 224.88 183.527 225.32 183.683C225.761 183.839 226.205 183.971 226.652 184.077L228.697 184.589C229.521 184.781 230.313 185.04 231.073 185.366C231.84 185.693 232.526 186.105 233.129 186.602C233.74 187.099 234.223 187.7 234.578 188.403C234.933 189.106 235.111 189.93 235.111 190.874C235.111 192.153 234.784 193.278 234.131 194.251C233.477 195.217 232.533 195.974 231.297 196.521C230.068 197.06 228.58 197.33 226.833 197.33C225.136 197.33 223.662 197.067 222.412 196.542C221.169 196.016 220.196 195.249 219.493 194.241C218.797 193.232 218.42 192.004 218.364 190.555H222.252C222.309 191.315 222.543 191.947 222.955 192.451C223.367 192.955 223.903 193.332 224.564 193.58C225.232 193.829 225.977 193.953 226.801 193.953C227.661 193.953 228.413 193.825 229.06 193.57C229.713 193.307 230.224 192.945 230.594 192.483C230.963 192.014 231.151 191.467 231.158 190.842C231.151 190.274 230.984 189.805 230.658 189.436C230.331 189.06 229.873 188.747 229.283 188.499C228.701 188.243 228.019 188.016 227.238 187.817L224.756 187.178C222.959 186.716 221.538 186.016 220.494 185.079C219.457 184.134 218.939 182.881 218.939 181.318C218.939 180.033 219.287 178.907 219.983 177.941C220.686 176.975 221.641 176.226 222.849 175.693C224.056 175.153 225.423 174.884 226.95 174.884C228.499 174.884 229.855 175.153 231.02 175.693C232.192 176.226 233.112 176.968 233.779 177.92C234.447 178.864 234.791 179.951 234.812 181.18H231.009Z" fill="#DFB022"/>
<path d="M274.97 258.727V231.455H276.717V258.727H274.97ZM280.009 240.18C279.91 239.249 279.491 238.525 278.752 238.006C278.021 237.488 277.069 237.229 275.897 237.229C275.073 237.229 274.366 237.353 273.777 237.602C273.188 237.85 272.737 238.187 272.424 238.614C272.112 239.04 271.952 239.526 271.945 240.073C271.945 240.528 272.048 240.922 272.254 241.256C272.467 241.589 272.754 241.874 273.116 242.108C273.479 242.335 273.88 242.527 274.32 242.683C274.761 242.839 275.205 242.971 275.652 243.077L277.697 243.589C278.521 243.781 279.313 244.04 280.073 244.366C280.84 244.693 281.526 245.105 282.129 245.602C282.74 246.099 283.223 246.7 283.578 247.403C283.933 248.106 284.111 248.93 284.111 249.874C284.111 251.153 283.784 252.278 283.131 253.251C282.477 254.217 281.533 254.974 280.297 255.521C279.068 256.06 277.58 256.33 275.833 256.33C274.136 256.33 272.662 256.067 271.412 255.542C270.169 255.016 269.196 254.249 268.493 253.241C267.797 252.232 267.42 251.004 267.364 249.555H271.252C271.309 250.315 271.543 250.947 271.955 251.451C272.367 251.955 272.903 252.332 273.564 252.58C274.232 252.829 274.977 252.953 275.801 252.953C276.661 252.953 277.413 252.825 278.06 252.57C278.713 252.307 279.224 251.945 279.594 251.483C279.963 251.014 280.151 250.467 280.158 249.842C280.151 249.274 279.984 248.805 279.658 248.436C279.331 248.06 278.873 247.747 278.283 247.499C277.701 247.243 277.019 247.016 276.238 246.817L273.756 246.178C271.959 245.716 270.538 245.016 269.494 244.079C268.457 243.134 267.939 241.881 267.939 240.318C267.939 239.033 268.287 237.907 268.983 236.941C269.686 235.975 270.641 235.226 271.849 234.693C273.056 234.153 274.423 233.884 275.95 233.884C277.499 233.884 278.855 234.153 280.02 234.693C281.192 235.226 282.112 235.968 282.779 236.92C283.447 237.864 283.791 238.951 283.812 240.18H280.009Z" fill="#DFB022"/>
<path d="M225.97 317.727V290.455H227.717V317.727H225.97ZM231.009 299.18C230.91 298.249 230.491 297.525 229.752 297.006C229.021 296.488 228.069 296.229 226.897 296.229C226.073 296.229 225.366 296.353 224.777 296.602C224.188 296.85 223.737 297.187 223.424 297.614C223.112 298.04 222.952 298.526 222.945 299.073C222.945 299.528 223.048 299.922 223.254 300.256C223.467 300.589 223.754 300.874 224.116 301.108C224.479 301.335 224.88 301.527 225.32 301.683C225.761 301.839 226.205 301.971 226.652 302.077L228.697 302.589C229.521 302.781 230.313 303.04 231.073 303.366C231.84 303.693 232.526 304.105 233.129 304.602C233.74 305.099 234.223 305.7 234.578 306.403C234.933 307.106 235.111 307.93 235.111 308.874C235.111 310.153 234.784 311.278 234.131 312.251C233.477 313.217 232.533 313.974 231.297 314.521C230.068 315.06 228.58 315.33 226.833 315.33C225.136 315.33 223.662 315.067 222.412 314.542C221.169 314.016 220.196 313.249 219.493 312.241C218.797 311.232 218.42 310.004 218.364 308.555H222.252C222.309 309.315 222.543 309.947 222.955 310.451C223.367 310.955 223.903 311.332 224.564 311.58C225.232 311.829 225.977 311.953 226.801 311.953C227.661 311.953 228.413 311.825 229.06 311.57C229.713 311.307 230.224 310.945 230.594 310.483C230.963 310.014 231.151 309.467 231.158 308.842C231.151 308.274 230.984 307.805 230.658 307.436C230.331 307.06 229.873 306.747 229.283 306.499C228.701 306.243 228.019 306.016 227.238 305.817L224.756 305.178C222.959 304.716 221.538 304.016 220.494 303.079C219.457 302.134 218.939 300.881 218.939 299.318C218.939 298.033 219.287 296.907 219.983 295.941C220.686 294.975 221.641 294.226 222.849 293.693C224.056 293.153 225.423 292.884 226.95 292.884C228.499 292.884 229.855 293.153 231.02 293.693C232.192 294.226 233.112 294.968 233.779 295.92C234.447 296.864 234.791 297.951 234.812 299.18H231.009Z" fill="#DFB022"/>
<path d="M274.97 373.727V346.455H276.717V373.727H274.97ZM280.009 355.18C279.91 354.249 279.491 353.525 278.752 353.006C278.021 352.488 277.069 352.229 275.897 352.229C275.073 352.229 274.366 352.353 273.777 352.602C273.188 352.85 272.737 353.187 272.424 353.614C272.112 354.04 271.952 354.526 271.945 355.073C271.945 355.528 272.048 355.922 272.254 356.256C272.467 356.589 272.754 356.874 273.116 357.108C273.479 357.335 273.88 357.527 274.32 357.683C274.761 357.839 275.205 357.971 275.652 358.077L277.697 358.589C278.521 358.781 279.313 359.04 280.073 359.366C280.84 359.693 281.526 360.105 282.129 360.602C282.74 361.099 283.223 361.7 283.578 362.403C283.933 363.106 284.111 363.93 284.111 364.874C284.111 366.153 283.784 367.278 283.131 368.251C282.477 369.217 281.533 369.974 280.297 370.521C279.068 371.06 277.58 371.33 275.833 371.33C274.136 371.33 272.662 371.067 271.412 370.542C270.169 370.016 269.196 369.249 268.493 368.241C267.797 367.232 267.42 366.004 267.364 364.555H271.252C271.309 365.315 271.543 365.947 271.955 366.451C272.367 366.955 272.903 367.332 273.564 367.58C274.232 367.829 274.977 367.953 275.801 367.953C276.661 367.953 277.413 367.825 278.06 367.57C278.713 367.307 279.224 366.945 279.594 366.483C279.963 366.014 280.151 365.467 280.158 364.842C280.151 364.274 279.984 363.805 279.658 363.436C279.331 363.06 278.873 362.747 278.283 362.499C277.701 362.243 277.019 362.016 276.238 361.817L273.756 361.178C271.959 360.716 270.538 360.016 269.494 359.079C268.457 358.134 267.939 356.881 267.939 355.318C267.939 354.033 268.287 352.907 268.983 351.941C269.686 350.975 270.641 350.226 271.849 349.693C273.056 349.153 274.423 348.884 275.95 348.884C277.499 348.884 278.855 349.153 280.02 349.693C281.192 350.226 282.112 350.968 282.779 351.92C283.447 352.864 283.791 353.951 283.812 355.18H280.009Z" fill="#DFB022"/>
<path d="M365.97 143.727V116.455H367.717V143.727H365.97ZM371.009 125.18C370.91 124.249 370.491 123.525 369.752 123.006C369.021 122.488 368.069 122.229 366.897 122.229C366.073 122.229 365.366 122.353 364.777 122.602C364.188 122.85 363.737 123.187 363.424 123.614C363.112 124.04 362.952 124.526 362.945 125.073C362.945 125.528 363.048 125.922 363.254 126.256C363.467 126.589 363.754 126.874 364.116 127.108C364.479 127.335 364.88 127.527 365.32 127.683C365.761 127.839 366.205 127.971 366.652 128.077L368.697 128.589C369.521 128.781 370.313 129.04 371.073 129.366C371.84 129.693 372.526 130.105 373.129 130.602C373.74 131.099 374.223 131.7 374.578 132.403C374.933 133.106 375.111 133.93 375.111 134.874C375.111 136.153 374.784 137.278 374.131 138.251C373.477 139.217 372.533 139.974 371.297 140.521C370.068 141.06 368.58 141.33 366.833 141.33C365.136 141.33 363.662 141.067 362.412 140.542C361.169 140.016 360.196 139.249 359.493 138.241C358.797 137.232 358.42 136.004 358.364 134.555H362.252C362.309 135.315 362.543 135.947 362.955 136.451C363.367 136.955 363.903 137.332 364.564 137.58C365.232 137.829 365.977 137.953 366.801 137.953C367.661 137.953 368.413 137.825 369.06 137.57C369.713 137.307 370.224 136.945 370.594 136.483C370.963 136.014 371.151 135.467 371.158 134.842C371.151 134.274 370.984 133.805 370.658 133.436C370.331 133.06 369.873 132.747 369.283 132.499C368.701 132.243 368.019 132.016 367.238 131.817L364.756 131.178C362.959 130.716 361.538 130.016 360.494 129.079C359.457 128.134 358.939 126.881 358.939 125.318C358.939 124.033 359.287 122.907 359.983 121.941C360.686 120.975 361.641 120.226 362.849 119.693C364.056 119.153 365.423 118.884 366.95 118.884C368.499 118.884 369.855 119.153 371.02 119.693C372.192 120.226 373.112 120.968 373.779 121.92C374.447 122.864 374.791 123.951 374.812 125.18H371.009Z" fill="#DFB022"/>
<path d="M316.97 199.727V172.455H318.717V199.727H316.97ZM322.009 181.18C321.91 180.249 321.491 179.525 320.752 179.006C320.021 178.488 319.069 178.229 317.897 178.229C317.073 178.229 316.366 178.353 315.777 178.602C315.188 178.85 314.737 179.187 314.424 179.614C314.112 180.04 313.952 180.526 313.945 181.073C313.945 181.528 314.048 181.922 314.254 182.256C314.467 182.589 314.754 182.874 315.116 183.108C315.479 183.335 315.88 183.527 316.32 183.683C316.761 183.839 317.205 183.971 317.652 184.077L319.697 184.589C320.521 184.781 321.313 185.04 322.073 185.366C322.84 185.693 323.526 186.105 324.129 186.602C324.74 187.099 325.223 187.7 325.578 188.403C325.933 189.106 326.111 189.93 326.111 190.874C326.111 192.153 325.784 193.278 325.131 194.251C324.477 195.217 323.533 195.974 322.297 196.521C321.068 197.06 319.58 197.33 317.833 197.33C316.136 197.33 314.662 197.067 313.412 196.542C312.169 196.016 311.196 195.249 310.493 194.241C309.797 193.232 309.42 192.004 309.364 190.555H313.252C313.309 191.315 313.543 191.947 313.955 192.451C314.367 192.955 314.903 193.332 315.564 193.58C316.232 193.829 316.977 193.953 317.801 193.953C318.661 193.953 319.413 193.825 320.06 193.57C320.713 193.307 321.224 192.945 321.594 192.483C321.963 192.014 322.151 191.467 322.158 190.842C322.151 190.274 321.984 189.805 321.658 189.436C321.331 189.06 320.873 188.747 320.283 188.499C319.701 188.243 319.019 188.016 318.238 187.817L315.756 187.178C313.959 186.716 312.538 186.016 311.494 185.079C310.457 184.134 309.939 182.881 309.939 181.318C309.939 180.033 310.287 178.907 310.983 177.941C311.686 176.975 312.641 176.226 313.849 175.693C315.056 175.153 316.423 174.884 317.95 174.884C319.499 174.884 320.855 175.153 322.02 175.693C323.192 176.226 324.112 176.968 324.779 177.92C325.447 178.864 325.791 179.951 325.812 181.18H322.009Z" fill="#DFB022"/>
<path d="M365.97 258.727V231.455H367.717V258.727H365.97ZM371.009 240.18C370.91 239.249 370.491 238.525 369.752 238.006C369.021 237.488 368.069 237.229 366.897 237.229C366.073 237.229 365.366 237.353 364.777 237.602C364.188 237.85 363.737 238.187 363.424 238.614C363.112 239.04 362.952 239.526 362.945 240.073C362.945 240.528 363.048 240.922 363.254 241.256C363.467 241.589 363.754 241.874 364.116 242.108C364.479 242.335 364.88 242.527 365.32 242.683C365.761 242.839 366.205 242.971 366.652 243.077L368.697 243.589C369.521 243.781 370.313 244.04 371.073 244.366C371.84 244.693 372.526 245.105 373.129 245.602C373.74 246.099 374.223 246.7 374.578 247.403C374.933 248.106 375.111 248.93 375.111 249.874C375.111 251.153 374.784 252.278 374.131 253.251C373.477 254.217 372.533 254.974 371.297 255.521C370.068 256.06 368.58 256.33 366.833 256.33C365.136 256.33 363.662 256.067 362.412 255.542C361.169 255.016 360.196 254.249 359.493 253.241C358.797 252.232 358.42 251.004 358.364 249.555H362.252C362.309 250.315 362.543 250.947 362.955 251.451C363.367 251.955 363.903 252.332 364.564 252.58C365.232 252.829 365.977 252.953 366.801 252.953C367.661 252.953 368.413 252.825 369.06 252.57C369.713 252.307 370.224 251.945 370.594 251.483C370.963 251.014 371.151 250.467 371.158 249.842C371.151 249.274 370.984 248.805 370.658 248.436C370.331 248.06 369.873 247.747 369.283 247.499C368.701 247.243 368.019 247.016 367.238 246.817L364.756 246.178C362.959 245.716 361.538 245.016 360.494 244.079C359.457 243.134 358.939 241.881 358.939 240.318C358.939 239.033 359.287 237.907 359.983 236.941C360.686 235.975 361.641 235.226 362.849 234.693C364.056 234.153 365.423 233.884 366.95 233.884C368.499 233.884 369.855 234.153 371.02 234.693C372.192 235.226 373.112 235.968 373.779 236.92C374.447 237.864 374.791 238.951 374.812 240.18H371.009Z" fill="#DFB022"/>
<path d="M316.97 317.727V290.455H318.717V317.727H316.97ZM322.009 299.18C321.91 298.249 321.491 297.525 320.752 297.006C320.021 296.488 319.069 296.229 317.897 296.229C317.073 296.229 316.366 296.353 315.777 296.602C315.188 296.85 314.737 297.187 314.424 297.614C314.112 298.04 313.952 298.526 313.945 299.073C313.945 299.528 314.048 299.922 314.254 300.256C314.467 300.589 314.754 300.874 315.116 301.108C315.479 301.335 315.88 301.527 316.32 301.683C316.761 301.839 317.205 301.971 317.652 302.077L319.697 302.589C320.521 302.781 321.313 303.04 322.073 303.366C322.84 303.693 323.526 304.105 324.129 304.602C324.74 305.099 325.223 305.7 325.578 306.403C325.933 307.106 326.111 307.93 326.111 308.874C326.111 310.153 325.784 311.278 325.131 312.251C324.477 313.217 323.533 313.974 322.297 314.521C321.068 315.06 319.58 315.33 317.833 315.33C316.136 315.33 314.662 315.067 313.412 314.542C312.169 314.016 311.196 313.249 310.493 312.241C309.797 311.232 309.42 310.004 309.364 308.555H313.252C313.309 309.315 313.543 309.947 313.955 310.451C314.367 310.955 314.903 311.332 315.564 311.58C316.232 311.829 316.977 311.953 317.801 311.953C318.661 311.953 319.413 311.825 320.06 311.57C320.713 311.307 321.224 310.945 321.594 310.483C321.963 310.014 322.151 309.467 322.158 308.842C322.151 308.274 321.984 307.805 321.658 307.436C321.331 307.06 320.873 306.747 320.283 306.499C319.701 306.243 319.019 306.016 318.238 305.817L315.756 305.178C313.959 304.716 312.538 304.016 311.494 303.079C310.457 302.134 309.939 300.881 309.939 299.318C309.939 298.033 310.287 296.907 310.983 295.941C311.686 294.975 312.641 294.226 313.849 293.693C315.056 293.153 316.423 292.884 317.95 292.884C319.499 292.884 320.855 293.153 322.02 293.693C323.192 294.226 324.112 294.968 324.779 295.92C325.447 296.864 325.791 297.951 325.812 299.18H322.009Z" fill="#DFB022"/>
<path d="M365.97 373.727V346.455H367.717V373.727H365.97ZM371.009 355.18C370.91 354.249 370.491 353.525 369.752 353.006C369.021 352.488 368.069 352.229 366.897 352.229C366.073 352.229 365.366 352.353 364.777 352.602C364.188 352.85 363.737 353.187 363.424 353.614C363.112 354.04 362.952 354.526 362.945 355.073C362.945 355.528 363.048 355.922 363.254 356.256C363.467 356.589 363.754 356.874 364.116 357.108C364.479 357.335 364.88 357.527 365.32 357.683C365.761 357.839 366.205 357.971 366.652 358.077L368.697 358.589C369.521 358.781 370.313 359.04 371.073 359.366C371.84 359.693 372.526 360.105 373.129 360.602C373.74 361.099 374.223 361.7 374.578 362.403C374.933 363.106 375.111 363.93 375.111 364.874C375.111 366.153 374.784 367.278 374.131 368.251C373.477 369.217 372.533 369.974 371.297 370.521C370.068 371.06 368.58 371.33 366.833 371.33C365.136 371.33 363.662 371.067 362.412 370.542C361.169 370.016 360.196 369.249 359.493 368.241C358.797 367.232 358.42 366.004 358.364 364.555H362.252C362.309 365.315 362.543 365.947 362.955 366.451C363.367 366.955 363.903 367.332 364.564 367.58C365.232 367.829 365.977 367.953 366.801 367.953C367.661 367.953 368.413 367.825 369.06 367.57C369.713 367.307 370.224 366.945 370.594 366.483C370.963 366.014 371.151 365.467 371.158 364.842C371.151 364.274 370.984 363.805 370.658 363.436C370.331 363.06 369.873 362.747 369.283 362.499C368.701 362.243 368.019 362.016 367.238 361.817L364.756 361.178C362.959 360.716 361.538 360.016 360.494 359.079C359.457 358.134 358.939 356.881 358.939 355.318C358.939 354.033 359.287 352.907 359.983 351.941C360.686 350.975 361.641 350.226 362.849 349.693C364.056 349.153 365.423 348.884 366.95 348.884C368.499 348.884 369.855 349.153 371.02 349.693C372.192 350.226 373.112 350.968 373.779 351.92C374.447 352.864 374.791 353.951 374.812 355.18H371.009Z" fill="#DFB022"/>
<path d="M463.97 143.727V116.455H465.717V143.727H463.97ZM469.009 125.18C468.91 124.249 468.491 123.525 467.752 123.006C467.021 122.488 466.069 122.229 464.897 122.229C464.073 122.229 463.366 122.353 462.777 122.602C462.188 122.85 461.737 123.187 461.424 123.614C461.112 124.04 460.952 124.526 460.945 125.073C460.945 125.528 461.048 125.922 461.254 126.256C461.467 126.589 461.754 126.874 462.116 127.108C462.479 127.335 462.88 127.527 463.32 127.683C463.761 127.839 464.205 127.971 464.652 128.077L466.697 128.589C467.521 128.781 468.313 129.04 469.073 129.366C469.84 129.693 470.526 130.105 471.129 130.602C471.74 131.099 472.223 131.7 472.578 132.403C472.933 133.106 473.111 133.93 473.111 134.874C473.111 136.153 472.784 137.278 472.131 138.251C471.477 139.217 470.533 139.974 469.297 140.521C468.068 141.06 466.58 141.33 464.833 141.33C463.136 141.33 461.662 141.067 460.412 140.542C459.169 140.016 458.196 139.249 457.493 138.241C456.797 137.232 456.42 136.004 456.364 134.555H460.252C460.309 135.315 460.543 135.947 460.955 136.451C461.367 136.955 461.903 137.332 462.564 137.58C463.232 137.829 463.977 137.953 464.801 137.953C465.661 137.953 466.413 137.825 467.06 137.57C467.713 137.307 468.224 136.945 468.594 136.483C468.963 136.014 469.151 135.467 469.158 134.842C469.151 134.274 468.984 133.805 468.658 133.436C468.331 133.06 467.873 132.747 467.283 132.499C466.701 132.243 466.019 132.016 465.238 131.817L462.756 131.178C460.959 130.716 459.538 130.016 458.494 129.079C457.457 128.134 456.939 126.881 456.939 125.318C456.939 124.033 457.287 122.907 457.983 121.941C458.686 120.975 459.641 120.226 460.849 119.693C462.056 119.153 463.423 118.884 464.95 118.884C466.499 118.884 467.855 119.153 469.02 119.693C470.192 120.226 471.112 120.968 471.779 121.92C472.447 122.864 472.791 123.951 472.812 125.18H469.009Z" fill="#DFB022"/>
<path d="M414.97 199.727V172.455H416.717V199.727H414.97ZM420.009 181.18C419.91 180.249 419.491 179.525 418.752 179.006C418.021 178.488 417.069 178.229 415.897 178.229C415.073 178.229 414.366 178.353 413.777 178.602C413.188 178.85 412.737 179.187 412.424 179.614C412.112 180.04 411.952 180.526 411.945 181.073C411.945 181.528 412.048 181.922 412.254 182.256C412.467 182.589 412.754 182.874 413.116 183.108C413.479 183.335 413.88 183.527 414.32 183.683C414.761 183.839 415.205 183.971 415.652 184.077L417.697 184.589C418.521 184.781 419.313 185.04 420.073 185.366C420.84 185.693 421.526 186.105 422.129 186.602C422.74 187.099 423.223 187.7 423.578 188.403C423.933 189.106 424.111 189.93 424.111 190.874C424.111 192.153 423.784 193.278 423.131 194.251C422.477 195.217 421.533 195.974 420.297 196.521C419.068 197.06 417.58 197.33 415.833 197.33C414.136 197.33 412.662 197.067 411.412 196.542C410.169 196.016 409.196 195.249 408.493 194.241C407.797 193.232 407.42 192.004 407.364 190.555H411.252C411.309 191.315 411.543 191.947 411.955 192.451C412.367 192.955 412.903 193.332 413.564 193.58C414.232 193.829 414.977 193.953 415.801 193.953C416.661 193.953 417.413 193.825 418.06 193.57C418.713 193.307 419.224 192.945 419.594 192.483C419.963 192.014 420.151 191.467 420.158 190.842C420.151 190.274 419.984 189.805 419.658 189.436C419.331 189.06 418.873 188.747 418.283 188.499C417.701 188.243 417.019 188.016 416.238 187.817L413.756 187.178C411.959 186.716 410.538 186.016 409.494 185.079C408.457 184.134 407.939 182.881 407.939 181.318C407.939 180.033 408.287 178.907 408.983 177.941C409.686 176.975 410.641 176.226 411.849 175.693C413.056 175.153 414.423 174.884 415.95 174.884C417.499 174.884 418.855 175.153 420.02 175.693C421.192 176.226 422.112 176.968 422.779 177.92C423.447 178.864 423.791 179.951 423.812 181.18H420.009Z" fill="#DFB022"/>
<path d="M463.97 258.727V231.455H465.717V258.727H463.97ZM469.009 240.18C468.91 239.249 468.491 238.525 467.752 238.006C467.021 237.488 466.069 237.229 464.897 237.229C464.073 237.229 463.366 237.353 462.777 237.602C462.188 237.85 461.737 238.187 461.424 238.614C461.112 239.04 460.952 239.526 460.945 240.073C460.945 240.528 461.048 240.922 461.254 241.256C461.467 241.589 461.754 241.874 462.116 242.108C462.479 242.335 462.88 242.527 463.32 242.683C463.761 242.839 464.205 242.971 464.652 243.077L466.697 243.589C467.521 243.781 468.313 244.04 469.073 244.366C469.84 244.693 470.526 245.105 471.129 245.602C471.74 246.099 472.223 246.7 472.578 247.403C472.933 248.106 473.111 248.93 473.111 249.874C473.111 251.153 472.784 252.278 472.131 253.251C471.477 254.217 470.533 254.974 469.297 255.521C468.068 256.06 466.58 256.33 464.833 256.33C463.136 256.33 461.662 256.067 460.412 255.542C459.169 255.016 458.196 254.249 457.493 253.241C456.797 252.232 456.42 251.004 456.364 249.555H460.252C460.309 250.315 460.543 250.947 460.955 251.451C461.367 251.955 461.903 252.332 462.564 252.58C463.232 252.829 463.977 252.953 464.801 252.953C465.661 252.953 466.413 252.825 467.06 252.57C467.713 252.307 468.224 251.945 468.594 251.483C468.963 251.014 469.151 250.467 469.158 249.842C469.151 249.274 468.984 248.805 468.658 248.436C468.331 248.06 467.873 247.747 467.283 247.499C466.701 247.243 466.019 247.016 465.238 246.817L462.756 246.178C460.959 245.716 459.538 245.016 458.494 244.079C457.457 243.134 456.939 241.881 456.939 240.318C456.939 239.033 457.287 237.907 457.983 236.941C458.686 235.975 459.641 235.226 460.849 234.693C462.056 234.153 463.423 233.884 464.95 233.884C466.499 233.884 467.855 234.153 469.02 234.693C470.192 235.226 471.112 235.968 471.779 236.92C472.447 237.864 472.791 238.951 472.812 240.18H469.009Z" fill="#DFB022"/>
<path d="M414.97 317.727V290.455H416.717V317.727H414.97ZM420.009 299.18C419.91 298.249 419.491 297.525 418.752 297.006C418.021 296.488 417.069 296.229 415.897 296.229C415.073 296.229 414.366 296.353 413.777 296.602C413.188 296.85 412.737 297.187 412.424 297.614C412.112 298.04 411.952 298.526 411.945 299.073C411.945 299.528 412.048 299.922 412.254 300.256C412.467 300.589 412.754 300.874 413.116 301.108C413.479 301.335 413.88 301.527 414.32 301.683C414.761 301.839 415.205 301.971 415.652 302.077L417.697 302.589C418.521 302.781 419.313 303.04 420.073 303.366C420.84 303.693 421.526 304.105 422.129 304.602C422.74 305.099 423.223 305.7 423.578 306.403C423.933 307.106 424.111 307.93 424.111 308.874C424.111 310.153 423.784 311.278 423.131 312.251C422.477 313.217 421.533 313.974 420.297 314.521C419.068 315.06 417.58 315.33 415.833 315.33C414.136 315.33 412.662 315.067 411.412 314.542C410.169 314.016 409.196 313.249 408.493 312.241C407.797 311.232 407.42 310.004 407.364 308.555H411.252C411.309 309.315 411.543 309.947 411.955 310.451C412.367 310.955 412.903 311.332 413.564 311.58C414.232 311.829 414.977 311.953 415.801 311.953C416.661 311.953 417.413 311.825 418.06 311.57C418.713 311.307 419.224 310.945 419.594 310.483C419.963 310.014 420.151 309.467 420.158 308.842C420.151 308.274 419.984 307.805 419.658 307.436C419.331 307.06 418.873 306.747 418.283 306.499C417.701 306.243 417.019 306.016 416.238 305.817L413.756 305.178C411.959 304.716 410.538 304.016 409.494 303.079C408.457 302.134 407.939 300.881 407.939 299.318C407.939 298.033 408.287 296.907 408.983 295.941C409.686 294.975 410.641 294.226 411.849 293.693C413.056 293.153 414.423 292.884 415.95 292.884C417.499 292.884 418.855 293.153 420.02 293.693C421.192 294.226 422.112 294.968 422.779 295.92C423.447 296.864 423.791 297.951 423.812 299.18H420.009Z" fill="#DFB022"/>
<path d="M463.97 373.727V346.455H465.717V373.727H463.97ZM469.009 355.18C468.91 354.249 468.491 353.525 467.752 353.006C467.021 352.488 466.069 352.229 464.897 352.229C464.073 352.229 463.366 352.353 462.777 352.602C462.188 352.85 461.737 353.187 461.424 353.614C461.112 354.04 460.952 354.526 460.945 355.073C460.945 355.528 461.048 355.922 461.254 356.256C461.467 356.589 461.754 356.874 462.116 357.108C462.479 357.335 462.88 357.527 463.32 357.683C463.761 357.839 464.205 357.971 464.652 358.077L466.697 358.589C467.521 358.781 468.313 359.04 469.073 359.366C469.84 359.693 470.526 360.105 471.129 360.602C471.74 361.099 472.223 361.7 472.578 362.403C472.933 363.106 473.111 363.93 473.111 364.874C473.111 366.153 472.784 367.278 472.131 368.251C471.477 369.217 470.533 369.974 469.297 370.521C468.068 371.06 466.58 371.33 464.833 371.33C463.136 371.33 461.662 371.067 460.412 370.542C459.169 370.016 458.196 369.249 457.493 368.241C456.797 367.232 456.42 366.004 456.364 364.555H460.252C460.309 365.315 460.543 365.947 460.955 366.451C461.367 366.955 461.903 367.332 462.564 367.58C463.232 367.829 463.977 367.953 464.801 367.953C465.661 367.953 466.413 367.825 467.06 367.57C467.713 367.307 468.224 366.945 468.594 366.483C468.963 366.014 469.151 365.467 469.158 364.842C469.151 364.274 468.984 363.805 468.658 363.436C468.331 363.06 467.873 362.747 467.283 362.499C466.701 362.243 466.019 362.016 465.238 361.817L462.756 361.178C460.959 360.716 459.538 360.016 458.494 359.079C457.457 358.134 456.939 356.881 456.939 355.318C456.939 354.033 457.287 352.907 457.983 351.941C458.686 350.975 459.641 350.226 460.849 349.693C462.056 349.153 463.423 348.884 464.95 348.884C466.499 348.884 467.855 349.153 469.02 349.693C470.192 350.226 471.112 350.968 471.779 351.92C472.447 352.864 472.791 353.951 472.812 355.18H469.009Z" fill="#DFB022"/>
<path d="M554.97 143.727V116.455H556.717V143.727H554.97ZM560.009 125.18C559.91 124.249 559.491 123.525 558.752 123.006C558.021 122.488 557.069 122.229 555.897 122.229C555.073 122.229 554.366 122.353 553.777 122.602C553.188 122.85 552.737 123.187 552.424 123.614C552.112 124.04 551.952 124.526 551.945 125.073C551.945 125.528 552.048 125.922 552.254 126.256C552.467 126.589 552.754 126.874 553.116 127.108C553.479 127.335 553.88 127.527 554.32 127.683C554.761 127.839 555.205 127.971 555.652 128.077L557.697 128.589C558.521 128.781 559.313 129.04 560.073 129.366C560.84 129.693 561.526 130.105 562.129 130.602C562.74 131.099 563.223 131.7 563.578 132.403C563.933 133.106 564.111 133.93 564.111 134.874C564.111 136.153 563.784 137.278 563.131 138.251C562.477 139.217 561.533 139.974 560.297 140.521C559.068 141.06 557.58 141.33 555.833 141.33C554.136 141.33 552.662 141.067 551.412 140.542C550.169 140.016 549.196 139.249 548.493 138.241C547.797 137.232 547.42 136.004 547.364 134.555H551.252C551.309 135.315 551.543 135.947 551.955 136.451C552.367 136.955 552.903 137.332 553.564 137.58C554.232 137.829 554.977 137.953 555.801 137.953C556.661 137.953 557.413 137.825 558.06 137.57C558.713 137.307 559.224 136.945 559.594 136.483C559.963 136.014 560.151 135.467 560.158 134.842C560.151 134.274 559.984 133.805 559.658 133.436C559.331 133.06 558.873 132.747 558.283 132.499C557.701 132.243 557.019 132.016 556.238 131.817L553.756 131.178C551.959 130.716 550.538 130.016 549.494 129.079C548.457 128.134 547.939 126.881 547.939 125.318C547.939 124.033 548.287 122.907 548.983 121.941C549.686 120.975 550.641 120.226 551.849 119.693C553.056 119.153 554.423 118.884 555.95 118.884C557.499 118.884 558.855 119.153 560.02 119.693C561.192 120.226 562.112 120.968 562.779 121.92C563.447 122.864 563.791 123.951 563.812 125.18H560.009Z" fill="#DFB022"/>
<path d="M505.97 199.727V172.455H507.717V199.727H505.97ZM511.009 181.18C510.91 180.249 510.491 179.525 509.752 179.006C509.021 178.488 508.069 178.229 506.897 178.229C506.073 178.229 505.366 178.353 504.777 178.602C504.188 178.85 503.737 179.187 503.424 179.614C503.112 180.04 502.952 180.526 502.945 181.073C502.945 181.528 503.048 181.922 503.254 182.256C503.467 182.589 503.754 182.874 504.116 183.108C504.479 183.335 504.88 183.527 505.32 183.683C505.761 183.839 506.205 183.971 506.652 184.077L508.697 184.589C509.521 184.781 510.313 185.04 511.073 185.366C511.84 185.693 512.526 186.105 513.129 186.602C513.74 187.099 514.223 187.7 514.578 188.403C514.933 189.106 515.111 189.93 515.111 190.874C515.111 192.153 514.784 193.278 514.131 194.251C513.477 195.217 512.533 195.974 511.297 196.521C510.068 197.06 508.58 197.33 506.833 197.33C505.136 197.33 503.662 197.067 502.412 196.542C501.169 196.016 500.196 195.249 499.493 194.241C498.797 193.232 498.42 192.004 498.364 190.555H502.252C502.309 191.315 502.543 191.947 502.955 192.451C503.367 192.955 503.903 193.332 504.564 193.58C505.232 193.829 505.977 193.953 506.801 193.953C507.661 193.953 508.413 193.825 509.06 193.57C509.713 193.307 510.224 192.945 510.594 192.483C510.963 192.014 511.151 191.467 511.158 190.842C511.151 190.274 510.984 189.805 510.658 189.436C510.331 189.06 509.873 188.747 509.283 188.499C508.701 188.243 508.019 188.016 507.238 187.817L504.756 187.178C502.959 186.716 501.538 186.016 500.494 185.079C499.457 184.134 498.939 182.881 498.939 181.318C498.939 180.033 499.287 178.907 499.983 177.941C500.686 176.975 501.641 176.226 502.849 175.693C504.056 175.153 505.423 174.884 506.95 174.884C508.499 174.884 509.855 175.153 511.02 175.693C512.192 176.226 513.112 176.968 513.779 177.92C514.447 178.864 514.791 179.951 514.812 181.18H511.009Z" fill="#DFB022"/>
<path d="M554.97 258.727V231.455H556.717V258.727H554.97ZM560.009 240.18C559.91 239.249 559.491 238.525 558.752 238.006C558.021 237.488 557.069 237.229 555.897 237.229C555.073 237.229 554.366 237.353 553.777 237.602C553.188 237.85 552.737 238.187 552.424 238.614C552.112 239.04 551.952 239.526 551.945 240.073C551.945 240.528 552.048 240.922 552.254 241.256C552.467 241.589 552.754 241.874 553.116 242.108C553.479 242.335 553.88 242.527 554.32 242.683C554.761 242.839 555.205 242.971 555.652 243.077L557.697 243.589C558.521 243.781 559.313 244.04 560.073 244.366C560.84 244.693 561.526 245.105 562.129 245.602C562.74 246.099 563.223 246.7 563.578 247.403C563.933 248.106 564.111 248.93 564.111 249.874C564.111 251.153 563.784 252.278 563.131 253.251C562.477 254.217 561.533 254.974 560.297 255.521C559.068 256.06 557.58 256.33 555.833 256.33C554.136 256.33 552.662 256.067 551.412 255.542C550.169 255.016 549.196 254.249 548.493 253.241C547.797 252.232 547.42 251.004 547.364 249.555H551.252C551.309 250.315 551.543 250.947 551.955 251.451C552.367 251.955 552.903 252.332 553.564 252.58C554.232 252.829 554.977 252.953 555.801 252.953C556.661 252.953 557.413 252.825 558.06 252.57C558.713 252.307 559.224 251.945 559.594 251.483C559.963 251.014 560.151 250.467 560.158 249.842C560.151 249.274 559.984 248.805 559.658 248.436C559.331 248.06 558.873 247.747 558.283 247.499C557.701 247.243 557.019 247.016 556.238 246.817L553.756 246.178C551.959 245.716 550.538 245.016 549.494 244.079C548.457 243.134 547.939 241.881 547.939 240.318C547.939 239.033 548.287 237.907 548.983 236.941C549.686 235.975 550.641 235.226 551.849 234.693C553.056 234.153 554.423 233.884 555.95 233.884C557.499 233.884 558.855 234.153 560.02 234.693C561.192 235.226 562.112 235.968 562.779 236.92C563.447 237.864 563.791 238.951 563.812 240.18H560.009Z" fill="#DFB022"/>
<path d="M505.97 317.727V290.455H507.717V317.727H505.97ZM511.009 299.18C510.91 298.249 510.491 297.525 509.752 297.006C509.021 296.488 508.069 296.229 506.897 296.229C506.073 296.229 505.366 296.353 504.777 296.602C504.188 296.85 503.737 297.187 503.424 297.614C503.112 298.04 502.952 298.526 502.945 299.073C502.945 299.528 503.048 299.922 503.254 300.256C503.467 300.589 503.754 300.874 504.116 301.108C504.479 301.335 504.88 301.527 505.32 301.683C505.761 301.839 506.205 301.971 506.652 302.077L508.697 302.589C509.521 302.781 510.313 303.04 511.073 303.366C511.84 303.693 512.526 304.105 513.129 304.602C513.74 305.099 514.223 305.7 514.578 306.403C514.933 307.106 515.111 307.93 515.111 308.874C515.111 310.153 514.784 311.278 514.131 312.251C513.477 313.217 512.533 313.974 511.297 314.521C510.068 315.06 508.58 315.33 506.833 315.33C505.136 315.33 503.662 315.067 502.412 314.542C501.169 314.016 500.196 313.249 499.493 312.241C498.797 311.232 498.42 310.004 498.364 308.555H502.252C502.309 309.315 502.543 309.947 502.955 310.451C503.367 310.955 503.903 311.332 504.564 311.58C505.232 311.829 505.977 311.953 506.801 311.953C507.661 311.953 508.413 311.825 509.06 311.57C509.713 311.307 510.224 310.945 510.594 310.483C510.963 310.014 511.151 309.467 511.158 308.842C511.151 308.274 510.984 307.805 510.658 307.436C510.331 307.06 509.873 306.747 509.283 306.499C508.701 306.243 508.019 306.016 507.238 305.817L504.756 305.178C502.959 304.716 501.538 304.016 500.494 303.079C499.457 302.134 498.939 300.881 498.939 299.318C498.939 298.033 499.287 296.907 499.983 295.941C500.686 294.975 501.641 294.226 502.849 293.693C504.056 293.153 505.423 292.884 506.95 292.884C508.499 292.884 509.855 293.153 511.02 293.693C512.192 294.226 513.112 294.968 513.779 295.92C514.447 296.864 514.791 297.951 514.812 299.18H511.009Z" fill="#DFB022"/>
<path d="M554.97 373.727V346.455H556.717V373.727H554.97ZM560.009 355.18C559.91 354.249 559.491 353.525 558.752 353.006C558.021 352.488 557.069 352.229 555.897 352.229C555.073 352.229 554.366 352.353 553.777 352.602C553.188 352.85 552.737 353.187 552.424 353.614C552.112 354.04 551.952 354.526 551.945 355.073C551.945 355.528 552.048 355.922 552.254 356.256C552.467 356.589 552.754 356.874 553.116 357.108C553.479 357.335 553.88 357.527 554.32 357.683C554.761 357.839 555.205 357.971 555.652 358.077L557.697 358.589C558.521 358.781 559.313 359.04 560.073 359.366C560.84 359.693 561.526 360.105 562.129 360.602C562.74 361.099 563.223 361.7 563.578 362.403C563.933 363.106 564.111 363.93 564.111 364.874C564.111 366.153 563.784 367.278 563.131 368.251C562.477 369.217 561.533 369.974 560.297 370.521C559.068 371.06 557.58 371.33 555.833 371.33C554.136 371.33 552.662 371.067 551.412 370.542C550.169 370.016 549.196 369.249 548.493 368.241C547.797 367.232 547.42 366.004 547.364 364.555H551.252C551.309 365.315 551.543 365.947 551.955 366.451C552.367 366.955 552.903 367.332 553.564 367.58C554.232 367.829 554.977 367.953 555.801 367.953C556.661 367.953 557.413 367.825 558.06 367.57C558.713 367.307 559.224 366.945 559.594 366.483C559.963 366.014 560.151 365.467 560.158 364.842C560.151 364.274 559.984 363.805 559.658 363.436C559.331 363.06 558.873 362.747 558.283 362.499C557.701 362.243 557.019 362.016 556.238 361.817L553.756 361.178C551.959 360.716 550.538 360.016 549.494 359.079C548.457 358.134 547.939 356.881 547.939 355.318C547.939 354.033 548.287 352.907 548.983 351.941C549.686 350.975 550.641 350.226 551.849 349.693C553.056 349.153 554.423 348.884 555.95 348.884C557.499 348.884 558.855 349.153 560.02 349.693C561.192 350.226 562.112 350.968 562.779 351.92C563.447 352.864 563.791 353.951 563.812 355.18H560.009Z" fill="#DFB022"/>
<path d="M645.97 143.727V116.455H647.717V143.727H645.97ZM651.009 125.18C650.91 124.249 650.491 123.525 649.752 123.006C649.021 122.488 648.069 122.229 646.897 122.229C646.073 122.229 645.366 122.353 644.777 122.602C644.188 122.85 643.737 123.187 643.424 123.614C643.112 124.04 642.952 124.526 642.945 125.073C642.945 125.528 643.048 125.922 643.254 126.256C643.467 126.589 643.754 126.874 644.116 127.108C644.479 127.335 644.88 127.527 645.32 127.683C645.761 127.839 646.205 127.971 646.652 128.077L648.697 128.589C649.521 128.781 650.313 129.04 651.073 129.366C651.84 129.693 652.526 130.105 653.129 130.602C653.74 131.099 654.223 131.7 654.578 132.403C654.933 133.106 655.111 133.93 655.111 134.874C655.111 136.153 654.784 137.278 654.131 138.251C653.477 139.217 652.533 139.974 651.297 140.521C650.068 141.06 648.58 141.33 646.833 141.33C645.136 141.33 643.662 141.067 642.412 140.542C641.169 140.016 640.196 139.249 639.493 138.241C638.797 137.232 638.42 136.004 638.364 134.555H642.252C642.309 135.315 642.543 135.947 642.955 136.451C643.367 136.955 643.903 137.332 644.564 137.58C645.232 137.829 645.977 137.953 646.801 137.953C647.661 137.953 648.413 137.825 649.06 137.57C649.713 137.307 650.224 136.945 650.594 136.483C650.963 136.014 651.151 135.467 651.158 134.842C651.151 134.274 650.984 133.805 650.658 133.436C650.331 133.06 649.873 132.747 649.283 132.499C648.701 132.243 648.019 132.016 647.238 131.817L644.756 131.178C642.959 130.716 641.538 130.016 640.494 129.079C639.457 128.134 638.939 126.881 638.939 125.318C638.939 124.033 639.287 122.907 639.983 121.941C640.686 120.975 641.641 120.226 642.849 119.693C644.056 119.153 645.423 118.884 646.95 118.884C648.499 118.884 649.855 119.153 651.02 119.693C652.192 120.226 653.112 120.968 653.779 121.92C654.447 122.864 654.791 123.951 654.812 125.18H651.009Z" fill="#DFB022"/>
<path d="M596.97 199.727V172.455H598.717V199.727H596.97ZM602.009 181.18C601.91 180.249 601.491 179.525 600.752 179.006C600.021 178.488 599.069 178.229 597.897 178.229C597.073 178.229 596.366 178.353 595.777 178.602C595.188 178.85 594.737 179.187 594.424 179.614C594.112 180.04 593.952 180.526 593.945 181.073C593.945 181.528 594.048 181.922 594.254 182.256C594.467 182.589 594.754 182.874 595.116 183.108C595.479 183.335 595.88 183.527 596.32 183.683C596.761 183.839 597.205 183.971 597.652 184.077L599.697 184.589C600.521 184.781 601.313 185.04 602.073 185.366C602.84 185.693 603.526 186.105 604.129 186.602C604.74 187.099 605.223 187.7 605.578 188.403C605.933 189.106 606.111 189.93 606.111 190.874C606.111 192.153 605.784 193.278 605.131 194.251C604.477 195.217 603.533 195.974 602.297 196.521C601.068 197.06 599.58 197.33 597.833 197.33C596.136 197.33 594.662 197.067 593.412 196.542C592.169 196.016 591.196 195.249 590.493 194.241C589.797 193.232 589.42 192.004 589.364 190.555H593.252C593.309 191.315 593.543 191.947 593.955 192.451C594.367 192.955 594.903 193.332 595.564 193.58C596.232 193.829 596.977 193.953 597.801 193.953C598.661 193.953 599.413 193.825 600.06 193.57C600.713 193.307 601.224 192.945 601.594 192.483C601.963 192.014 602.151 191.467 602.158 190.842C602.151 190.274 601.984 189.805 601.658 189.436C601.331 189.06 600.873 188.747 600.283 188.499C599.701 188.243 599.019 188.016 598.238 187.817L595.756 187.178C593.959 186.716 592.538 186.016 591.494 185.079C590.457 184.134 589.939 182.881 589.939 181.318C589.939 180.033 590.287 178.907 590.983 177.941C591.686 176.975 592.641 176.226 593.849 175.693C595.056 175.153 596.423 174.884 597.95 174.884C599.499 174.884 600.855 175.153 602.02 175.693C603.192 176.226 604.112 176.968 604.779 177.92C605.447 178.864 605.791 179.951 605.812 181.18H602.009Z" fill="#DFB022"/>
<path d="M645.97 258.727V231.455H647.717V258.727H645.97ZM651.009 240.18C650.91 239.249 650.491 238.525 649.752 238.006C649.021 237.488 648.069 237.229 646.897 237.229C646.073 237.229 645.366 237.353 644.777 237.602C644.188 237.85 643.737 238.187 643.424 238.614C643.112 239.04 642.952 239.526 642.945 240.073C642.945 240.528 643.048 240.922 643.254 241.256C643.467 241.589 643.754 241.874 644.116 242.108C644.479 242.335 644.88 242.527 645.32 242.683C645.761 242.839 646.205 242.971 646.652 243.077L648.697 243.589C649.521 243.781 650.313 244.04 651.073 244.366C651.84 244.693 652.526 245.105 653.129 245.602C653.74 246.099 654.223 246.7 654.578 247.403C654.933 248.106 655.111 248.93 655.111 249.874C655.111 251.153 654.784 252.278 654.131 253.251C653.477 254.217 652.533 254.974 651.297 255.521C650.068 256.06 648.58 256.33 646.833 256.33C645.136 256.33 643.662 256.067 642.412 255.542C641.169 255.016 640.196 254.249 639.493 253.241C638.797 252.232 638.42 251.004 638.364 249.555H642.252C642.309 250.315 642.543 250.947 642.955 251.451C643.367 251.955 643.903 252.332 644.564 252.58C645.232 252.829 645.977 252.953 646.801 252.953C647.661 252.953 648.413 252.825 649.06 252.57C649.713 252.307 650.224 251.945 650.594 251.483C650.963 251.014 651.151 250.467 651.158 249.842C651.151 249.274 650.984 248.805 650.658 248.436C650.331 248.06 649.873 247.747 649.283 247.499C648.701 247.243 648.019 247.016 647.238 246.817L644.756 246.178C642.959 245.716 641.538 245.016 640.494 244.079C639.457 243.134 638.939 241.881 638.939 240.318C638.939 239.033 639.287 237.907 639.983 236.941C640.686 235.975 641.641 235.226 642.849 234.693C644.056 234.153 645.423 233.884 646.95 233.884C648.499 233.884 649.855 234.153 651.02 234.693C652.192 235.226 653.112 235.968 653.779 236.92C654.447 237.864 654.791 238.951 654.812 240.18H651.009Z" fill="#DFB022"/>
<path d="M596.97 317.727V290.455H598.717V317.727H596.97ZM602.009 299.18C601.91 298.249 601.491 297.525 600.752 297.006C600.021 296.488 599.069 296.229 597.897 296.229C597.073 296.229 596.366 296.353 595.777 296.602C595.188 296.85 594.737 297.187 594.424 297.614C594.112 298.04 593.952 298.526 593.945 299.073C593.945 299.528 594.048 299.922 594.254 300.256C594.467 300.589 594.754 300.874 595.116 301.108C595.479 301.335 595.88 301.527 596.32 301.683C596.761 301.839 597.205 301.971 597.652 302.077L599.697 302.589C600.521 302.781 601.313 303.04 602.073 303.366C602.84 303.693 603.526 304.105 604.129 304.602C604.74 305.099 605.223 305.7 605.578 306.403C605.933 307.106 606.111 307.93 606.111 308.874C606.111 310.153 605.784 311.278 605.131 312.251C604.477 313.217 603.533 313.974 602.297 314.521C601.068 315.06 599.58 315.33 597.833 315.33C596.136 315.33 594.662 315.067 593.412 314.542C592.169 314.016 591.196 313.249 590.493 312.241C589.797 311.232 589.42 310.004 589.364 308.555H593.252C593.309 309.315 593.543 309.947 593.955 310.451C594.367 310.955 594.903 311.332 595.564 311.58C596.232 311.829 596.977 311.953 597.801 311.953C598.661 311.953 599.413 311.825 600.06 311.57C600.713 311.307 601.224 310.945 601.594 310.483C601.963 310.014 602.151 309.467 602.158 308.842C602.151 308.274 601.984 307.805 601.658 307.436C601.331 307.06 600.873 306.747 600.283 306.499C599.701 306.243 599.019 306.016 598.238 305.817L595.756 305.178C593.959 304.716 592.538 304.016 591.494 303.079C590.457 302.134 589.939 300.881 589.939 299.318C589.939 298.033 590.287 296.907 590.983 295.941C591.686 294.975 592.641 294.226 593.849 293.693C595.056 293.153 596.423 292.884 597.95 292.884C599.499 292.884 600.855 293.153 602.02 293.693C603.192 294.226 604.112 294.968 604.779 295.92C605.447 296.864 605.791 297.951 605.812 299.18H602.009Z" fill="#DFB022"/>
<path d="M645.97 373.727V346.455H647.717V373.727H645.97ZM651.009 355.18C650.91 354.249 650.491 353.525 649.752 353.006C649.021 352.488 648.069 352.229 646.897 352.229C646.073 352.229 645.366 352.353 644.777 352.602C644.188 352.85 643.737 353.187 643.424 353.614C643.112 354.04 642.952 354.526 642.945 355.073C642.945 355.528 643.048 355.922 643.254 356.256C643.467 356.589 643.754 356.874 644.116 357.108C644.479 357.335 644.88 357.527 645.32 357.683C645.761 357.839 646.205 357.971 646.652 358.077L648.697 358.589C649.521 358.781 650.313 359.04 651.073 359.366C651.84 359.693 652.526 360.105 653.129 360.602C653.74 361.099 654.223 361.7 654.578 362.403C654.933 363.106 655.111 363.93 655.111 364.874C655.111 366.153 654.784 367.278 654.131 368.251C653.477 369.217 652.533 369.974 651.297 370.521C650.068 371.06 648.58 371.33 646.833 371.33C645.136 371.33 643.662 371.067 642.412 370.542C641.169 370.016 640.196 369.249 639.493 368.241C638.797 367.232 638.42 366.004 638.364 364.555H642.252C642.309 365.315 642.543 365.947 642.955 366.451C643.367 366.955 643.903 367.332 644.564 367.58C645.232 367.829 645.977 367.953 646.801 367.953C647.661 367.953 648.413 367.825 649.06 367.57C649.713 367.307 650.224 366.945 650.594 366.483C650.963 366.014 651.151 365.467 651.158 364.842C651.151 364.274 650.984 363.805 650.658 363.436C650.331 363.06 649.873 362.747 649.283 362.499C648.701 362.243 648.019 362.016 647.238 361.817L644.756 361.178C642.959 360.716 641.538 360.016 640.494 359.079C639.457 358.134 638.939 356.881 638.939 355.318C638.939 354.033 639.287 352.907 639.983 351.941C640.686 350.975 641.641 350.226 642.849 349.693C644.056 349.153 645.423 348.884 646.95 348.884C648.499 348.884 649.855 349.153 651.02 349.693C652.192 350.226 653.112 350.968 653.779 351.92C654.447 352.864 654.791 353.951 654.812 355.18H651.009Z" fill="#DFB022"/>
<path d="M736.97 143.727V116.455H738.717V143.727H736.97ZM742.009 125.18C741.91 124.249 741.491 123.525 740.752 123.006C740.021 122.488 739.069 122.229 737.897 122.229C737.073 122.229 736.366 122.353 735.777 122.602C735.188 122.85 734.737 123.187 734.424 123.614C734.112 124.04 733.952 124.526 733.945 125.073C733.945 125.528 734.048 125.922 734.254 126.256C734.467 126.589 734.754 126.874 735.116 127.108C735.479 127.335 735.88 127.527 736.32 127.683C736.761 127.839 737.205 127.971 737.652 128.077L739.697 128.589C740.521 128.781 741.313 129.04 742.073 129.366C742.84 129.693 743.526 130.105 744.129 130.602C744.74 131.099 745.223 131.7 745.578 132.403C745.933 133.106 746.111 133.93 746.111 134.874C746.111 136.153 745.784 137.278 745.131 138.251C744.477 139.217 743.533 139.974 742.297 140.521C741.068 141.06 739.58 141.33 737.833 141.33C736.136 141.33 734.662 141.067 733.412 140.542C732.169 140.016 731.196 139.249 730.493 138.241C729.797 137.232 729.42 136.004 729.364 134.555H733.252C733.309 135.315 733.543 135.947 733.955 136.451C734.367 136.955 734.903 137.332 735.564 137.58C736.232 137.829 736.977 137.953 737.801 137.953C738.661 137.953 739.413 137.825 740.06 137.57C740.713 137.307 741.224 136.945 741.594 136.483C741.963 136.014 742.151 135.467 742.158 134.842C742.151 134.274 741.984 133.805 741.658 133.436C741.331 133.06 740.873 132.747 740.283 132.499C739.701 132.243 739.019 132.016 738.238 131.817L735.756 131.178C733.959 130.716 732.538 130.016 731.494 129.079C730.457 128.134 729.939 126.881 729.939 125.318C729.939 124.033 730.287 122.907 730.983 121.941C731.686 120.975 732.641 120.226 733.849 119.693C735.056 119.153 736.423 118.884 737.95 118.884C739.499 118.884 740.855 119.153 742.02 119.693C743.192 120.226 744.112 120.968 744.779 121.92C745.447 122.864 745.791 123.951 745.812 125.18H742.009Z" fill="#DFB022"/>
<path d="M687.97 199.727V172.455H689.717V199.727H687.97ZM693.009 181.18C692.91 180.249 692.491 179.525 691.752 179.006C691.021 178.488 690.069 178.229 688.897 178.229C688.073 178.229 687.366 178.353 686.777 178.602C686.188 178.85 685.737 179.187 685.424 179.614C685.112 180.04 684.952 180.526 684.945 181.073C684.945 181.528 685.048 181.922 685.254 182.256C685.467 182.589 685.754 182.874 686.116 183.108C686.479 183.335 686.88 183.527 687.32 183.683C687.761 183.839 688.205 183.971 688.652 184.077L690.697 184.589C691.521 184.781 692.313 185.04 693.073 185.366C693.84 185.693 694.526 186.105 695.129 186.602C695.74 187.099 696.223 187.7 696.578 188.403C696.933 189.106 697.111 189.93 697.111 190.874C697.111 192.153 696.784 193.278 696.131 194.251C695.477 195.217 694.533 195.974 693.297 196.521C692.068 197.06 690.58 197.33 688.833 197.33C687.136 197.33 685.662 197.067 684.412 196.542C683.169 196.016 682.196 195.249 681.493 194.241C680.797 193.232 680.42 192.004 680.364 190.555H684.252C684.309 191.315 684.543 191.947 684.955 192.451C685.367 192.955 685.903 193.332 686.564 193.58C687.232 193.829 687.977 193.953 688.801 193.953C689.661 193.953 690.413 193.825 691.06 193.57C691.713 193.307 692.224 192.945 692.594 192.483C692.963 192.014 693.151 191.467 693.158 190.842C693.151 190.274 692.984 189.805 692.658 189.436C692.331 189.06 691.873 188.747 691.283 188.499C690.701 188.243 690.019 188.016 689.238 187.817L686.756 187.178C684.959 186.716 683.538 186.016 682.494 185.079C681.457 184.134 680.939 182.881 680.939 181.318C680.939 180.033 681.287 178.907 681.983 177.941C682.686 176.975 683.641 176.226 684.849 175.693C686.056 175.153 687.423 174.884 688.95 174.884C690.499 174.884 691.855 175.153 693.02 175.693C694.192 176.226 695.112 176.968 695.779 177.92C696.447 178.864 696.791 179.951 696.812 181.18H693.009Z" fill="#DFB022"/>
<path d="M736.97 258.727V231.455H738.717V258.727H736.97ZM742.009 240.18C741.91 239.249 741.491 238.525 740.752 238.006C740.021 237.488 739.069 237.229 737.897 237.229C737.073 237.229 736.366 237.353 735.777 237.602C735.188 237.85 734.737 238.187 734.424 238.614C734.112 239.04 733.952 239.526 733.945 240.073C733.945 240.528 734.048 240.922 734.254 241.256C734.467 241.589 734.754 241.874 735.116 242.108C735.479 242.335 735.88 242.527 736.32 242.683C736.761 242.839 737.205 242.971 737.652 243.077L739.697 243.589C740.521 243.781 741.313 244.04 742.073 244.366C742.84 244.693 743.526 245.105 744.129 245.602C744.74 246.099 745.223 246.7 745.578 247.403C745.933 248.106 746.111 248.93 746.111 249.874C746.111 251.153 745.784 252.278 745.131 253.251C744.477 254.217 743.533 254.974 742.297 255.521C741.068 256.06 739.58 256.33 737.833 256.33C736.136 256.33 734.662 256.067 733.412 255.542C732.169 255.016 731.196 254.249 730.493 253.241C729.797 252.232 729.42 251.004 729.364 249.555H733.252C733.309 250.315 733.543 250.947 733.955 251.451C734.367 251.955 734.903 252.332 735.564 252.58C736.232 252.829 736.977 252.953 737.801 252.953C738.661 252.953 739.413 252.825 740.06 252.57C740.713 252.307 741.224 251.945 741.594 251.483C741.963 251.014 742.151 250.467 742.158 249.842C742.151 249.274 741.984 248.805 741.658 248.436C741.331 248.06 740.873 247.747 740.283 247.499C739.701 247.243 739.019 247.016 738.238 246.817L735.756 246.178C733.959 245.716 732.538 245.016 731.494 244.079C730.457 243.134 729.939 241.881 729.939 240.318C729.939 239.033 730.287 237.907 730.983 236.941C731.686 235.975 732.641 235.226 733.849 234.693C735.056 234.153 736.423 233.884 737.95 233.884C739.499 233.884 740.855 234.153 742.02 234.693C743.192 235.226 744.112 235.968 744.779 236.92C745.447 237.864 745.791 238.951 745.812 240.18H742.009Z" fill="#DFB022"/>
<path d="M687.97 317.727V290.455H689.717V317.727H687.97ZM693.009 299.18C692.91 298.249 692.491 297.525 691.752 297.006C691.021 296.488 690.069 296.229 688.897 296.229C688.073 296.229 687.366 296.353 686.777 296.602C686.188 296.85 685.737 297.187 685.424 297.614C685.112 298.04 684.952 298.526 684.945 299.073C684.945 299.528 685.048 299.922 685.254 300.256C685.467 300.589 685.754 300.874 686.116 301.108C686.479 301.335 686.88 301.527 687.32 301.683C687.761 301.839 688.205 301.971 688.652 302.077L690.697 302.589C691.521 302.781 692.313 303.04 693.073 303.366C693.84 303.693 694.526 304.105 695.129 304.602C695.74 305.099 696.223 305.7 696.578 306.403C696.933 307.106 697.111 307.93 697.111 308.874C697.111 310.153 696.784 311.278 696.131 312.251C695.477 313.217 694.533 313.974 693.297 314.521C692.068 315.06 690.58 315.33 688.833 315.33C687.136 315.33 685.662 315.067 684.412 314.542C683.169 314.016 682.196 313.249 681.493 312.241C680.797 311.232 680.42 310.004 680.364 308.555H684.252C684.309 309.315 684.543 309.947 684.955 310.451C685.367 310.955 685.903 311.332 686.564 311.58C687.232 311.829 687.977 311.953 688.801 311.953C689.661 311.953 690.413 311.825 691.06 311.57C691.713 311.307 692.224 310.945 692.594 310.483C692.963 310.014 693.151 309.467 693.158 308.842C693.151 308.274 692.984 307.805 692.658 307.436C692.331 307.06 691.873 306.747 691.283 306.499C690.701 306.243 690.019 306.016 689.238 305.817L686.756 305.178C684.959 304.716 683.538 304.016 682.494 303.079C681.457 302.134 680.939 300.881 680.939 299.318C680.939 298.033 681.287 296.907 681.983 295.941C682.686 294.975 683.641 294.226 684.849 293.693C686.056 293.153 687.423 292.884 688.95 292.884C690.499 292.884 691.855 293.153 693.02 293.693C694.192 294.226 695.112 294.968 695.779 295.92C696.447 296.864 696.791 297.951 696.812 299.18H693.009Z" fill="#DFB022"/>
<path d="M736.97 373.727V346.455H738.717V373.727H736.97ZM742.009 355.18C741.91 354.249 741.491 353.525 740.752 353.006C740.021 352.488 739.069 352.229 737.897 352.229C737.073 352.229 736.366 352.353 735.777 352.602C735.188 352.85 734.737 353.187 734.424 353.614C734.112 354.04 733.952 354.526 733.945 355.073C733.945 355.528 734.048 355.922 734.254 356.256C734.467 356.589 734.754 356.874 735.116 357.108C735.479 357.335 735.88 357.527 736.32 357.683C736.761 357.839 737.205 357.971 737.652 358.077L739.697 358.589C740.521 358.781 741.313 359.04 742.073 359.366C742.84 359.693 743.526 360.105 744.129 360.602C744.74 361.099 745.223 361.7 745.578 362.403C745.933 363.106 746.111 363.93 746.111 364.874C746.111 366.153 745.784 367.278 745.131 368.251C744.477 369.217 743.533 369.974 742.297 370.521C741.068 371.06 739.58 371.33 737.833 371.33C736.136 371.33 734.662 371.067 733.412 370.542C732.169 370.016 731.196 369.249 730.493 368.241C729.797 367.232 729.42 366.004 729.364 364.555H733.252C733.309 365.315 733.543 365.947 733.955 366.451C734.367 366.955 734.903 367.332 735.564 367.58C736.232 367.829 736.977 367.953 737.801 367.953C738.661 367.953 739.413 367.825 740.06 367.57C740.713 367.307 741.224 366.945 741.594 366.483C741.963 366.014 742.151 365.467 742.158 364.842C742.151 364.274 741.984 363.805 741.658 363.436C741.331 363.06 740.873 362.747 740.283 362.499C739.701 362.243 739.019 362.016 738.238 361.817L735.756 361.178C733.959 360.716 732.538 360.016 731.494 359.079C730.457 358.134 729.939 356.881 729.939 355.318C729.939 354.033 730.287 352.907 730.983 351.941C731.686 350.975 732.641 350.226 733.849 349.693C735.056 349.153 736.423 348.884 737.95 348.884C739.499 348.884 740.855 349.153 742.02 349.693C743.192 350.226 744.112 350.968 744.779 351.92C745.447 352.864 745.791 353.951 745.812 355.18H742.009Z" fill="#DFB022"/>
<path d="M834.97 143.727V116.455H836.717V143.727H834.97ZM840.009 125.18C839.91 124.249 839.491 123.525 838.752 123.006C838.021 122.488 837.069 122.229 835.897 122.229C835.073 122.229 834.366 122.353 833.777 122.602C833.188 122.85 832.737 123.187 832.424 123.614C832.112 124.04 831.952 124.526 831.945 125.073C831.945 125.528 832.048 125.922 832.254 126.256C832.467 126.589 832.754 126.874 833.116 127.108C833.479 127.335 833.88 127.527 834.32 127.683C834.761 127.839 835.205 127.971 835.652 128.077L837.697 128.589C838.521 128.781 839.313 129.04 840.073 129.366C840.84 129.693 841.526 130.105 842.129 130.602C842.74 131.099 843.223 131.7 843.578 132.403C843.933 133.106 844.111 133.93 844.111 134.874C844.111 136.153 843.784 137.278 843.131 138.251C842.477 139.217 841.533 139.974 840.297 140.521C839.068 141.06 837.58 141.33 835.833 141.33C834.136 141.33 832.662 141.067 831.412 140.542C830.169 140.016 829.196 139.249 828.493 138.241C827.797 137.232 827.42 136.004 827.364 134.555H831.252C831.309 135.315 831.543 135.947 831.955 136.451C832.367 136.955 832.903 137.332 833.564 137.58C834.232 137.829 834.977 137.953 835.801 137.953C836.661 137.953 837.413 137.825 838.06 137.57C838.713 137.307 839.224 136.945 839.594 136.483C839.963 136.014 840.151 135.467 840.158 134.842C840.151 134.274 839.984 133.805 839.658 133.436C839.331 133.06 838.873 132.747 838.283 132.499C837.701 132.243 837.019 132.016 836.238 131.817L833.756 131.178C831.959 130.716 830.538 130.016 829.494 129.079C828.457 128.134 827.939 126.881 827.939 125.318C827.939 124.033 828.287 122.907 828.983 121.941C829.686 120.975 830.641 120.226 831.849 119.693C833.056 119.153 834.423 118.884 835.95 118.884C837.499 118.884 838.855 119.153 840.02 119.693C841.192 120.226 842.112 120.968 842.779 121.92C843.447 122.864 843.791 123.951 843.812 125.18H840.009Z" fill="#DFB022"/>
<path d="M785.97 199.727V172.455H787.717V199.727H785.97ZM791.009 181.18C790.91 180.249 790.491 179.525 789.752 179.006C789.021 178.488 788.069 178.229 786.897 178.229C786.073 178.229 785.366 178.353 784.777 178.602C784.188 178.85 783.737 179.187 783.424 179.614C783.112 180.04 782.952 180.526 782.945 181.073C782.945 181.528 783.048 181.922 783.254 182.256C783.467 182.589 783.754 182.874 784.116 183.108C784.479 183.335 784.88 183.527 785.32 183.683C785.761 183.839 786.205 183.971 786.652 184.077L788.697 184.589C789.521 184.781 790.313 185.04 791.073 185.366C791.84 185.693 792.526 186.105 793.129 186.602C793.74 187.099 794.223 187.7 794.578 188.403C794.933 189.106 795.111 189.93 795.111 190.874C795.111 192.153 794.784 193.278 794.131 194.251C793.477 195.217 792.533 195.974 791.297 196.521C790.068 197.06 788.58 197.33 786.833 197.33C785.136 197.33 783.662 197.067 782.412 196.542C781.169 196.016 780.196 195.249 779.493 194.241C778.797 193.232 778.42 192.004 778.364 190.555H782.252C782.309 191.315 782.543 191.947 782.955 192.451C783.367 192.955 783.903 193.332 784.564 193.58C785.232 193.829 785.977 193.953 786.801 193.953C787.661 193.953 788.413 193.825 789.06 193.57C789.713 193.307 790.224 192.945 790.594 192.483C790.963 192.014 791.151 191.467 791.158 190.842C791.151 190.274 790.984 189.805 790.658 189.436C790.331 189.06 789.873 188.747 789.283 188.499C788.701 188.243 788.019 188.016 787.238 187.817L784.756 187.178C782.959 186.716 781.538 186.016 780.494 185.079C779.457 184.134 778.939 182.881 778.939 181.318C778.939 180.033 779.287 178.907 779.983 177.941C780.686 176.975 781.641 176.226 782.849 175.693C784.056 175.153 785.423 174.884 786.95 174.884C788.499 174.884 789.855 175.153 791.02 175.693C792.192 176.226 793.112 176.968 793.779 177.92C794.447 178.864 794.791 179.951 794.812 181.18H791.009Z" fill="#DFB022"/>
<path d="M834.97 258.727V231.455H836.717V258.727H834.97ZM840.009 240.18C839.91 239.249 839.491 238.525 838.752 238.006C838.021 237.488 837.069 237.229 835.897 237.229C835.073 237.229 834.366 237.353 833.777 237.602C833.188 237.85 832.737 238.187 832.424 238.614C832.112 239.04 831.952 239.526 831.945 240.073C831.945 240.528 832.048 240.922 832.254 241.256C832.467 241.589 832.754 241.874 833.116 242.108C833.479 242.335 833.88 242.527 834.32 242.683C834.761 242.839 835.205 242.971 835.652 243.077L837.697 243.589C838.521 243.781 839.313 244.04 840.073 244.366C840.84 244.693 841.526 245.105 842.129 245.602C842.74 246.099 843.223 246.7 843.578 247.403C843.933 248.106 844.111 248.93 844.111 249.874C844.111 251.153 843.784 252.278 843.131 253.251C842.477 254.217 841.533 254.974 840.297 255.521C839.068 256.06 837.58 256.33 835.833 256.33C834.136 256.33 832.662 256.067 831.412 255.542C830.169 255.016 829.196 254.249 828.493 253.241C827.797 252.232 827.42 251.004 827.364 249.555H831.252C831.309 250.315 831.543 250.947 831.955 251.451C832.367 251.955 832.903 252.332 833.564 252.58C834.232 252.829 834.977 252.953 835.801 252.953C836.661 252.953 837.413 252.825 838.06 252.57C838.713 252.307 839.224 251.945 839.594 251.483C839.963 251.014 840.151 250.467 840.158 249.842C840.151 249.274 839.984 248.805 839.658 248.436C839.331 248.06 838.873 247.747 838.283 247.499C837.701 247.243 837.019 247.016 836.238 246.817L833.756 246.178C831.959 245.716 830.538 245.016 829.494 244.079C828.457 243.134 827.939 241.881 827.939 240.318C827.939 239.033 828.287 237.907 828.983 236.941C829.686 235.975 830.641 235.226 831.849 234.693C833.056 234.153 834.423 233.884 835.95 233.884C837.499 233.884 838.855 234.153 840.02 234.693C841.192 235.226 842.112 235.968 842.779 236.92C843.447 237.864 843.791 238.951 843.812 240.18H840.009Z" fill="#DFB022"/>
<path d="M785.97 317.727V290.455H787.717V317.727H785.97ZM791.009 299.18C790.91 298.249 790.491 297.525 789.752 297.006C789.021 296.488 788.069 296.229 786.897 296.229C786.073 296.229 785.366 296.353 784.777 296.602C784.188 296.85 783.737 297.187 783.424 297.614C783.112 298.04 782.952 298.526 782.945 299.073C782.945 299.528 783.048 299.922 783.254 300.256C783.467 300.589 783.754 300.874 784.116 301.108C784.479 301.335 784.88 301.527 785.32 301.683C785.761 301.839 786.205 301.971 786.652 302.077L788.697 302.589C789.521 302.781 790.313 303.04 791.073 303.366C791.84 303.693 792.526 304.105 793.129 304.602C793.74 305.099 794.223 305.7 794.578 306.403C794.933 307.106 795.111 307.93 795.111 308.874C795.111 310.153 794.784 311.278 794.131 312.251C793.477 313.217 792.533 313.974 791.297 314.521C790.068 315.06 788.58 315.33 786.833 315.33C785.136 315.33 783.662 315.067 782.412 314.542C781.169 314.016 780.196 313.249 779.493 312.241C778.797 311.232 778.42 310.004 778.364 308.555H782.252C782.309 309.315 782.543 309.947 782.955 310.451C783.367 310.955 783.903 311.332 784.564 311.58C785.232 311.829 785.977 311.953 786.801 311.953C787.661 311.953 788.413 311.825 789.06 311.57C789.713 311.307 790.224 310.945 790.594 310.483C790.963 310.014 791.151 309.467 791.158 308.842C791.151 308.274 790.984 307.805 790.658 307.436C790.331 307.06 789.873 306.747 789.283 306.499C788.701 306.243 788.019 306.016 787.238 305.817L784.756 305.178C782.959 304.716 781.538 304.016 780.494 303.079C779.457 302.134 778.939 300.881 778.939 299.318C778.939 298.033 779.287 296.907 779.983 295.941C780.686 294.975 781.641 294.226 782.849 293.693C784.056 293.153 785.423 292.884 786.95 292.884C788.499 292.884 789.855 293.153 791.02 293.693C792.192 294.226 793.112 294.968 793.779 295.92C794.447 296.864 794.791 297.951 794.812 299.18H791.009Z" fill="#DFB022"/>
<path d="M834.97 373.727V346.455H836.717V373.727H834.97ZM840.009 355.18C839.91 354.249 839.491 353.525 838.752 353.006C838.021 352.488 837.069 352.229 835.897 352.229C835.073 352.229 834.366 352.353 833.777 352.602C833.188 352.85 832.737 353.187 832.424 353.614C832.112 354.04 831.952 354.526 831.945 355.073C831.945 355.528 832.048 355.922 832.254 356.256C832.467 356.589 832.754 356.874 833.116 357.108C833.479 357.335 833.88 357.527 834.32 357.683C834.761 357.839 835.205 357.971 835.652 358.077L837.697 358.589C838.521 358.781 839.313 359.04 840.073 359.366C840.84 359.693 841.526 360.105 842.129 360.602C842.74 361.099 843.223 361.7 843.578 362.403C843.933 363.106 844.111 363.93 844.111 364.874C844.111 366.153 843.784 367.278 843.131 368.251C842.477 369.217 841.533 369.974 840.297 370.521C839.068 371.06 837.58 371.33 835.833 371.33C834.136 371.33 832.662 371.067 831.412 370.542C830.169 370.016 829.196 369.249 828.493 368.241C827.797 367.232 827.42 366.004 827.364 364.555H831.252C831.309 365.315 831.543 365.947 831.955 366.451C832.367 366.955 832.903 367.332 833.564 367.58C834.232 367.829 834.977 367.953 835.801 367.953C836.661 367.953 837.413 367.825 838.06 367.57C838.713 367.307 839.224 366.945 839.594 366.483C839.963 366.014 840.151 365.467 840.158 364.842C840.151 364.274 839.984 363.805 839.658 363.436C839.331 363.06 838.873 362.747 838.283 362.499C837.701 362.243 837.019 362.016 836.238 361.817L833.756 361.178C831.959 360.716 830.538 360.016 829.494 359.079C828.457 358.134 827.939 356.881 827.939 355.318C827.939 354.033 828.287 352.907 828.983 351.941C829.686 350.975 830.641 350.226 831.849 349.693C833.056 349.153 834.423 348.884 835.95 348.884C837.499 348.884 838.855 349.153 840.02 349.693C841.192 350.226 842.112 350.968 842.779 351.92C843.447 352.864 843.791 353.951 843.812 355.18H840.009Z" fill="#DFB022"/>
</svg>
