<svg width="648" height="358" viewBox="0 0 648 358" fill="none" xmlns="http://www.w3.org/2000/svg">
<rect width="648" height="358" fill="#CCCCCC" fill-opacity="0.8"/>
<path d="M36.4318 55.2727V22.5455H38.5284V55.2727H36.4318ZM43.4886 32.3636C43.3352 31.0682 42.7131 30.0625 41.6222 29.3466C40.5313 28.6307 39.1932 28.2727 37.608 28.2727C36.4489 28.2727 35.4347 28.4602 34.5653 28.8352C33.7045 29.2102 33.0313 29.7259 32.5455 30.3821C32.0682 31.0384 31.8295 31.7841 31.8295 32.6193C31.8295 33.3182 31.9957 33.919 32.3281 34.4219C32.669 34.9162 33.1037 35.3295 33.6321 35.6619C34.1605 35.9858 34.7145 36.2543 35.294 36.4673C35.8736 36.6719 36.4062 36.8381 36.892 36.9659L39.5511 37.6818C40.233 37.8608 40.9915 38.108 41.8267 38.4233C42.6705 38.7386 43.4759 39.169 44.2429 39.7145C45.0185 40.2514 45.6577 40.9418 46.1605 41.7855C46.6634 42.6293 46.9148 43.6648 46.9148 44.892C46.9148 46.3068 46.544 47.5852 45.8026 48.7273C45.0696 49.8693 43.9957 50.777 42.581 51.4503C41.1747 52.1236 39.4659 52.4602 37.4545 52.4602C35.5795 52.4602 33.956 52.1577 32.5838 51.5526C31.2202 50.9474 30.1463 50.1037 29.3622 49.0213C28.5866 47.9389 28.1477 46.6818 28.0455 45.25H31.3182C31.4034 46.2386 31.7358 47.0568 32.3153 47.7045C32.9034 48.3437 33.6449 48.821 34.5398 49.1364C35.4432 49.4432 36.4148 49.5966 37.4545 49.5966C38.6648 49.5966 39.7514 49.4006 40.7145 49.0085C41.6776 48.608 42.4403 48.054 43.0028 47.3466C43.5653 46.6307 43.8466 45.7955 43.8466 44.8409C43.8466 43.9716 43.6037 43.2642 43.1179 42.7188C42.6321 42.1733 41.9929 41.7301 41.2003 41.3892C40.4077 41.0483 39.5511 40.75 38.6307 40.4943L35.4091 39.5739C33.3636 38.9858 31.7443 38.1463 30.5511 37.0554C29.358 35.9645 28.7614 34.5369 28.7614 32.7727C28.7614 31.3068 29.1577 30.0284 29.9503 28.9375C30.7514 27.8381 31.8253 26.9858 33.1719 26.3807C34.527 25.767 36.0398 25.4602 37.7102 25.4602C39.3977 25.4602 40.8977 25.7628 42.2102 26.3679C43.5227 26.9645 44.5625 27.7827 45.3295 28.8224C46.1051 29.8622 46.5142 31.0426 46.5568 32.3636H43.4886Z" fill="white"/>
<path d="M63.4318 134.273V101.545H65.5284V134.273H63.4318ZM70.4886 111.364C70.3352 110.068 69.7131 109.062 68.6222 108.347C67.5313 107.631 66.1932 107.273 64.608 107.273C63.4489 107.273 62.4347 107.46 61.5653 107.835C60.7045 108.21 60.0313 108.726 59.5455 109.382C59.0682 110.038 58.8295 110.784 58.8295 111.619C58.8295 112.318 58.9957 112.919 59.3281 113.422C59.669 113.916 60.1037 114.33 60.6321 114.662C61.1605 114.986 61.7145 115.254 62.294 115.467C62.8736 115.672 63.4062 115.838 63.892 115.966L66.5511 116.682C67.233 116.861 67.9915 117.108 68.8267 117.423C69.6705 117.739 70.4759 118.169 71.2429 118.714C72.0185 119.251 72.6577 119.942 73.1605 120.786C73.6634 121.629 73.9148 122.665 73.9148 123.892C73.9148 125.307 73.544 126.585 72.8026 127.727C72.0696 128.869 70.9957 129.777 69.581 130.45C68.1747 131.124 66.4659 131.46 64.4545 131.46C62.5795 131.46 60.956 131.158 59.5838 130.553C58.2202 129.947 57.1463 129.104 56.3622 128.021C55.5866 126.939 55.1477 125.682 55.0455 124.25H58.3182C58.4034 125.239 58.7358 126.057 59.3153 126.705C59.9034 127.344 60.6449 127.821 61.5398 128.136C62.4432 128.443 63.4148 128.597 64.4545 128.597C65.6648 128.597 66.7514 128.401 67.7145 128.009C68.6776 127.608 69.4403 127.054 70.0028 126.347C70.5653 125.631 70.8466 124.795 70.8466 123.841C70.8466 122.972 70.6037 122.264 70.1179 121.719C69.6321 121.173 68.9929 120.73 68.2003 120.389C67.4077 120.048 66.5511 119.75 65.6307 119.494L62.4091 118.574C60.3636 117.986 58.7443 117.146 57.5511 116.055C56.358 114.964 55.7614 113.537 55.7614 111.773C55.7614 110.307 56.1577 109.028 56.9503 107.938C57.7514 106.838 58.8253 105.986 60.1719 105.381C61.527 104.767 63.0398 104.46 64.7102 104.46C66.3977 104.46 67.8977 104.763 69.2102 105.368C70.5227 105.964 71.5625 106.783 72.3295 107.822C73.1051 108.862 73.5142 110.043 73.5568 111.364H70.4886Z" fill="white"/>
<path d="M130.432 86.2727V53.5455H132.528V86.2727H130.432ZM137.489 63.3636C137.335 62.0682 136.713 61.0625 135.622 60.3466C134.531 59.6307 133.193 59.2727 131.608 59.2727C130.449 59.2727 129.435 59.4602 128.565 59.8352C127.705 60.2102 127.031 60.7259 126.545 61.3821C126.068 62.0384 125.83 62.7841 125.83 63.6193C125.83 64.3182 125.996 64.919 126.328 65.4219C126.669 65.9162 127.104 66.3295 127.632 66.6619C128.161 66.9858 128.714 67.2543 129.294 67.4673C129.874 67.6719 130.406 67.8381 130.892 67.9659L133.551 68.6818C134.233 68.8608 134.991 69.108 135.827 69.4233C136.67 69.7386 137.476 70.169 138.243 70.7145C139.018 71.2514 139.658 71.9418 140.161 72.7855C140.663 73.6293 140.915 74.6648 140.915 75.892C140.915 77.3068 140.544 78.5852 139.803 79.7273C139.07 80.8693 137.996 81.777 136.581 82.4503C135.175 83.1236 133.466 83.4602 131.455 83.4602C129.58 83.4602 127.956 83.1577 126.584 82.5526C125.22 81.9474 124.146 81.1037 123.362 80.0213C122.587 78.9389 122.148 77.6818 122.045 76.25H125.318C125.403 77.2386 125.736 78.0568 126.315 78.7045C126.903 79.3437 127.645 79.821 128.54 80.1364C129.443 80.4432 130.415 80.5966 131.455 80.5966C132.665 80.5966 133.751 80.4006 134.714 80.0085C135.678 79.608 136.44 79.054 137.003 78.3466C137.565 77.6307 137.847 76.7955 137.847 75.8409C137.847 74.9716 137.604 74.2642 137.118 73.7188C136.632 73.1733 135.993 72.7301 135.2 72.3892C134.408 72.0483 133.551 71.75 132.631 71.4943L129.409 70.5739C127.364 69.9858 125.744 69.1463 124.551 68.0554C123.358 66.9645 122.761 65.5369 122.761 63.7727C122.761 62.3068 123.158 61.0284 123.95 59.9375C124.751 58.8381 125.825 57.9858 127.172 57.3807C128.527 56.767 130.04 56.4602 131.71 56.4602C133.398 56.4602 134.898 56.7628 136.21 57.3679C137.523 57.9645 138.563 58.7827 139.33 59.8224C140.105 60.8622 140.514 62.0426 140.557 63.3636H137.489Z" fill="white"/>
<path d="M29.4318 211.273V178.545H31.5284V211.273H29.4318ZM36.4886 188.364C36.3352 187.068 35.7131 186.062 34.6222 185.347C33.5313 184.631 32.1932 184.273 30.608 184.273C29.4489 184.273 28.4347 184.46 27.5653 184.835C26.7045 185.21 26.0313 185.726 25.5455 186.382C25.0682 187.038 24.8295 187.784 24.8295 188.619C24.8295 189.318 24.9957 189.919 25.3281 190.422C25.669 190.916 26.1037 191.33 26.6321 191.662C27.1605 191.986 27.7145 192.254 28.294 192.467C28.8736 192.672 29.4062 192.838 29.892 192.966L32.5511 193.682C33.233 193.861 33.9915 194.108 34.8267 194.423C35.6705 194.739 36.4759 195.169 37.2429 195.714C38.0185 196.251 38.6577 196.942 39.1605 197.786C39.6634 198.629 39.9148 199.665 39.9148 200.892C39.9148 202.307 39.544 203.585 38.8026 204.727C38.0696 205.869 36.9957 206.777 35.581 207.45C34.1747 208.124 32.4659 208.46 30.4545 208.46C28.5795 208.46 26.956 208.158 25.5838 207.553C24.2202 206.947 23.1463 206.104 22.3622 205.021C21.5866 203.939 21.1477 202.682 21.0455 201.25H24.3182C24.4034 202.239 24.7358 203.057 25.3153 203.705C25.9034 204.344 26.6449 204.821 27.5398 205.136C28.4432 205.443 29.4148 205.597 30.4545 205.597C31.6648 205.597 32.7514 205.401 33.7145 205.009C34.6776 204.608 35.4403 204.054 36.0028 203.347C36.5653 202.631 36.8466 201.795 36.8466 200.841C36.8466 199.972 36.6037 199.264 36.1179 198.719C35.6321 198.173 34.9929 197.73 34.2003 197.389C33.4077 197.048 32.5511 196.75 31.6307 196.494L28.4091 195.574C26.3636 194.986 24.7443 194.146 23.5511 193.055C22.358 191.964 21.7614 190.537 21.7614 188.773C21.7614 187.307 22.1577 186.028 22.9503 184.938C23.7514 183.838 24.8253 182.986 26.1719 182.381C27.527 181.767 29.0398 181.46 30.7102 181.46C32.3977 181.46 33.8977 181.763 35.2102 182.368C36.5227 182.964 37.5625 183.783 38.3295 184.822C39.1051 185.862 39.5142 187.043 39.5568 188.364H36.4886Z" fill="white"/>
<path d="M254.432 209.273V176.545H256.528V209.273H254.432ZM261.489 186.364C261.335 185.068 260.713 184.062 259.622 183.347C258.531 182.631 257.193 182.273 255.608 182.273C254.449 182.273 253.435 182.46 252.565 182.835C251.705 183.21 251.031 183.726 250.545 184.382C250.068 185.038 249.83 185.784 249.83 186.619C249.83 187.318 249.996 187.919 250.328 188.422C250.669 188.916 251.104 189.33 251.632 189.662C252.161 189.986 252.714 190.254 253.294 190.467C253.874 190.672 254.406 190.838 254.892 190.966L257.551 191.682C258.233 191.861 258.991 192.108 259.827 192.423C260.67 192.739 261.476 193.169 262.243 193.714C263.018 194.251 263.658 194.942 264.161 195.786C264.663 196.629 264.915 197.665 264.915 198.892C264.915 200.307 264.544 201.585 263.803 202.727C263.07 203.869 261.996 204.777 260.581 205.45C259.175 206.124 257.466 206.46 255.455 206.46C253.58 206.46 251.956 206.158 250.584 205.553C249.22 204.947 248.146 204.104 247.362 203.021C246.587 201.939 246.148 200.682 246.045 199.25H249.318C249.403 200.239 249.736 201.057 250.315 201.705C250.903 202.344 251.645 202.821 252.54 203.136C253.443 203.443 254.415 203.597 255.455 203.597C256.665 203.597 257.751 203.401 258.714 203.009C259.678 202.608 260.44 202.054 261.003 201.347C261.565 200.631 261.847 199.795 261.847 198.841C261.847 197.972 261.604 197.264 261.118 196.719C260.632 196.173 259.993 195.73 259.2 195.389C258.408 195.048 257.551 194.75 256.631 194.494L253.409 193.574C251.364 192.986 249.744 192.146 248.551 191.055C247.358 189.964 246.761 188.537 246.761 186.773C246.761 185.307 247.158 184.028 247.95 182.938C248.751 181.838 249.825 180.986 251.172 180.381C252.527 179.767 254.04 179.46 255.71 179.46C257.398 179.46 258.898 179.763 260.21 180.368C261.523 180.964 262.563 181.783 263.33 182.822C264.105 183.862 264.514 185.043 264.557 186.364H261.489Z" fill="white"/>
<path d="M265.432 99.2727V66.5455H267.528V99.2727H265.432ZM272.489 76.3636C272.335 75.0682 271.713 74.0625 270.622 73.3466C269.531 72.6307 268.193 72.2727 266.608 72.2727C265.449 72.2727 264.435 72.4602 263.565 72.8352C262.705 73.2102 262.031 73.7259 261.545 74.3821C261.068 75.0384 260.83 75.7841 260.83 76.6193C260.83 77.3182 260.996 77.919 261.328 78.4219C261.669 78.9162 262.104 79.3295 262.632 79.6619C263.161 79.9858 263.714 80.2543 264.294 80.4673C264.874 80.6719 265.406 80.8381 265.892 80.9659L268.551 81.6818C269.233 81.8608 269.991 82.108 270.827 82.4233C271.67 82.7386 272.476 83.169 273.243 83.7145C274.018 84.2514 274.658 84.9418 275.161 85.7855C275.663 86.6293 275.915 87.6648 275.915 88.892C275.915 90.3068 275.544 91.5852 274.803 92.7273C274.07 93.8693 272.996 94.777 271.581 95.4503C270.175 96.1236 268.466 96.4602 266.455 96.4602C264.58 96.4602 262.956 96.1577 261.584 95.5526C260.22 94.9474 259.146 94.1037 258.362 93.0213C257.587 91.9389 257.148 90.6818 257.045 89.25H260.318C260.403 90.2386 260.736 91.0568 261.315 91.7045C261.903 92.3437 262.645 92.821 263.54 93.1364C264.443 93.4432 265.415 93.5966 266.455 93.5966C267.665 93.5966 268.751 93.4006 269.714 93.0085C270.678 92.608 271.44 92.054 272.003 91.3466C272.565 90.6307 272.847 89.7955 272.847 88.8409C272.847 87.9716 272.604 87.2642 272.118 86.7188C271.632 86.1733 270.993 85.7301 270.2 85.3892C269.408 85.0483 268.551 84.75 267.631 84.4943L264.409 83.5739C262.364 82.9858 260.744 82.1463 259.551 81.0554C258.358 79.9645 257.761 78.5369 257.761 76.7727C257.761 75.3068 258.158 74.0284 258.95 72.9375C259.751 71.8381 260.825 70.9858 262.172 70.3807C263.527 69.767 265.04 69.4602 266.71 69.4602C268.398 69.4602 269.898 69.7628 271.21 70.3679C272.523 70.9645 273.563 71.7827 274.33 72.8224C275.105 73.8622 275.514 75.0426 275.557 76.3636H272.489Z" fill="white"/>
<path d="M322.432 255.273V222.545H324.528V255.273H322.432ZM329.489 232.364C329.335 231.068 328.713 230.062 327.622 229.347C326.531 228.631 325.193 228.273 323.608 228.273C322.449 228.273 321.435 228.46 320.565 228.835C319.705 229.21 319.031 229.726 318.545 230.382C318.068 231.038 317.83 231.784 317.83 232.619C317.83 233.318 317.996 233.919 318.328 234.422C318.669 234.916 319.104 235.33 319.632 235.662C320.161 235.986 320.714 236.254 321.294 236.467C321.874 236.672 322.406 236.838 322.892 236.966L325.551 237.682C326.233 237.861 326.991 238.108 327.827 238.423C328.67 238.739 329.476 239.169 330.243 239.714C331.018 240.251 331.658 240.942 332.161 241.786C332.663 242.629 332.915 243.665 332.915 244.892C332.915 246.307 332.544 247.585 331.803 248.727C331.07 249.869 329.996 250.777 328.581 251.45C327.175 252.124 325.466 252.46 323.455 252.46C321.58 252.46 319.956 252.158 318.584 251.553C317.22 250.947 316.146 250.104 315.362 249.021C314.587 247.939 314.148 246.682 314.045 245.25H317.318C317.403 246.239 317.736 247.057 318.315 247.705C318.903 248.344 319.645 248.821 320.54 249.136C321.443 249.443 322.415 249.597 323.455 249.597C324.665 249.597 325.751 249.401 326.714 249.009C327.678 248.608 328.44 248.054 329.003 247.347C329.565 246.631 329.847 245.795 329.847 244.841C329.847 243.972 329.604 243.264 329.118 242.719C328.632 242.173 327.993 241.73 327.2 241.389C326.408 241.048 325.551 240.75 324.631 240.494L321.409 239.574C319.364 238.986 317.744 238.146 316.551 237.055C315.358 235.964 314.761 234.537 314.761 232.773C314.761 231.307 315.158 230.028 315.95 228.938C316.751 227.838 317.825 226.986 319.172 226.381C320.527 225.767 322.04 225.46 323.71 225.46C325.398 225.46 326.898 225.763 328.21 226.368C329.523 226.964 330.563 227.783 331.33 228.822C332.105 229.862 332.514 231.043 332.557 232.364H329.489Z" fill="white"/>
<path d="M198.432 156.273V123.545H200.528V156.273H198.432ZM205.489 133.364C205.335 132.068 204.713 131.062 203.622 130.347C202.531 129.631 201.193 129.273 199.608 129.273C198.449 129.273 197.435 129.46 196.565 129.835C195.705 130.21 195.031 130.726 194.545 131.382C194.068 132.038 193.83 132.784 193.83 133.619C193.83 134.318 193.996 134.919 194.328 135.422C194.669 135.916 195.104 136.33 195.632 136.662C196.161 136.986 196.714 137.254 197.294 137.467C197.874 137.672 198.406 137.838 198.892 137.966L201.551 138.682C202.233 138.861 202.991 139.108 203.827 139.423C204.67 139.739 205.476 140.169 206.243 140.714C207.018 141.251 207.658 141.942 208.161 142.786C208.663 143.629 208.915 144.665 208.915 145.892C208.915 147.307 208.544 148.585 207.803 149.727C207.07 150.869 205.996 151.777 204.581 152.45C203.175 153.124 201.466 153.46 199.455 153.46C197.58 153.46 195.956 153.158 194.584 152.553C193.22 151.947 192.146 151.104 191.362 150.021C190.587 148.939 190.148 147.682 190.045 146.25H193.318C193.403 147.239 193.736 148.057 194.315 148.705C194.903 149.344 195.645 149.821 196.54 150.136C197.443 150.443 198.415 150.597 199.455 150.597C200.665 150.597 201.751 150.401 202.714 150.009C203.678 149.608 204.44 149.054 205.003 148.347C205.565 147.631 205.847 146.795 205.847 145.841C205.847 144.972 205.604 144.264 205.118 143.719C204.632 143.173 203.993 142.73 203.2 142.389C202.408 142.048 201.551 141.75 200.631 141.494L197.409 140.574C195.364 139.986 193.744 139.146 192.551 138.055C191.358 136.964 190.761 135.537 190.761 133.773C190.761 132.307 191.158 131.028 191.95 129.938C192.751 128.838 193.825 127.986 195.172 127.381C196.527 126.767 198.04 126.46 199.71 126.46C201.398 126.46 202.898 126.763 204.21 127.368C205.523 127.964 206.563 128.783 207.33 129.822C208.105 130.862 208.514 132.043 208.557 133.364H205.489Z" fill="white"/>
<path d="M123.432 205.273V172.545H125.528V205.273H123.432ZM130.489 182.364C130.335 181.068 129.713 180.062 128.622 179.347C127.531 178.631 126.193 178.273 124.608 178.273C123.449 178.273 122.435 178.46 121.565 178.835C120.705 179.21 120.031 179.726 119.545 180.382C119.068 181.038 118.83 181.784 118.83 182.619C118.83 183.318 118.996 183.919 119.328 184.422C119.669 184.916 120.104 185.33 120.632 185.662C121.161 185.986 121.714 186.254 122.294 186.467C122.874 186.672 123.406 186.838 123.892 186.966L126.551 187.682C127.233 187.861 127.991 188.108 128.827 188.423C129.67 188.739 130.476 189.169 131.243 189.714C132.018 190.251 132.658 190.942 133.161 191.786C133.663 192.629 133.915 193.665 133.915 194.892C133.915 196.307 133.544 197.585 132.803 198.727C132.07 199.869 130.996 200.777 129.581 201.45C128.175 202.124 126.466 202.46 124.455 202.46C122.58 202.46 120.956 202.158 119.584 201.553C118.22 200.947 117.146 200.104 116.362 199.021C115.587 197.939 115.148 196.682 115.045 195.25H118.318C118.403 196.239 118.736 197.057 119.315 197.705C119.903 198.344 120.645 198.821 121.54 199.136C122.443 199.443 123.415 199.597 124.455 199.597C125.665 199.597 126.751 199.401 127.714 199.009C128.678 198.608 129.44 198.054 130.003 197.347C130.565 196.631 130.847 195.795 130.847 194.841C130.847 193.972 130.604 193.264 130.118 192.719C129.632 192.173 128.993 191.73 128.2 191.389C127.408 191.048 126.551 190.75 125.631 190.494L122.409 189.574C120.364 188.986 118.744 188.146 117.551 187.055C116.358 185.964 115.761 184.537 115.761 182.773C115.761 181.307 116.158 180.028 116.95 178.938C117.751 177.838 118.825 176.986 120.172 176.381C121.527 175.767 123.04 175.46 124.71 175.46C126.398 175.46 127.898 175.763 129.21 176.368C130.523 176.964 131.563 177.783 132.33 178.822C133.105 179.862 133.514 181.043 133.557 182.364H130.489Z" fill="white"/>
<path d="M36.4318 341.273V308.545H38.5284V341.273H36.4318ZM43.4886 318.364C43.3352 317.068 42.7131 316.062 41.6222 315.347C40.5313 314.631 39.1932 314.273 37.608 314.273C36.4489 314.273 35.4347 314.46 34.5653 314.835C33.7045 315.21 33.0313 315.726 32.5455 316.382C32.0682 317.038 31.8295 317.784 31.8295 318.619C31.8295 319.318 31.9957 319.919 32.3281 320.422C32.669 320.916 33.1037 321.33 33.6321 321.662C34.1605 321.986 34.7145 322.254 35.294 322.467C35.8736 322.672 36.4062 322.838 36.892 322.966L39.5511 323.682C40.233 323.861 40.9915 324.108 41.8267 324.423C42.6705 324.739 43.4759 325.169 44.2429 325.714C45.0185 326.251 45.6577 326.942 46.1605 327.786C46.6634 328.629 46.9148 329.665 46.9148 330.892C46.9148 332.307 46.544 333.585 45.8026 334.727C45.0696 335.869 43.9957 336.777 42.581 337.45C41.1747 338.124 39.4659 338.46 37.4545 338.46C35.5795 338.46 33.956 338.158 32.5838 337.553C31.2202 336.947 30.1463 336.104 29.3622 335.021C28.5866 333.939 28.1477 332.682 28.0455 331.25H31.3182C31.4034 332.239 31.7358 333.057 32.3153 333.705C32.9034 334.344 33.6449 334.821 34.5398 335.136C35.4432 335.443 36.4148 335.597 37.4545 335.597C38.6648 335.597 39.7514 335.401 40.7145 335.009C41.6776 334.608 42.4403 334.054 43.0028 333.347C43.5653 332.631 43.8466 331.795 43.8466 330.841C43.8466 329.972 43.6037 329.264 43.1179 328.719C42.6321 328.173 41.9929 327.73 41.2003 327.389C40.4077 327.048 39.5511 326.75 38.6307 326.494L35.4091 325.574C33.3636 324.986 31.7443 324.146 30.5511 323.055C29.358 321.964 28.7614 320.537 28.7614 318.773C28.7614 317.307 29.1577 316.028 29.9503 314.938C30.7514 313.838 31.8253 312.986 33.1719 312.381C34.527 311.767 36.0398 311.46 37.7102 311.46C39.3977 311.46 40.8977 311.763 42.2102 312.368C43.5227 312.964 44.5625 313.783 45.3295 314.822C46.1051 315.862 46.5142 317.043 46.5568 318.364H43.4886Z" fill="white"/>
<path d="M195.432 255.273V222.545H197.528V255.273H195.432ZM202.489 232.364C202.335 231.068 201.713 230.062 200.622 229.347C199.531 228.631 198.193 228.273 196.608 228.273C195.449 228.273 194.435 228.46 193.565 228.835C192.705 229.21 192.031 229.726 191.545 230.382C191.068 231.038 190.83 231.784 190.83 232.619C190.83 233.318 190.996 233.919 191.328 234.422C191.669 234.916 192.104 235.33 192.632 235.662C193.161 235.986 193.714 236.254 194.294 236.467C194.874 236.672 195.406 236.838 195.892 236.966L198.551 237.682C199.233 237.861 199.991 238.108 200.827 238.423C201.67 238.739 202.476 239.169 203.243 239.714C204.018 240.251 204.658 240.942 205.161 241.786C205.663 242.629 205.915 243.665 205.915 244.892C205.915 246.307 205.544 247.585 204.803 248.727C204.07 249.869 202.996 250.777 201.581 251.45C200.175 252.124 198.466 252.46 196.455 252.46C194.58 252.46 192.956 252.158 191.584 251.553C190.22 250.947 189.146 250.104 188.362 249.021C187.587 247.939 187.148 246.682 187.045 245.25H190.318C190.403 246.239 190.736 247.057 191.315 247.705C191.903 248.344 192.645 248.821 193.54 249.136C194.443 249.443 195.415 249.597 196.455 249.597C197.665 249.597 198.751 249.401 199.714 249.009C200.678 248.608 201.44 248.054 202.003 247.347C202.565 246.631 202.847 245.795 202.847 244.841C202.847 243.972 202.604 243.264 202.118 242.719C201.632 242.173 200.993 241.73 200.2 241.389C199.408 241.048 198.551 240.75 197.631 240.494L194.409 239.574C192.364 238.986 190.744 238.146 189.551 237.055C188.358 235.964 187.761 234.537 187.761 232.773C187.761 231.307 188.158 230.028 188.95 228.938C189.751 227.838 190.825 226.986 192.172 226.381C193.527 225.767 195.04 225.46 196.71 225.46C198.398 225.46 199.898 225.763 201.21 226.368C202.523 226.964 203.563 227.783 204.33 228.822C205.105 229.862 205.514 231.043 205.557 232.364H202.489Z" fill="white"/>
<path d="M256.432 316.273V283.545H258.528V316.273H256.432ZM263.489 293.364C263.335 292.068 262.713 291.062 261.622 290.347C260.531 289.631 259.193 289.273 257.608 289.273C256.449 289.273 255.435 289.46 254.565 289.835C253.705 290.21 253.031 290.726 252.545 291.382C252.068 292.038 251.83 292.784 251.83 293.619C251.83 294.318 251.996 294.919 252.328 295.422C252.669 295.916 253.104 296.33 253.632 296.662C254.161 296.986 254.714 297.254 255.294 297.467C255.874 297.672 256.406 297.838 256.892 297.966L259.551 298.682C260.233 298.861 260.991 299.108 261.827 299.423C262.67 299.739 263.476 300.169 264.243 300.714C265.018 301.251 265.658 301.942 266.161 302.786C266.663 303.629 266.915 304.665 266.915 305.892C266.915 307.307 266.544 308.585 265.803 309.727C265.07 310.869 263.996 311.777 262.581 312.45C261.175 313.124 259.466 313.46 257.455 313.46C255.58 313.46 253.956 313.158 252.584 312.553C251.22 311.947 250.146 311.104 249.362 310.021C248.587 308.939 248.148 307.682 248.045 306.25H251.318C251.403 307.239 251.736 308.057 252.315 308.705C252.903 309.344 253.645 309.821 254.54 310.136C255.443 310.443 256.415 310.597 257.455 310.597C258.665 310.597 259.751 310.401 260.714 310.009C261.678 309.608 262.44 309.054 263.003 308.347C263.565 307.631 263.847 306.795 263.847 305.841C263.847 304.972 263.604 304.264 263.118 303.719C262.632 303.173 261.993 302.73 261.2 302.389C260.408 302.048 259.551 301.75 258.631 301.494L255.409 300.574C253.364 299.986 251.744 299.146 250.551 298.055C249.358 296.964 248.761 295.537 248.761 293.773C248.761 292.307 249.158 291.028 249.95 289.938C250.751 288.838 251.825 287.986 253.172 287.381C254.527 286.767 256.04 286.46 257.71 286.46C259.398 286.46 260.898 286.763 262.21 287.368C263.523 287.964 264.563 288.783 265.33 289.822C266.105 290.862 266.514 292.043 266.557 293.364H263.489Z" fill="white"/>
<path d="M334.432 165.273V132.545H336.528V165.273H334.432ZM341.489 142.364C341.335 141.068 340.713 140.062 339.622 139.347C338.531 138.631 337.193 138.273 335.608 138.273C334.449 138.273 333.435 138.46 332.565 138.835C331.705 139.21 331.031 139.726 330.545 140.382C330.068 141.038 329.83 141.784 329.83 142.619C329.83 143.318 329.996 143.919 330.328 144.422C330.669 144.916 331.104 145.33 331.632 145.662C332.161 145.986 332.714 146.254 333.294 146.467C333.874 146.672 334.406 146.838 334.892 146.966L337.551 147.682C338.233 147.861 338.991 148.108 339.827 148.423C340.67 148.739 341.476 149.169 342.243 149.714C343.018 150.251 343.658 150.942 344.161 151.786C344.663 152.629 344.915 153.665 344.915 154.892C344.915 156.307 344.544 157.585 343.803 158.727C343.07 159.869 341.996 160.777 340.581 161.45C339.175 162.124 337.466 162.46 335.455 162.46C333.58 162.46 331.956 162.158 330.584 161.553C329.22 160.947 328.146 160.104 327.362 159.021C326.587 157.939 326.148 156.682 326.045 155.25H329.318C329.403 156.239 329.736 157.057 330.315 157.705C330.903 158.344 331.645 158.821 332.54 159.136C333.443 159.443 334.415 159.597 335.455 159.597C336.665 159.597 337.751 159.401 338.714 159.009C339.678 158.608 340.44 158.054 341.003 157.347C341.565 156.631 341.847 155.795 341.847 154.841C341.847 153.972 341.604 153.264 341.118 152.719C340.632 152.173 339.993 151.73 339.2 151.389C338.408 151.048 337.551 150.75 336.631 150.494L333.409 149.574C331.364 148.986 329.744 148.146 328.551 147.055C327.358 145.964 326.761 144.537 326.761 142.773C326.761 141.307 327.158 140.028 327.95 138.938C328.751 137.838 329.825 136.986 331.172 136.381C332.527 135.767 334.04 135.46 335.71 135.46C337.398 135.46 338.898 135.763 340.21 136.368C341.523 136.964 342.563 137.783 343.33 138.822C344.105 139.862 344.514 141.043 344.557 142.364H341.489Z" fill="white"/>
<path d="M345.432 68.2727V35.5455H347.528V68.2727H345.432ZM352.489 45.3636C352.335 44.0682 351.713 43.0625 350.622 42.3466C349.531 41.6307 348.193 41.2727 346.608 41.2727C345.449 41.2727 344.435 41.4602 343.565 41.8352C342.705 42.2102 342.031 42.7259 341.545 43.3821C341.068 44.0384 340.83 44.7841 340.83 45.6193C340.83 46.3182 340.996 46.919 341.328 47.4219C341.669 47.9162 342.104 48.3295 342.632 48.6619C343.161 48.9858 343.714 49.2543 344.294 49.4673C344.874 49.6719 345.406 49.8381 345.892 49.9659L348.551 50.6818C349.233 50.8608 349.991 51.108 350.827 51.4233C351.67 51.7386 352.476 52.169 353.243 52.7145C354.018 53.2514 354.658 53.9418 355.161 54.7855C355.663 55.6293 355.915 56.6648 355.915 57.892C355.915 59.3068 355.544 60.5852 354.803 61.7273C354.07 62.8693 352.996 63.777 351.581 64.4503C350.175 65.1236 348.466 65.4602 346.455 65.4602C344.58 65.4602 342.956 65.1577 341.584 64.5526C340.22 63.9474 339.146 63.1037 338.362 62.0213C337.587 60.9389 337.148 59.6818 337.045 58.25H340.318C340.403 59.2386 340.736 60.0568 341.315 60.7045C341.903 61.3437 342.645 61.821 343.54 62.1364C344.443 62.4432 345.415 62.5966 346.455 62.5966C347.665 62.5966 348.751 62.4006 349.714 62.0085C350.678 61.608 351.44 61.054 352.003 60.3466C352.565 59.6307 352.847 58.7955 352.847 57.8409C352.847 56.9716 352.604 56.2642 352.118 55.7188C351.632 55.1733 350.993 54.7301 350.2 54.3892C349.408 54.0483 348.551 53.75 347.631 53.4943L344.409 52.5739C342.364 51.9858 340.744 51.1463 339.551 50.0554C338.358 48.9645 337.761 47.5369 337.761 45.7727C337.761 44.3068 338.158 43.0284 338.95 41.9375C339.751 40.8381 340.825 39.9858 342.172 39.3807C343.527 38.767 345.04 38.4602 346.71 38.4602C348.398 38.4602 349.898 38.7628 351.21 39.3679C352.523 39.9645 353.563 40.7827 354.33 41.8224C355.105 42.8622 355.514 44.0426 355.557 45.3636H352.489Z" fill="white"/>
<path d="M528.432 117.273V84.5455H530.528V117.273H528.432ZM535.489 94.3636C535.335 93.0682 534.713 92.0625 533.622 91.3466C532.531 90.6307 531.193 90.2727 529.608 90.2727C528.449 90.2727 527.435 90.4602 526.565 90.8352C525.705 91.2102 525.031 91.7259 524.545 92.3821C524.068 93.0384 523.83 93.7841 523.83 94.6193C523.83 95.3182 523.996 95.919 524.328 96.4219C524.669 96.9162 525.104 97.3295 525.632 97.6619C526.161 97.9858 526.714 98.2543 527.294 98.4673C527.874 98.6719 528.406 98.8381 528.892 98.9659L531.551 99.6818C532.233 99.8608 532.991 100.108 533.827 100.423C534.67 100.739 535.476 101.169 536.243 101.714C537.018 102.251 537.658 102.942 538.161 103.786C538.663 104.629 538.915 105.665 538.915 106.892C538.915 108.307 538.544 109.585 537.803 110.727C537.07 111.869 535.996 112.777 534.581 113.45C533.175 114.124 531.466 114.46 529.455 114.46C527.58 114.46 525.956 114.158 524.584 113.553C523.22 112.947 522.146 112.104 521.362 111.021C520.587 109.939 520.148 108.682 520.045 107.25H523.318C523.403 108.239 523.736 109.057 524.315 109.705C524.903 110.344 525.645 110.821 526.54 111.136C527.443 111.443 528.415 111.597 529.455 111.597C530.665 111.597 531.751 111.401 532.714 111.009C533.678 110.608 534.44 110.054 535.003 109.347C535.565 108.631 535.847 107.795 535.847 106.841C535.847 105.972 535.604 105.264 535.118 104.719C534.632 104.173 533.993 103.73 533.2 103.389C532.408 103.048 531.551 102.75 530.631 102.494L527.409 101.574C525.364 100.986 523.744 100.146 522.551 99.0554C521.358 97.9645 520.761 96.5369 520.761 94.7727C520.761 93.3068 521.158 92.0284 521.95 90.9375C522.751 89.8381 523.825 88.9858 525.172 88.3807C526.527 87.767 528.04 87.4602 529.71 87.4602C531.398 87.4602 532.898 87.7628 534.21 88.3679C535.523 88.9645 536.563 89.7827 537.33 90.8224C538.105 91.8622 538.514 93.0426 538.557 94.3636H535.489Z" fill="white"/>
<path d="M461.432 51.2727V18.5455H463.528V51.2727H461.432ZM468.489 28.3636C468.335 27.0682 467.713 26.0625 466.622 25.3466C465.531 24.6307 464.193 24.2727 462.608 24.2727C461.449 24.2727 460.435 24.4602 459.565 24.8352C458.705 25.2102 458.031 25.7259 457.545 26.3821C457.068 27.0384 456.83 27.7841 456.83 28.6193C456.83 29.3182 456.996 29.919 457.328 30.4219C457.669 30.9162 458.104 31.3295 458.632 31.6619C459.161 31.9858 459.714 32.2543 460.294 32.4673C460.874 32.6719 461.406 32.8381 461.892 32.9659L464.551 33.6818C465.233 33.8608 465.991 34.108 466.827 34.4233C467.67 34.7386 468.476 35.169 469.243 35.7145C470.018 36.2514 470.658 36.9418 471.161 37.7855C471.663 38.6293 471.915 39.6648 471.915 40.892C471.915 42.3068 471.544 43.5852 470.803 44.7273C470.07 45.8693 468.996 46.777 467.581 47.4503C466.175 48.1236 464.466 48.4602 462.455 48.4602C460.58 48.4602 458.956 48.1577 457.584 47.5526C456.22 46.9474 455.146 46.1037 454.362 45.0213C453.587 43.9389 453.148 42.6818 453.045 41.25H456.318C456.403 42.2386 456.736 43.0568 457.315 43.7045C457.903 44.3437 458.645 44.821 459.54 45.1364C460.443 45.4432 461.415 45.5966 462.455 45.5966C463.665 45.5966 464.751 45.4006 465.714 45.0085C466.678 44.608 467.44 44.054 468.003 43.3466C468.565 42.6307 468.847 41.7955 468.847 40.8409C468.847 39.9716 468.604 39.2642 468.118 38.7188C467.632 38.1733 466.993 37.7301 466.2 37.3892C465.408 37.0483 464.551 36.75 463.631 36.4943L460.409 35.5739C458.364 34.9858 456.744 34.1463 455.551 33.0554C454.358 31.9645 453.761 30.5369 453.761 28.7727C453.761 27.3068 454.158 26.0284 454.95 24.9375C455.751 23.8381 456.825 22.9858 458.172 22.3807C459.527 21.767 461.04 21.4602 462.71 21.4602C464.398 21.4602 465.898 21.7628 467.21 22.3679C468.523 22.9645 469.563 23.7827 470.33 24.8224C471.105 25.8622 471.514 27.0426 471.557 28.3636H468.489Z" fill="white"/>
<path d="M400.432 130.273V97.5455H402.528V130.273H400.432ZM407.489 107.364C407.335 106.068 406.713 105.062 405.622 104.347C404.531 103.631 403.193 103.273 401.608 103.273C400.449 103.273 399.435 103.46 398.565 103.835C397.705 104.21 397.031 104.726 396.545 105.382C396.068 106.038 395.83 106.784 395.83 107.619C395.83 108.318 395.996 108.919 396.328 109.422C396.669 109.916 397.104 110.33 397.632 110.662C398.161 110.986 398.714 111.254 399.294 111.467C399.874 111.672 400.406 111.838 400.892 111.966L403.551 112.682C404.233 112.861 404.991 113.108 405.827 113.423C406.67 113.739 407.476 114.169 408.243 114.714C409.018 115.251 409.658 115.942 410.161 116.786C410.663 117.629 410.915 118.665 410.915 119.892C410.915 121.307 410.544 122.585 409.803 123.727C409.07 124.869 407.996 125.777 406.581 126.45C405.175 127.124 403.466 127.46 401.455 127.46C399.58 127.46 397.956 127.158 396.584 126.553C395.22 125.947 394.146 125.104 393.362 124.021C392.587 122.939 392.148 121.682 392.045 120.25H395.318C395.403 121.239 395.736 122.057 396.315 122.705C396.903 123.344 397.645 123.821 398.54 124.136C399.443 124.443 400.415 124.597 401.455 124.597C402.665 124.597 403.751 124.401 404.714 124.009C405.678 123.608 406.44 123.054 407.003 122.347C407.565 121.631 407.847 120.795 407.847 119.841C407.847 118.972 407.604 118.264 407.118 117.719C406.632 117.173 405.993 116.73 405.2 116.389C404.408 116.048 403.551 115.75 402.631 115.494L399.409 114.574C397.364 113.986 395.744 113.146 394.551 112.055C393.358 110.964 392.761 109.537 392.761 107.773C392.761 106.307 393.158 105.028 393.95 103.938C394.751 102.838 395.825 101.986 397.172 101.381C398.527 100.767 400.04 100.46 401.71 100.46C403.398 100.46 404.898 100.763 406.21 101.368C407.523 101.964 408.563 102.783 409.33 103.822C410.105 104.862 410.514 106.043 410.557 107.364H407.489Z" fill="white"/>
<path d="M411.432 240.273V207.545H413.528V240.273H411.432ZM418.489 217.364C418.335 216.068 417.713 215.062 416.622 214.347C415.531 213.631 414.193 213.273 412.608 213.273C411.449 213.273 410.435 213.46 409.565 213.835C408.705 214.21 408.031 214.726 407.545 215.382C407.068 216.038 406.83 216.784 406.83 217.619C406.83 218.318 406.996 218.919 407.328 219.422C407.669 219.916 408.104 220.33 408.632 220.662C409.161 220.986 409.714 221.254 410.294 221.467C410.874 221.672 411.406 221.838 411.892 221.966L414.551 222.682C415.233 222.861 415.991 223.108 416.827 223.423C417.67 223.739 418.476 224.169 419.243 224.714C420.018 225.251 420.658 225.942 421.161 226.786C421.663 227.629 421.915 228.665 421.915 229.892C421.915 231.307 421.544 232.585 420.803 233.727C420.07 234.869 418.996 235.777 417.581 236.45C416.175 237.124 414.466 237.46 412.455 237.46C410.58 237.46 408.956 237.158 407.584 236.553C406.22 235.947 405.146 235.104 404.362 234.021C403.587 232.939 403.148 231.682 403.045 230.25H406.318C406.403 231.239 406.736 232.057 407.315 232.705C407.903 233.344 408.645 233.821 409.54 234.136C410.443 234.443 411.415 234.597 412.455 234.597C413.665 234.597 414.751 234.401 415.714 234.009C416.678 233.608 417.44 233.054 418.003 232.347C418.565 231.631 418.847 230.795 418.847 229.841C418.847 228.972 418.604 228.264 418.118 227.719C417.632 227.173 416.993 226.73 416.2 226.389C415.408 226.048 414.551 225.75 413.631 225.494L410.409 224.574C408.364 223.986 406.744 223.146 405.551 222.055C404.358 220.964 403.761 219.537 403.761 217.773C403.761 216.307 404.158 215.028 404.95 213.938C405.751 212.838 406.825 211.986 408.172 211.381C409.527 210.767 411.04 210.46 412.71 210.46C414.398 210.46 415.898 210.763 417.21 211.368C418.523 211.964 419.563 212.783 420.33 213.822C421.105 214.862 421.514 216.043 421.557 217.364H418.489Z" fill="white"/>
<path d="M206.432 51.2727V18.5455H208.528V51.2727H206.432ZM213.489 28.3636C213.335 27.0682 212.713 26.0625 211.622 25.3466C210.531 24.6307 209.193 24.2727 207.608 24.2727C206.449 24.2727 205.435 24.4602 204.565 24.8352C203.705 25.2102 203.031 25.7259 202.545 26.3821C202.068 27.0384 201.83 27.7841 201.83 28.6193C201.83 29.3182 201.996 29.919 202.328 30.4219C202.669 30.9162 203.104 31.3295 203.632 31.6619C204.161 31.9858 204.714 32.2543 205.294 32.4673C205.874 32.6719 206.406 32.8381 206.892 32.9659L209.551 33.6818C210.233 33.8608 210.991 34.108 211.827 34.4233C212.67 34.7386 213.476 35.169 214.243 35.7145C215.018 36.2514 215.658 36.9418 216.161 37.7855C216.663 38.6293 216.915 39.6648 216.915 40.892C216.915 42.3068 216.544 43.5852 215.803 44.7273C215.07 45.8693 213.996 46.777 212.581 47.4503C211.175 48.1236 209.466 48.4602 207.455 48.4602C205.58 48.4602 203.956 48.1577 202.584 47.5526C201.22 46.9474 200.146 46.1037 199.362 45.0213C198.587 43.9389 198.148 42.6818 198.045 41.25H201.318C201.403 42.2386 201.736 43.0568 202.315 43.7045C202.903 44.3437 203.645 44.821 204.54 45.1364C205.443 45.4432 206.415 45.5966 207.455 45.5966C208.665 45.5966 209.751 45.4006 210.714 45.0085C211.678 44.608 212.44 44.054 213.003 43.3466C213.565 42.6307 213.847 41.7955 213.847 40.8409C213.847 39.9716 213.604 39.2642 213.118 38.7188C212.632 38.1733 211.993 37.7301 211.2 37.3892C210.408 37.0483 209.551 36.75 208.631 36.4943L205.409 35.5739C203.364 34.9858 201.744 34.1463 200.551 33.0554C199.358 31.9645 198.761 30.5369 198.761 28.7727C198.761 27.3068 199.158 26.0284 199.95 24.9375C200.751 23.8381 201.825 22.9858 203.172 22.3807C204.527 21.767 206.04 21.4602 207.71 21.4602C209.398 21.4602 210.898 21.7628 212.21 22.3679C213.523 22.9645 214.563 23.7827 215.33 24.8224C216.105 25.8622 216.514 27.0426 216.557 28.3636H213.489Z" fill="white"/>
<path d="M458.432 312.273V279.545H460.528V312.273H458.432ZM465.489 289.364C465.335 288.068 464.713 287.062 463.622 286.347C462.531 285.631 461.193 285.273 459.608 285.273C458.449 285.273 457.435 285.46 456.565 285.835C455.705 286.21 455.031 286.726 454.545 287.382C454.068 288.038 453.83 288.784 453.83 289.619C453.83 290.318 453.996 290.919 454.328 291.422C454.669 291.916 455.104 292.33 455.632 292.662C456.161 292.986 456.714 293.254 457.294 293.467C457.874 293.672 458.406 293.838 458.892 293.966L461.551 294.682C462.233 294.861 462.991 295.108 463.827 295.423C464.67 295.739 465.476 296.169 466.243 296.714C467.018 297.251 467.658 297.942 468.161 298.786C468.663 299.629 468.915 300.665 468.915 301.892C468.915 303.307 468.544 304.585 467.803 305.727C467.07 306.869 465.996 307.777 464.581 308.45C463.175 309.124 461.466 309.46 459.455 309.46C457.58 309.46 455.956 309.158 454.584 308.553C453.22 307.947 452.146 307.104 451.362 306.021C450.587 304.939 450.148 303.682 450.045 302.25H453.318C453.403 303.239 453.736 304.057 454.315 304.705C454.903 305.344 455.645 305.821 456.54 306.136C457.443 306.443 458.415 306.597 459.455 306.597C460.665 306.597 461.751 306.401 462.714 306.009C463.678 305.608 464.44 305.054 465.003 304.347C465.565 303.631 465.847 302.795 465.847 301.841C465.847 300.972 465.604 300.264 465.118 299.719C464.632 299.173 463.993 298.73 463.2 298.389C462.408 298.048 461.551 297.75 460.631 297.494L457.409 296.574C455.364 295.986 453.744 295.146 452.551 294.055C451.358 292.964 450.761 291.537 450.761 289.773C450.761 288.307 451.158 287.028 451.95 285.938C452.751 284.838 453.825 283.986 455.172 283.381C456.527 282.767 458.04 282.46 459.71 282.46C461.398 282.46 462.898 282.763 464.21 283.368C465.523 283.964 466.563 284.783 467.33 285.822C468.105 286.862 468.514 288.043 468.557 289.364H465.489Z" fill="white"/>
<path d="M621.432 306.273V273.545H623.528V306.273H621.432ZM628.489 283.364C628.335 282.068 627.713 281.062 626.622 280.347C625.531 279.631 624.193 279.273 622.608 279.273C621.449 279.273 620.435 279.46 619.565 279.835C618.705 280.21 618.031 280.726 617.545 281.382C617.068 282.038 616.83 282.784 616.83 283.619C616.83 284.318 616.996 284.919 617.328 285.422C617.669 285.916 618.104 286.33 618.632 286.662C619.161 286.986 619.714 287.254 620.294 287.467C620.874 287.672 621.406 287.838 621.892 287.966L624.551 288.682C625.233 288.861 625.991 289.108 626.827 289.423C627.67 289.739 628.476 290.169 629.243 290.714C630.018 291.251 630.658 291.942 631.161 292.786C631.663 293.629 631.915 294.665 631.915 295.892C631.915 297.307 631.544 298.585 630.803 299.727C630.07 300.869 628.996 301.777 627.581 302.45C626.175 303.124 624.466 303.46 622.455 303.46C620.58 303.46 618.956 303.158 617.584 302.553C616.22 301.947 615.146 301.104 614.362 300.021C613.587 298.939 613.148 297.682 613.045 296.25H616.318C616.403 297.239 616.736 298.057 617.315 298.705C617.903 299.344 618.645 299.821 619.54 300.136C620.443 300.443 621.415 300.597 622.455 300.597C623.665 300.597 624.751 300.401 625.714 300.009C626.678 299.608 627.44 299.054 628.003 298.347C628.565 297.631 628.847 296.795 628.847 295.841C628.847 294.972 628.604 294.264 628.118 293.719C627.632 293.173 626.993 292.73 626.2 292.389C625.408 292.048 624.551 291.75 623.631 291.494L620.409 290.574C618.364 289.986 616.744 289.146 615.551 288.055C614.358 286.964 613.761 285.537 613.761 283.773C613.761 282.307 614.158 281.028 614.95 279.938C615.751 278.838 616.825 277.986 618.172 277.381C619.527 276.767 621.04 276.46 622.71 276.46C624.398 276.46 625.898 276.763 627.21 277.368C628.523 277.964 629.563 278.783 630.33 279.822C631.105 280.862 631.514 282.043 631.557 283.364H628.489Z" fill="white"/>
<path d="M489.432 187.273V154.545H491.528V187.273H489.432ZM496.489 164.364C496.335 163.068 495.713 162.062 494.622 161.347C493.531 160.631 492.193 160.273 490.608 160.273C489.449 160.273 488.435 160.46 487.565 160.835C486.705 161.21 486.031 161.726 485.545 162.382C485.068 163.038 484.83 163.784 484.83 164.619C484.83 165.318 484.996 165.919 485.328 166.422C485.669 166.916 486.104 167.33 486.632 167.662C487.161 167.986 487.714 168.254 488.294 168.467C488.874 168.672 489.406 168.838 489.892 168.966L492.551 169.682C493.233 169.861 493.991 170.108 494.827 170.423C495.67 170.739 496.476 171.169 497.243 171.714C498.018 172.251 498.658 172.942 499.161 173.786C499.663 174.629 499.915 175.665 499.915 176.892C499.915 178.307 499.544 179.585 498.803 180.727C498.07 181.869 496.996 182.777 495.581 183.45C494.175 184.124 492.466 184.46 490.455 184.46C488.58 184.46 486.956 184.158 485.584 183.553C484.22 182.947 483.146 182.104 482.362 181.021C481.587 179.939 481.148 178.682 481.045 177.25H484.318C484.403 178.239 484.736 179.057 485.315 179.705C485.903 180.344 486.645 180.821 487.54 181.136C488.443 181.443 489.415 181.597 490.455 181.597C491.665 181.597 492.751 181.401 493.714 181.009C494.678 180.608 495.44 180.054 496.003 179.347C496.565 178.631 496.847 177.795 496.847 176.841C496.847 175.972 496.604 175.264 496.118 174.719C495.632 174.173 494.993 173.73 494.2 173.389C493.408 173.048 492.551 172.75 491.631 172.494L488.409 171.574C486.364 170.986 484.744 170.146 483.551 169.055C482.358 167.964 481.761 166.537 481.761 164.773C481.761 163.307 482.158 162.028 482.95 160.938C483.751 159.838 484.825 158.986 486.172 158.381C487.527 157.767 489.04 157.46 490.71 157.46C492.398 157.46 493.898 157.763 495.21 158.368C496.523 158.964 497.563 159.783 498.33 160.822C499.105 161.862 499.514 163.043 499.557 164.364H496.489Z" fill="white"/>
<path d="M608.432 169.273V136.545H610.528V169.273H608.432ZM615.489 146.364C615.335 145.068 614.713 144.062 613.622 143.347C612.531 142.631 611.193 142.273 609.608 142.273C608.449 142.273 607.435 142.46 606.565 142.835C605.705 143.21 605.031 143.726 604.545 144.382C604.068 145.038 603.83 145.784 603.83 146.619C603.83 147.318 603.996 147.919 604.328 148.422C604.669 148.916 605.104 149.33 605.632 149.662C606.161 149.986 606.714 150.254 607.294 150.467C607.874 150.672 608.406 150.838 608.892 150.966L611.551 151.682C612.233 151.861 612.991 152.108 613.827 152.423C614.67 152.739 615.476 153.169 616.243 153.714C617.018 154.251 617.658 154.942 618.161 155.786C618.663 156.629 618.915 157.665 618.915 158.892C618.915 160.307 618.544 161.585 617.803 162.727C617.07 163.869 615.996 164.777 614.581 165.45C613.175 166.124 611.466 166.46 609.455 166.46C607.58 166.46 605.956 166.158 604.584 165.553C603.22 164.947 602.146 164.104 601.362 163.021C600.587 161.939 600.148 160.682 600.045 159.25H603.318C603.403 160.239 603.736 161.057 604.315 161.705C604.903 162.344 605.645 162.821 606.54 163.136C607.443 163.443 608.415 163.597 609.455 163.597C610.665 163.597 611.751 163.401 612.714 163.009C613.678 162.608 614.44 162.054 615.003 161.347C615.565 160.631 615.847 159.795 615.847 158.841C615.847 157.972 615.604 157.264 615.118 156.719C614.632 156.173 613.993 155.73 613.2 155.389C612.408 155.048 611.551 154.75 610.631 154.494L607.409 153.574C605.364 152.986 603.744 152.146 602.551 151.055C601.358 149.964 600.761 148.537 600.761 146.773C600.761 145.307 601.158 144.028 601.95 142.938C602.751 141.838 603.825 140.986 605.172 140.381C606.527 139.767 608.04 139.46 609.71 139.46C611.398 139.46 612.898 139.763 614.21 140.368C615.523 140.964 616.563 141.783 617.33 142.822C618.105 143.862 618.514 145.043 618.557 146.364H615.489Z" fill="white"/>
<path d="M598.432 59.2727V26.5455H600.528V59.2727H598.432ZM605.489 36.3636C605.335 35.0682 604.713 34.0625 603.622 33.3466C602.531 32.6307 601.193 32.2727 599.608 32.2727C598.449 32.2727 597.435 32.4602 596.565 32.8352C595.705 33.2102 595.031 33.7259 594.545 34.3821C594.068 35.0384 593.83 35.7841 593.83 36.6193C593.83 37.3182 593.996 37.919 594.328 38.4219C594.669 38.9162 595.104 39.3295 595.632 39.6619C596.161 39.9858 596.714 40.2543 597.294 40.4673C597.874 40.6719 598.406 40.8381 598.892 40.9659L601.551 41.6818C602.233 41.8608 602.991 42.108 603.827 42.4233C604.67 42.7386 605.476 43.169 606.243 43.7145C607.018 44.2514 607.658 44.9418 608.161 45.7855C608.663 46.6293 608.915 47.6648 608.915 48.892C608.915 50.3068 608.544 51.5852 607.803 52.7273C607.07 53.8693 605.996 54.777 604.581 55.4503C603.175 56.1236 601.466 56.4602 599.455 56.4602C597.58 56.4602 595.956 56.1577 594.584 55.5526C593.22 54.9474 592.146 54.1037 591.362 53.0213C590.587 51.9389 590.148 50.6818 590.045 49.25H593.318C593.403 50.2386 593.736 51.0568 594.315 51.7045C594.903 52.3437 595.645 52.821 596.54 53.1364C597.443 53.4432 598.415 53.5966 599.455 53.5966C600.665 53.5966 601.751 53.4006 602.714 53.0085C603.678 52.608 604.44 52.054 605.003 51.3466C605.565 50.6307 605.847 49.7955 605.847 48.8409C605.847 47.9716 605.604 47.2642 605.118 46.7188C604.632 46.1733 603.993 45.7301 603.2 45.3892C602.408 45.0483 601.551 44.75 600.631 44.4943L597.409 43.5739C595.364 42.9858 593.744 42.1463 592.551 41.0554C591.358 39.9645 590.761 38.5369 590.761 36.7727C590.761 35.3068 591.158 34.0284 591.95 32.9375C592.751 31.8381 593.825 30.9858 595.172 30.3807C596.527 29.767 598.04 29.4602 599.71 29.4602C601.398 29.4602 602.898 29.7628 604.21 30.3679C605.523 30.9645 606.563 31.7827 607.33 32.8224C608.105 33.8622 608.514 35.0426 608.557 36.3636H605.489Z" fill="white"/>
<path d="M562.432 244.273V211.545H564.528V244.273H562.432ZM569.489 221.364C569.335 220.068 568.713 219.062 567.622 218.347C566.531 217.631 565.193 217.273 563.608 217.273C562.449 217.273 561.435 217.46 560.565 217.835C559.705 218.21 559.031 218.726 558.545 219.382C558.068 220.038 557.83 220.784 557.83 221.619C557.83 222.318 557.996 222.919 558.328 223.422C558.669 223.916 559.104 224.33 559.632 224.662C560.161 224.986 560.714 225.254 561.294 225.467C561.874 225.672 562.406 225.838 562.892 225.966L565.551 226.682C566.233 226.861 566.991 227.108 567.827 227.423C568.67 227.739 569.476 228.169 570.243 228.714C571.018 229.251 571.658 229.942 572.161 230.786C572.663 231.629 572.915 232.665 572.915 233.892C572.915 235.307 572.544 236.585 571.803 237.727C571.07 238.869 569.996 239.777 568.581 240.45C567.175 241.124 565.466 241.46 563.455 241.46C561.58 241.46 559.956 241.158 558.584 240.553C557.22 239.947 556.146 239.104 555.362 238.021C554.587 236.939 554.148 235.682 554.045 234.25H557.318C557.403 235.239 557.736 236.057 558.315 236.705C558.903 237.344 559.645 237.821 560.54 238.136C561.443 238.443 562.415 238.597 563.455 238.597C564.665 238.597 565.751 238.401 566.714 238.009C567.678 237.608 568.44 237.054 569.003 236.347C569.565 235.631 569.847 234.795 569.847 233.841C569.847 232.972 569.604 232.264 569.118 231.719C568.632 231.173 567.993 230.73 567.2 230.389C566.408 230.048 565.551 229.75 564.631 229.494L561.409 228.574C559.364 227.986 557.744 227.146 556.551 226.055C555.358 224.964 554.761 223.537 554.761 221.773C554.761 220.307 555.158 219.028 555.95 217.938C556.751 216.838 557.825 215.986 559.172 215.381C560.527 214.767 562.04 214.46 563.71 214.46C565.398 214.46 566.898 214.763 568.21 215.368C569.523 215.964 570.563 216.783 571.33 217.822C572.105 218.862 572.514 220.043 572.557 221.364H569.489Z" fill="white"/>
<path d="M551.432 334.273V301.545H553.528V334.273H551.432ZM558.489 311.364C558.335 310.068 557.713 309.062 556.622 308.347C555.531 307.631 554.193 307.273 552.608 307.273C551.449 307.273 550.435 307.46 549.565 307.835C548.705 308.21 548.031 308.726 547.545 309.382C547.068 310.038 546.83 310.784 546.83 311.619C546.83 312.318 546.996 312.919 547.328 313.422C547.669 313.916 548.104 314.33 548.632 314.662C549.161 314.986 549.714 315.254 550.294 315.467C550.874 315.672 551.406 315.838 551.892 315.966L554.551 316.682C555.233 316.861 555.991 317.108 556.827 317.423C557.67 317.739 558.476 318.169 559.243 318.714C560.018 319.251 560.658 319.942 561.161 320.786C561.663 321.629 561.915 322.665 561.915 323.892C561.915 325.307 561.544 326.585 560.803 327.727C560.07 328.869 558.996 329.777 557.581 330.45C556.175 331.124 554.466 331.46 552.455 331.46C550.58 331.46 548.956 331.158 547.584 330.553C546.22 329.947 545.146 329.104 544.362 328.021C543.587 326.939 543.148 325.682 543.045 324.25H546.318C546.403 325.239 546.736 326.057 547.315 326.705C547.903 327.344 548.645 327.821 549.54 328.136C550.443 328.443 551.415 328.597 552.455 328.597C553.665 328.597 554.751 328.401 555.714 328.009C556.678 327.608 557.44 327.054 558.003 326.347C558.565 325.631 558.847 324.795 558.847 323.841C558.847 322.972 558.604 322.264 558.118 321.719C557.632 321.173 556.993 320.73 556.2 320.389C555.408 320.048 554.551 319.75 553.631 319.494L550.409 318.574C548.364 317.986 546.744 317.146 545.551 316.055C544.358 314.964 543.761 313.537 543.761 311.773C543.761 310.307 544.158 309.028 544.95 307.938C545.751 306.838 546.825 305.986 548.172 305.381C549.527 304.767 551.04 304.46 552.71 304.46C554.398 304.46 555.898 304.763 557.21 305.368C558.523 305.964 559.563 306.783 560.33 307.822C561.105 308.862 561.514 310.043 561.557 311.364H558.489Z" fill="white"/>
<path d="M357.432 347.273V314.545H359.528V347.273H357.432ZM364.489 324.364C364.335 323.068 363.713 322.062 362.622 321.347C361.531 320.631 360.193 320.273 358.608 320.273C357.449 320.273 356.435 320.46 355.565 320.835C354.705 321.21 354.031 321.726 353.545 322.382C353.068 323.038 352.83 323.784 352.83 324.619C352.83 325.318 352.996 325.919 353.328 326.422C353.669 326.916 354.104 327.33 354.632 327.662C355.161 327.986 355.714 328.254 356.294 328.467C356.874 328.672 357.406 328.838 357.892 328.966L360.551 329.682C361.233 329.861 361.991 330.108 362.827 330.423C363.67 330.739 364.476 331.169 365.243 331.714C366.018 332.251 366.658 332.942 367.161 333.786C367.663 334.629 367.915 335.665 367.915 336.892C367.915 338.307 367.544 339.585 366.803 340.727C366.07 341.869 364.996 342.777 363.581 343.45C362.175 344.124 360.466 344.46 358.455 344.46C356.58 344.46 354.956 344.158 353.584 343.553C352.22 342.947 351.146 342.104 350.362 341.021C349.587 339.939 349.148 338.682 349.045 337.25H352.318C352.403 338.239 352.736 339.057 353.315 339.705C353.903 340.344 354.645 340.821 355.54 341.136C356.443 341.443 357.415 341.597 358.455 341.597C359.665 341.597 360.751 341.401 361.714 341.009C362.678 340.608 363.44 340.054 364.003 339.347C364.565 338.631 364.847 337.795 364.847 336.841C364.847 335.972 364.604 335.264 364.118 334.719C363.632 334.173 362.993 333.73 362.2 333.389C361.408 333.048 360.551 332.75 359.631 332.494L356.409 331.574C354.364 330.986 352.744 330.146 351.551 329.055C350.358 327.964 349.761 326.537 349.761 324.773C349.761 323.307 350.158 322.028 350.95 320.938C351.751 319.838 352.825 318.986 354.172 318.381C355.527 317.767 357.04 317.46 358.71 317.46C360.398 317.46 361.898 317.763 363.21 318.368C364.523 318.964 365.563 319.783 366.33 320.822C367.105 321.862 367.514 323.043 367.557 324.364H364.489Z" fill="white"/>
<path d="M153.432 338.273V305.545H155.528V338.273H153.432ZM160.489 315.364C160.335 314.068 159.713 313.062 158.622 312.347C157.531 311.631 156.193 311.273 154.608 311.273C153.449 311.273 152.435 311.46 151.565 311.835C150.705 312.21 150.031 312.726 149.545 313.382C149.068 314.038 148.83 314.784 148.83 315.619C148.83 316.318 148.996 316.919 149.328 317.422C149.669 317.916 150.104 318.33 150.632 318.662C151.161 318.986 151.714 319.254 152.294 319.467C152.874 319.672 153.406 319.838 153.892 319.966L156.551 320.682C157.233 320.861 157.991 321.108 158.827 321.423C159.67 321.739 160.476 322.169 161.243 322.714C162.018 323.251 162.658 323.942 163.161 324.786C163.663 325.629 163.915 326.665 163.915 327.892C163.915 329.307 163.544 330.585 162.803 331.727C162.07 332.869 160.996 333.777 159.581 334.45C158.175 335.124 156.466 335.46 154.455 335.46C152.58 335.46 150.956 335.158 149.584 334.553C148.22 333.947 147.146 333.104 146.362 332.021C145.587 330.939 145.148 329.682 145.045 328.25H148.318C148.403 329.239 148.736 330.057 149.315 330.705C149.903 331.344 150.645 331.821 151.54 332.136C152.443 332.443 153.415 332.597 154.455 332.597C155.665 332.597 156.751 332.401 157.714 332.009C158.678 331.608 159.44 331.054 160.003 330.347C160.565 329.631 160.847 328.795 160.847 327.841C160.847 326.972 160.604 326.264 160.118 325.719C159.632 325.173 158.993 324.73 158.2 324.389C157.408 324.048 156.551 323.75 155.631 323.494L152.409 322.574C150.364 321.986 148.744 321.146 147.551 320.055C146.358 318.964 145.761 317.537 145.761 315.773C145.761 314.307 146.158 313.028 146.95 311.938C147.751 310.838 148.825 309.986 150.172 309.381C151.527 308.767 153.04 308.46 154.71 308.46C156.398 308.46 157.898 308.763 159.21 309.368C160.523 309.964 161.563 310.783 162.33 311.822C163.105 312.862 163.514 314.043 163.557 315.364H160.489Z" fill="white"/>
<path d="M83.4318 277.273V244.545H85.5284V277.273H83.4318ZM90.4886 254.364C90.3352 253.068 89.7131 252.062 88.6222 251.347C87.5313 250.631 86.1932 250.273 84.608 250.273C83.4489 250.273 82.4347 250.46 81.5653 250.835C80.7045 251.21 80.0313 251.726 79.5455 252.382C79.0682 253.038 78.8295 253.784 78.8295 254.619C78.8295 255.318 78.9957 255.919 79.3281 256.422C79.669 256.916 80.1037 257.33 80.6321 257.662C81.1605 257.986 81.7145 258.254 82.294 258.467C82.8736 258.672 83.4062 258.838 83.892 258.966L86.5511 259.682C87.233 259.861 87.9915 260.108 88.8267 260.423C89.6705 260.739 90.4759 261.169 91.2429 261.714C92.0185 262.251 92.6577 262.942 93.1605 263.786C93.6634 264.629 93.9148 265.665 93.9148 266.892C93.9148 268.307 93.544 269.585 92.8026 270.727C92.0696 271.869 90.9957 272.777 89.581 273.45C88.1747 274.124 86.4659 274.46 84.4545 274.46C82.5795 274.46 80.956 274.158 79.5838 273.553C78.2202 272.947 77.1463 272.104 76.3622 271.021C75.5866 269.939 75.1477 268.682 75.0455 267.25H78.3182C78.4034 268.239 78.7358 269.057 79.3153 269.705C79.9034 270.344 80.6449 270.821 81.5398 271.136C82.4432 271.443 83.4148 271.597 84.4545 271.597C85.6648 271.597 86.7514 271.401 87.7145 271.009C88.6776 270.608 89.4403 270.054 90.0028 269.347C90.5653 268.631 90.8466 267.795 90.8466 266.841C90.8466 265.972 90.6037 265.264 90.1179 264.719C89.6321 264.173 88.9929 263.73 88.2003 263.389C87.4077 263.048 86.5511 262.75 85.6307 262.494L82.4091 261.574C80.3636 260.986 78.7443 260.146 77.5511 259.055C76.358 257.964 75.7614 256.537 75.7614 254.773C75.7614 253.307 76.1577 252.028 76.9503 250.938C77.7514 249.838 78.8253 248.986 80.1719 248.381C81.527 247.767 83.0398 247.46 84.7102 247.46C86.3977 247.46 87.8977 247.763 89.2102 248.368C90.5227 248.964 91.5625 249.783 92.3295 250.822C93.1051 251.862 93.5142 253.043 93.5568 254.364H90.4886Z" fill="white"/>
</svg>
