<svg width="759" height="399" viewBox="0 0 759 399" fill="none" xmlns="http://www.w3.org/2000/svg">
<rect width="759" height="399" fill="#1E1E1E"/>
<path d="M0.714 313.978C1.89933 313.026 2.828 312.247 3.5 311.64C4.172 311.024 4.73667 310.385 5.194 309.722C5.66067 309.05 5.894 308.392 5.894 307.748C5.894 307.141 5.74467 306.665 5.446 306.32C5.15667 305.965 4.68533 305.788 4.032 305.788C3.39733 305.788 2.90267 305.989 2.548 306.39C2.20267 306.782 2.016 307.309 1.988 307.972H0.756C0.793333 306.927 1.11067 306.119 1.708 305.55C2.30533 304.981 3.07533 304.696 4.018 304.696C4.97933 304.696 5.74 304.962 6.3 305.494C6.86933 306.026 7.154 306.759 7.154 307.692C7.154 308.467 6.92067 309.223 6.454 309.96C5.99667 310.688 5.474 311.332 4.886 311.892C4.298 312.443 3.54667 313.087 2.632 313.824H7.448V314.888H0.714V313.978ZM8.92073 309.834C8.92073 308.229 9.18207 306.978 9.70473 306.082C10.2274 305.177 11.1421 304.724 12.4487 304.724C13.7461 304.724 14.6561 305.177 15.1787 306.082C15.7014 306.978 15.9627 308.229 15.9627 309.834C15.9627 311.467 15.7014 312.737 15.1787 313.642C14.6561 314.547 13.7461 315 12.4487 315C11.1421 315 10.2274 314.547 9.70473 313.642C9.18207 312.737 8.92073 311.467 8.92073 309.834ZM14.7027 309.834C14.7027 309.022 14.6467 308.336 14.5347 307.776C14.4321 307.207 14.2127 306.749 13.8767 306.404C13.5501 306.059 13.0741 305.886 12.4487 305.886C11.8141 305.886 11.3287 306.059 10.9927 306.404C10.6661 306.749 10.4467 307.207 10.3347 307.776C10.2321 308.336 10.1807 309.022 10.1807 309.834C10.1807 310.674 10.2321 311.379 10.3347 311.948C10.4467 312.517 10.6661 312.975 10.9927 313.32C11.3287 313.665 11.8141 313.838 12.4487 313.838C13.0741 313.838 13.5501 313.665 13.8767 313.32C14.2127 312.975 14.4321 312.517 14.5347 311.948C14.6467 311.379 14.7027 310.674 14.7027 309.834ZM17.7118 309.834C17.7118 308.229 17.9731 306.978 18.4958 306.082C19.0184 305.177 19.9331 304.724 21.2398 304.724C22.5371 304.724 23.4471 305.177 23.9698 306.082C24.4924 306.978 24.7537 308.229 24.7537 309.834C24.7537 311.467 24.4924 312.737 23.9698 313.642C23.4471 314.547 22.5371 315 21.2398 315C19.9331 315 19.0184 314.547 18.4958 313.642C17.9731 312.737 17.7118 311.467 17.7118 309.834ZM23.4938 309.834C23.4938 309.022 23.4378 308.336 23.3258 307.776C23.2231 307.207 23.0038 306.749 22.6678 306.404C22.3411 306.059 21.8651 305.886 21.2398 305.886C20.6051 305.886 20.1198 306.059 19.7838 306.404C19.4571 306.749 19.2378 307.207 19.1258 307.776C19.0231 308.336 18.9718 309.022 18.9718 309.834C18.9718 310.674 19.0231 311.379 19.1258 311.948C19.2378 312.517 19.4571 312.975 19.7838 313.32C20.1198 313.665 20.6051 313.838 21.2398 313.838C21.8651 313.838 22.3411 313.665 22.6678 313.32C23.0038 312.975 23.2231 312.517 23.3258 311.948C23.4378 311.379 23.4938 310.674 23.4938 309.834ZM30.9968 315L27.9868 311.612V315H26.7128V304.64H27.9868V310.73L30.9408 307.328H32.7188L29.1068 311.15L32.7328 315H30.9968Z" fill="#808080"/>
<path d="M0.56 237.746V236.78L5.474 229.976H7V236.64H8.4V237.746H7V240H5.74V237.746H0.56ZM5.796 231.306L2.03 236.64H5.796V231.306ZM9.67269 234.834C9.67269 233.229 9.93402 231.978 10.4567 231.082C10.9794 230.177 11.894 229.724 13.2007 229.724C14.498 229.724 15.408 230.177 15.9307 231.082C16.4534 231.978 16.7147 233.229 16.7147 234.834C16.7147 236.467 16.4534 237.737 15.9307 238.642C15.408 239.547 14.498 240 13.2007 240C11.894 240 10.9794 239.547 10.4567 238.642C9.93402 237.737 9.67269 236.467 9.67269 234.834ZM15.4547 234.834C15.4547 234.022 15.3987 233.336 15.2867 232.776C15.184 232.207 14.9647 231.749 14.6287 231.404C14.302 231.059 13.826 230.886 13.2007 230.886C12.566 230.886 12.0807 231.059 11.7447 231.404C11.418 231.749 11.1987 232.207 11.0867 232.776C10.984 233.336 10.9327 234.022 10.9327 234.834C10.9327 235.674 10.984 236.379 11.0867 236.948C11.1987 237.517 11.418 237.975 11.7447 238.32C12.0807 238.665 12.566 238.838 13.2007 238.838C13.826 238.838 14.302 238.665 14.6287 238.32C14.9647 237.975 15.184 237.517 15.2867 236.948C15.3987 236.379 15.4547 235.674 15.4547 234.834ZM18.4637 234.834C18.4637 233.229 18.725 231.978 19.2477 231.082C19.7704 230.177 20.685 229.724 21.9917 229.724C23.289 229.724 24.199 230.177 24.7217 231.082C25.2444 231.978 25.5057 233.229 25.5057 234.834C25.5057 236.467 25.2444 237.737 24.7217 238.642C24.199 239.547 23.289 240 21.9917 240C20.685 240 19.7704 239.547 19.2477 238.642C18.725 237.737 18.4637 236.467 18.4637 234.834ZM24.2457 234.834C24.2457 234.022 24.1897 233.336 24.0777 232.776C23.975 232.207 23.7557 231.749 23.4197 231.404C23.093 231.059 22.617 230.886 21.9917 230.886C21.357 230.886 20.8717 231.059 20.5357 231.404C20.209 231.749 19.9897 232.207 19.8777 232.776C19.775 233.336 19.7237 234.022 19.7237 234.834C19.7237 235.674 19.775 236.379 19.8777 236.948C19.9897 237.517 20.209 237.975 20.5357 238.32C20.8717 238.665 21.357 238.838 21.9917 238.838C22.617 238.838 23.093 238.665 23.4197 238.32C23.7557 237.975 23.975 237.517 24.0777 236.948C24.1897 236.379 24.2457 235.674 24.2457 234.834ZM31.7487 240L28.7387 236.612V240H27.4647V229.64H28.7387V235.73L31.6927 232.328H33.4707L29.8587 236.15L33.4847 240H31.7487Z" fill="#808080"/>
<path d="M6.51 157.286C6.30467 156.25 5.66533 155.732 4.592 155.732C3.76133 155.732 3.14067 156.054 2.73 156.698C2.31933 157.333 2.11867 158.383 2.128 159.848C2.34267 159.363 2.69733 158.985 3.192 158.714C3.696 158.434 4.256 158.294 4.872 158.294C5.83333 158.294 6.59867 158.593 7.168 159.19C7.74667 159.787 8.036 160.613 8.036 161.668C8.036 162.303 7.91 162.872 7.658 163.376C7.41533 163.88 7.042 164.281 6.538 164.58C6.04333 164.879 5.44133 165.028 4.732 165.028C3.77067 165.028 3.01933 164.813 2.478 164.384C1.93667 163.955 1.55867 163.362 1.344 162.606C1.12933 161.85 1.022 160.917 1.022 159.806C1.022 156.381 2.21667 154.668 4.606 154.668C5.52067 154.668 6.23933 154.915 6.762 155.41C7.28467 155.905 7.59267 156.53 7.686 157.286H6.51ZM4.606 159.372C4.20467 159.372 3.82667 159.456 3.472 159.624C3.11733 159.783 2.828 160.03 2.604 160.366C2.38933 160.693 2.282 161.094 2.282 161.57C2.282 162.279 2.48733 162.858 2.898 163.306C3.30867 163.745 3.89667 163.964 4.662 163.964C5.31533 163.964 5.83333 163.763 6.216 163.362C6.608 162.951 6.804 162.401 6.804 161.71C6.804 160.982 6.61733 160.413 6.244 160.002C5.87067 159.582 5.32467 159.372 4.606 159.372ZM9.75472 159.834C9.75472 158.229 10.0161 156.978 10.5387 156.082C11.0614 155.177 11.9761 154.724 13.2827 154.724C14.5801 154.724 15.4901 155.177 16.0127 156.082C16.5354 156.978 16.7967 158.229 16.7967 159.834C16.7967 161.467 16.5354 162.737 16.0127 163.642C15.4901 164.547 14.5801 165 13.2827 165C11.9761 165 11.0614 164.547 10.5387 163.642C10.0161 162.737 9.75472 161.467 9.75472 159.834ZM15.5367 159.834C15.5367 159.022 15.4807 158.336 15.3687 157.776C15.2661 157.207 15.0467 156.749 14.7107 156.404C14.3841 156.059 13.9081 155.886 13.2827 155.886C12.6481 155.886 12.1627 156.059 11.8267 156.404C11.5001 156.749 11.2807 157.207 11.1687 157.776C11.0661 158.336 11.0147 159.022 11.0147 159.834C11.0147 160.674 11.0661 161.379 11.1687 161.948C11.2807 162.517 11.5001 162.975 11.8267 163.32C12.1627 163.665 12.6481 163.838 13.2827 163.838C13.9081 163.838 14.3841 163.665 14.7107 163.32C15.0467 162.975 15.2661 162.517 15.3687 161.948C15.4807 161.379 15.5367 160.674 15.5367 159.834ZM18.5457 159.834C18.5457 158.229 18.8071 156.978 19.3297 156.082C19.8524 155.177 20.7671 154.724 22.0737 154.724C23.3711 154.724 24.2811 155.177 24.8037 156.082C25.3264 156.978 25.5877 158.229 25.5877 159.834C25.5877 161.467 25.3264 162.737 24.8037 163.642C24.2811 164.547 23.3711 165 22.0737 165C20.7671 165 19.8524 164.547 19.3297 163.642C18.8071 162.737 18.5457 161.467 18.5457 159.834ZM24.3277 159.834C24.3277 159.022 24.2717 158.336 24.1597 157.776C24.0571 157.207 23.8377 156.749 23.5017 156.404C23.1751 156.059 22.6991 155.886 22.0737 155.886C21.4391 155.886 20.9537 156.059 20.6177 156.404C20.2911 156.749 20.0717 157.207 19.9597 157.776C19.8571 158.336 19.8057 159.022 19.8057 159.834C19.8057 160.674 19.8571 161.379 19.9597 161.948C20.0717 162.517 20.2911 162.975 20.6177 163.32C20.9537 163.665 21.4391 163.838 22.0737 163.838C22.6991 163.838 23.1751 163.665 23.5017 163.32C23.8377 162.975 24.0571 162.517 24.1597 161.948C24.2717 161.379 24.3277 160.674 24.3277 159.834ZM31.8308 165L28.8208 161.612V165H27.5468V154.64H28.8208V160.73L31.7748 157.328H33.5528L29.9408 161.15L33.5668 165H31.8308Z" fill="#808080"/>
<path d="M2.716 84.736C2.19333 84.5307 1.792 84.232 1.512 83.84C1.232 83.448 1.092 82.972 1.092 82.412C1.092 81.908 1.218 81.4553 1.47 81.054C1.722 80.6433 2.09533 80.3213 2.59 80.088C3.094 79.8453 3.70067 79.724 4.41 79.724C5.11933 79.724 5.72133 79.8453 6.216 80.088C6.72 80.3213 7.098 80.6433 7.35 81.054C7.61133 81.4553 7.742 81.908 7.742 82.412C7.742 82.9533 7.59733 83.4293 7.308 83.84C7.01867 84.2413 6.622 84.54 6.118 84.736C6.69667 84.9133 7.154 85.226 7.49 85.674C7.83533 86.1127 8.008 86.6447 8.008 87.27C8.008 87.8767 7.85867 88.4087 7.56 88.866C7.26133 89.314 6.83667 89.664 6.286 89.916C5.74467 90.1587 5.11933 90.28 4.41 90.28C3.70067 90.28 3.07533 90.1587 2.534 89.916C2.002 89.664 1.58667 89.314 1.288 88.866C0.989333 88.4087 0.84 87.8767 0.84 87.27C0.84 86.6447 1.008 86.108 1.344 85.66C1.68 85.212 2.13733 84.904 2.716 84.736ZM6.51 82.566C6.51 81.9967 6.32333 81.558 5.95 81.25C5.57667 80.942 5.06333 80.788 4.41 80.788C3.766 80.788 3.25733 80.942 2.884 81.25C2.51067 81.558 2.324 82.0013 2.324 82.58C2.324 83.1027 2.51533 83.5227 2.898 83.84C3.29 84.1573 3.794 84.316 4.41 84.316C5.03533 84.316 5.53933 84.1573 5.922 83.84C6.314 83.5133 6.51 83.0887 6.51 82.566ZM4.41 85.296C3.71933 85.296 3.15467 85.4593 2.716 85.786C2.27733 86.1033 2.058 86.584 2.058 87.228C2.058 87.8253 2.268 88.306 2.688 88.67C3.11733 89.034 3.69133 89.216 4.41 89.216C5.12867 89.216 5.698 89.034 6.118 88.67C6.538 88.306 6.748 87.8253 6.748 87.228C6.748 86.6027 6.53333 86.1267 6.104 85.8C5.67467 85.464 5.11 85.296 4.41 85.296ZM9.70003 84.834C9.70003 83.2287 9.96136 81.978 10.484 81.082C11.0067 80.1767 11.9214 79.724 13.228 79.724C14.5254 79.724 15.4354 80.1767 15.958 81.082C16.4807 81.978 16.742 83.2287 16.742 84.834C16.742 86.4673 16.4807 87.7367 15.958 88.642C15.4354 89.5473 14.5254 90 13.228 90C11.9214 90 11.0067 89.5473 10.484 88.642C9.96136 87.7367 9.70003 86.4673 9.70003 84.834ZM15.482 84.834C15.482 84.022 15.426 83.336 15.314 82.776C15.2114 82.2067 14.992 81.7493 14.656 81.404C14.3294 81.0587 13.8534 80.886 13.228 80.886C12.5934 80.886 12.108 81.0587 11.772 81.404C11.4454 81.7493 11.226 82.2067 11.114 82.776C11.0114 83.336 10.96 84.022 10.96 84.834C10.96 85.674 11.0114 86.3787 11.114 86.948C11.226 87.5173 11.4454 87.9747 11.772 88.32C12.108 88.6653 12.5934 88.838 13.228 88.838C13.8534 88.838 14.3294 88.6653 14.656 88.32C14.992 87.9747 15.2114 87.5173 15.314 86.948C15.426 86.3787 15.482 85.674 15.482 84.834ZM18.491 84.834C18.491 83.2287 18.7524 81.978 19.275 81.082C19.7977 80.1767 20.7124 79.724 22.019 79.724C23.3164 79.724 24.2264 80.1767 24.749 81.082C25.2717 81.978 25.533 83.2287 25.533 84.834C25.533 86.4673 25.2717 87.7367 24.749 88.642C24.2264 89.5473 23.3164 90 22.019 90C20.7124 90 19.7977 89.5473 19.275 88.642C18.7524 87.7367 18.491 86.4673 18.491 84.834ZM24.273 84.834C24.273 84.022 24.217 83.336 24.105 82.776C24.0024 82.2067 23.783 81.7493 23.447 81.404C23.1204 81.0587 22.6444 80.886 22.019 80.886C21.3844 80.886 20.899 81.0587 20.563 81.404C20.2364 81.7493 20.017 82.2067 19.905 82.776C19.8024 83.336 19.751 84.022 19.751 84.834C19.751 85.674 19.8024 86.3787 19.905 86.948C20.017 87.5173 20.2364 87.9747 20.563 88.32C20.899 88.6653 21.3844 88.838 22.019 88.838C22.6444 88.838 23.1204 88.6653 23.447 88.32C23.783 87.9747 24.0024 87.5173 24.105 86.948C24.217 86.3787 24.273 85.674 24.273 84.834ZM31.7761 90L28.7661 86.612V90H27.4921V79.64H28.7661V85.73L31.7201 82.328H33.4981L29.8861 86.15L33.5121 90H31.7761Z" fill="#808080"/>
<path d="M0.532 6.04V4.878H3.164V15H1.876V6.04H0.532ZM6.87838 13.236L5.31038 17.002H4.45637L5.47838 13.236H6.87838ZM8.12777 9.834C8.12777 8.22867 8.3891 6.978 8.91177 6.082C9.43443 5.17667 10.3491 4.724 11.6558 4.724C12.9531 4.724 13.8631 5.17667 14.3858 6.082C14.9084 6.978 15.1698 8.22867 15.1698 9.834C15.1698 11.4673 14.9084 12.7367 14.3858 13.642C13.8631 14.5473 12.9531 15 11.6558 15C10.3491 15 9.43443 14.5473 8.91177 13.642C8.3891 12.7367 8.12777 11.4673 8.12777 9.834ZM13.9098 9.834C13.9098 9.022 13.8538 8.336 13.7418 7.776C13.6391 7.20667 13.4198 6.74933 13.0838 6.404C12.7571 6.05867 12.2811 5.886 11.6558 5.886C11.0211 5.886 10.5358 6.05867 10.1998 6.404C9.8731 6.74933 9.65377 7.20667 9.54177 7.776C9.4391 8.336 9.38777 9.022 9.38777 9.834C9.38777 10.674 9.4391 11.3787 9.54177 11.948C9.65377 12.5173 9.8731 12.9747 10.1998 13.32C10.5358 13.6653 11.0211 13.838 11.6558 13.838C12.2811 13.838 12.7571 13.6653 13.0838 13.32C13.4198 12.9747 13.6391 12.5173 13.7418 11.948C13.8538 11.3787 13.9098 10.674 13.9098 9.834ZM16.9188 9.834C16.9188 8.22867 17.1801 6.978 17.7028 6.082C18.2254 5.17667 19.1401 4.724 20.4468 4.724C21.7441 4.724 22.6541 5.17667 23.1768 6.082C23.6994 6.978 23.9608 8.22867 23.9608 9.834C23.9608 11.4673 23.6994 12.7367 23.1768 13.642C22.6541 14.5473 21.7441 15 20.4468 15C19.1401 15 18.2254 14.5473 17.7028 13.642C17.1801 12.7367 16.9188 11.4673 16.9188 9.834ZM22.7008 9.834C22.7008 9.022 22.6448 8.336 22.5328 7.776C22.4301 7.20667 22.2108 6.74933 21.8748 6.404C21.5481 6.05867 21.0721 5.886 20.4468 5.886C19.8121 5.886 19.3268 6.05867 18.9908 6.404C18.6641 6.74933 18.4448 7.20667 18.3328 7.776C18.2301 8.336 18.1788 9.022 18.1788 9.834C18.1788 10.674 18.2301 11.3787 18.3328 11.948C18.4448 12.5173 18.6641 12.9747 18.9908 13.32C19.3268 13.6653 19.8121 13.838 20.4468 13.838C21.0721 13.838 21.5481 13.6653 21.8748 13.32C22.2108 12.9747 22.4301 12.5173 22.5328 11.948C22.6448 11.3787 22.7008 10.674 22.7008 9.834ZM25.7098 9.834C25.7098 8.22867 25.9711 6.978 26.4938 6.082C27.0165 5.17667 27.9311 4.724 29.2378 4.724C30.5351 4.724 31.4451 5.17667 31.9678 6.082C32.4905 6.978 32.7518 8.22867 32.7518 9.834C32.7518 11.4673 32.4905 12.7367 31.9678 13.642C31.4451 14.5473 30.5351 15 29.2378 15C27.9311 15 27.0165 14.5473 26.4938 13.642C25.9711 12.7367 25.7098 11.4673 25.7098 9.834ZM31.4918 9.834C31.4918 9.022 31.4358 8.336 31.3238 7.776C31.2211 7.20667 31.0018 6.74933 30.6658 6.404C30.3391 6.05867 29.8631 5.886 29.2378 5.886C28.6031 5.886 28.1178 6.05867 27.7818 6.404C27.4551 6.74933 27.2358 7.20667 27.1238 7.776C27.0211 8.336 26.9698 9.022 26.9698 9.834C26.9698 10.674 27.0211 11.3787 27.1238 11.948C27.2358 12.5173 27.4551 12.9747 27.7818 13.32C28.1178 13.6653 28.6031 13.838 29.2378 13.838C29.8631 13.838 30.3391 13.6653 30.6658 13.32C31.0018 12.9747 31.2211 12.5173 31.3238 11.948C31.4358 11.3787 31.4918 10.674 31.4918 9.834ZM38.9948 15L35.9848 11.612V15H34.7108V4.64H35.9848V10.73L38.9388 7.328H40.7168L37.1048 11.15L40.7308 15H38.9948Z" fill="#808080"/>
<path d="M89.868 383.834C89.868 382.229 90.1293 380.978 90.652 380.082C91.1747 379.177 92.0893 378.724 93.396 378.724C94.6933 378.724 95.6033 379.177 96.126 380.082C96.6487 380.978 96.91 382.229 96.91 383.834C96.91 385.467 96.6487 386.737 96.126 387.642C95.6033 388.547 94.6933 389 93.396 389C92.0893 389 91.1747 388.547 90.652 387.642C90.1293 386.737 89.868 385.467 89.868 383.834ZM95.65 383.834C95.65 383.022 95.594 382.336 95.482 381.776C95.3793 381.207 95.16 380.749 94.824 380.404C94.4973 380.059 94.0213 379.886 93.396 379.886C92.7613 379.886 92.276 380.059 91.94 380.404C91.6133 380.749 91.394 381.207 91.282 381.776C91.1793 382.336 91.128 383.022 91.128 383.834C91.128 384.674 91.1793 385.379 91.282 385.948C91.394 386.517 91.6133 386.975 91.94 387.32C92.276 387.665 92.7613 387.838 93.396 387.838C94.0213 387.838 94.4973 387.665 94.824 387.32C95.16 386.975 95.3793 386.517 95.482 385.948C95.594 385.379 95.65 384.674 95.65 383.834ZM104.301 381.286C104.096 380.25 103.456 379.732 102.383 379.732C101.552 379.732 100.932 380.054 100.521 380.698C100.11 381.333 99.9097 382.383 99.919 383.848C100.134 383.363 100.488 382.985 100.983 382.714C101.487 382.434 102.047 382.294 102.663 382.294C103.624 382.294 104.39 382.593 104.959 383.19C105.538 383.787 105.827 384.613 105.827 385.668C105.827 386.303 105.701 386.872 105.449 387.376C105.206 387.88 104.833 388.281 104.329 388.58C103.834 388.879 103.232 389.028 102.523 389.028C101.562 389.028 100.81 388.813 100.269 388.384C99.7277 387.955 99.3497 387.362 99.135 386.606C98.9203 385.85 98.813 384.917 98.813 383.806C98.813 380.381 100.008 378.668 102.397 378.668C103.312 378.668 104.03 378.915 104.553 379.41C105.076 379.905 105.384 380.53 105.477 381.286H104.301ZM102.397 383.372C101.996 383.372 101.618 383.456 101.263 383.624C100.908 383.783 100.619 384.03 100.395 384.366C100.18 384.693 100.073 385.094 100.073 385.57C100.073 386.279 100.278 386.858 100.689 387.306C101.1 387.745 101.688 387.964 102.453 387.964C103.106 387.964 103.624 387.763 104.007 387.362C104.399 386.951 104.595 386.401 104.595 385.71C104.595 384.982 104.408 384.413 104.035 384.002C103.662 383.582 103.116 383.372 102.397 383.372Z" fill="#808080"/>
<path d="M146.868 383.834C146.868 382.229 147.129 380.978 147.652 380.082C148.175 379.177 149.089 378.724 150.396 378.724C151.693 378.724 152.603 379.177 153.126 380.082C153.649 380.978 153.91 382.229 153.91 383.834C153.91 385.467 153.649 386.737 153.126 387.642C152.603 388.547 151.693 389 150.396 389C149.089 389 148.175 388.547 147.652 387.642C147.129 386.737 146.868 385.467 146.868 383.834ZM152.65 383.834C152.65 383.022 152.594 382.336 152.482 381.776C152.379 381.207 152.16 380.749 151.824 380.404C151.497 380.059 151.021 379.886 150.396 379.886C149.761 379.886 149.276 380.059 148.94 380.404C148.613 380.749 148.394 381.207 148.282 381.776C148.179 382.336 148.128 383.022 148.128 383.834C148.128 384.674 148.179 385.379 148.282 385.948C148.394 386.517 148.613 386.975 148.94 387.32C149.276 387.665 149.761 387.838 150.396 387.838C151.021 387.838 151.497 387.665 151.824 387.32C152.16 386.975 152.379 386.517 152.482 385.948C152.594 385.379 152.65 384.674 152.65 383.834ZM161.889 379.872L157.997 389H156.709L160.657 379.998H155.253V378.906H161.889V379.872Z" fill="#808080"/>
<path d="M200.868 383.834C200.868 382.229 201.129 380.978 201.652 380.082C202.175 379.177 203.089 378.724 204.396 378.724C205.693 378.724 206.603 379.177 207.126 380.082C207.649 380.978 207.91 382.229 207.91 383.834C207.91 385.467 207.649 386.737 207.126 387.642C206.603 388.547 205.693 389 204.396 389C203.089 389 202.175 388.547 201.652 387.642C201.129 386.737 200.868 385.467 200.868 383.834ZM206.65 383.834C206.65 383.022 206.594 382.336 206.482 381.776C206.379 381.207 206.16 380.749 205.824 380.404C205.497 380.059 205.021 379.886 204.396 379.886C203.761 379.886 203.276 380.059 202.94 380.404C202.613 380.749 202.394 381.207 202.282 381.776C202.179 382.336 202.128 383.022 202.128 383.834C202.128 384.674 202.179 385.379 202.282 385.948C202.394 386.517 202.613 386.975 202.94 387.32C203.276 387.665 203.761 387.838 204.396 387.838C205.021 387.838 205.497 387.665 205.824 387.32C206.16 386.975 206.379 386.517 206.482 385.948C206.594 385.379 206.65 384.674 206.65 383.834ZM211.507 383.736C210.984 383.531 210.583 383.232 210.303 382.84C210.023 382.448 209.883 381.972 209.883 381.412C209.883 380.908 210.009 380.455 210.261 380.054C210.513 379.643 210.886 379.321 211.381 379.088C211.885 378.845 212.492 378.724 213.201 378.724C213.91 378.724 214.512 378.845 215.007 379.088C215.511 379.321 215.889 379.643 216.141 380.054C216.402 380.455 216.533 380.908 216.533 381.412C216.533 381.953 216.388 382.429 216.099 382.84C215.81 383.241 215.413 383.54 214.909 383.736C215.488 383.913 215.945 384.226 216.281 384.674C216.626 385.113 216.799 385.645 216.799 386.27C216.799 386.877 216.65 387.409 216.351 387.866C216.052 388.314 215.628 388.664 215.077 388.916C214.536 389.159 213.91 389.28 213.201 389.28C212.492 389.28 211.866 389.159 211.325 388.916C210.793 388.664 210.378 388.314 210.079 387.866C209.78 387.409 209.631 386.877 209.631 386.27C209.631 385.645 209.799 385.108 210.135 384.66C210.471 384.212 210.928 383.904 211.507 383.736ZM215.301 381.566C215.301 380.997 215.114 380.558 214.741 380.25C214.368 379.942 213.854 379.788 213.201 379.788C212.557 379.788 212.048 379.942 211.675 380.25C211.302 380.558 211.115 381.001 211.115 381.58C211.115 382.103 211.306 382.523 211.689 382.84C212.081 383.157 212.585 383.316 213.201 383.316C213.826 383.316 214.33 383.157 214.713 382.84C215.105 382.513 215.301 382.089 215.301 381.566ZM213.201 384.296C212.51 384.296 211.946 384.459 211.507 384.786C211.068 385.103 210.849 385.584 210.849 386.228C210.849 386.825 211.059 387.306 211.479 387.67C211.908 388.034 212.482 388.216 213.201 388.216C213.92 388.216 214.489 388.034 214.909 387.67C215.329 387.306 215.539 386.825 215.539 386.228C215.539 385.603 215.324 385.127 214.895 384.8C214.466 384.464 213.901 384.296 213.201 384.296Z" fill="#808080"/>
<path d="M255.868 383.834C255.868 382.229 256.129 380.978 256.652 380.082C257.175 379.177 258.089 378.724 259.396 378.724C260.693 378.724 261.603 379.177 262.126 380.082C262.649 380.978 262.91 382.229 262.91 383.834C262.91 385.467 262.649 386.737 262.126 387.642C261.603 388.547 260.693 389 259.396 389C258.089 389 257.175 388.547 256.652 387.642C256.129 386.737 255.868 385.467 255.868 383.834ZM261.65 383.834C261.65 383.022 261.594 382.336 261.482 381.776C261.379 381.207 261.16 380.749 260.824 380.404C260.497 380.059 260.021 379.886 259.396 379.886C258.761 379.886 258.276 380.059 257.94 380.404C257.613 380.749 257.394 381.207 257.282 381.776C257.179 382.336 257.128 383.022 257.128 383.834C257.128 384.674 257.179 385.379 257.282 385.948C257.394 386.517 257.613 386.975 257.94 387.32C258.276 387.665 258.761 387.838 259.396 387.838C260.021 387.838 260.497 387.665 260.824 387.32C261.16 386.975 261.379 386.517 261.482 385.948C261.594 385.379 261.65 384.674 261.65 383.834ZM266.297 386.284C266.39 386.816 266.605 387.227 266.941 387.516C267.286 387.805 267.748 387.95 268.327 387.95C269.102 387.95 269.671 387.647 270.035 387.04C270.408 386.433 270.586 385.411 270.567 383.974C270.371 384.394 270.044 384.725 269.587 384.968C269.13 385.201 268.621 385.318 268.061 385.318C267.436 385.318 266.876 385.192 266.381 384.94C265.896 384.679 265.513 384.301 265.233 383.806C264.953 383.311 264.813 382.714 264.813 382.014C264.813 381.015 265.102 380.213 265.681 379.606C266.26 378.99 267.081 378.682 268.145 378.682C269.452 378.682 270.366 379.107 270.889 379.956C271.421 380.805 271.687 382.07 271.687 383.75C271.687 384.926 271.58 385.897 271.365 386.662C271.16 387.427 270.805 388.011 270.301 388.412C269.806 388.813 269.125 389.014 268.257 389.014C267.305 389.014 266.563 388.757 266.031 388.244C265.499 387.731 265.196 387.077 265.121 386.284H266.297ZM268.271 384.24C268.896 384.24 269.41 384.049 269.811 383.666C270.212 383.274 270.413 382.747 270.413 382.084C270.413 381.384 270.217 380.819 269.825 380.39C269.433 379.961 268.882 379.746 268.173 379.746C267.52 379.746 266.997 379.951 266.605 380.362C266.222 380.773 266.031 381.314 266.031 381.986C266.031 382.667 266.222 383.213 266.605 383.624C266.988 384.035 267.543 384.24 268.271 384.24Z" fill="#808080"/>
<path d="M309.532 380.04V378.878H312.164V389H310.876V380.04H309.532ZM314.352 383.834C314.352 382.229 314.614 380.978 315.136 380.082C315.659 379.177 316.574 378.724 317.88 378.724C319.178 378.724 320.088 379.177 320.61 380.082C321.133 380.978 321.394 382.229 321.394 383.834C321.394 385.467 321.133 386.737 320.61 387.642C320.088 388.547 319.178 389 317.88 389C316.574 389 315.659 388.547 315.136 387.642C314.614 386.737 314.352 385.467 314.352 383.834ZM320.134 383.834C320.134 383.022 320.078 382.336 319.966 381.776C319.864 381.207 319.644 380.749 319.308 380.404C318.982 380.059 318.506 379.886 317.88 379.886C317.246 379.886 316.76 380.059 316.424 380.404C316.098 380.749 315.878 381.207 315.766 381.776C315.664 382.336 315.612 383.022 315.612 383.834C315.612 384.674 315.664 385.379 315.766 385.948C315.878 386.517 316.098 386.975 316.424 387.32C316.76 387.665 317.246 387.838 317.88 387.838C318.506 387.838 318.982 387.665 319.308 387.32C319.644 386.975 319.864 386.517 319.966 385.948C320.078 385.379 320.134 384.674 320.134 383.834Z" fill="#808080"/>
<path d="M363.532 380.04V378.878H366.164V389H364.876V380.04H363.532ZM368.016 380.04V378.878H370.648V389H369.36V380.04H368.016Z" fill="#808080"/>
<path d="M420.532 380.04V378.878H423.164V389H421.876V380.04H420.532ZM425.198 387.978C426.384 387.026 427.312 386.247 427.984 385.64C428.656 385.024 429.221 384.385 429.678 383.722C430.145 383.05 430.378 382.392 430.378 381.748C430.378 381.141 430.229 380.665 429.93 380.32C429.641 379.965 429.17 379.788 428.516 379.788C427.882 379.788 427.387 379.989 427.032 380.39C426.687 380.782 426.5 381.309 426.472 381.972H425.24C425.278 380.927 425.595 380.119 426.192 379.55C426.79 378.981 427.56 378.696 428.502 378.696C429.464 378.696 430.224 378.962 430.784 379.494C431.354 380.026 431.638 380.759 431.638 381.692C431.638 382.467 431.405 383.223 430.938 383.96C430.481 384.688 429.958 385.332 429.37 385.892C428.782 386.443 428.031 387.087 427.116 387.824H431.932V388.888H425.198V387.978Z" fill="#808080"/>
<path d="M472.532 380.04V378.878H475.164V389H473.876V380.04H472.532ZM477.324 381.426C477.39 380.567 477.721 379.895 478.318 379.41C478.916 378.925 479.69 378.682 480.642 378.682C481.277 378.682 481.823 378.799 482.28 379.032C482.747 379.256 483.097 379.564 483.33 379.956C483.573 380.348 483.694 380.791 483.694 381.286C483.694 381.865 483.526 382.364 483.19 382.784C482.864 383.204 482.434 383.475 481.902 383.596V383.666C482.509 383.815 482.99 384.109 483.344 384.548C483.699 384.987 483.876 385.561 483.876 386.27C483.876 386.802 483.755 387.283 483.512 387.712C483.27 388.132 482.906 388.463 482.42 388.706C481.935 388.949 481.352 389.07 480.67 389.07C479.681 389.07 478.869 388.813 478.234 388.3C477.6 387.777 477.245 387.04 477.17 386.088H478.402C478.468 386.648 478.696 387.105 479.088 387.46C479.48 387.815 480.003 387.992 480.656 387.992C481.31 387.992 481.804 387.824 482.14 387.488C482.486 387.143 482.658 386.699 482.658 386.158C482.658 385.458 482.425 384.954 481.958 384.646C481.492 384.338 480.787 384.184 479.844 384.184H479.522V383.12H479.858C480.717 383.111 481.366 382.971 481.804 382.7C482.243 382.42 482.462 381.991 482.462 381.412C482.462 380.917 482.299 380.521 481.972 380.222C481.655 379.923 481.198 379.774 480.6 379.774C480.022 379.774 479.555 379.923 479.2 380.222C478.846 380.521 478.636 380.922 478.57 381.426H477.324Z" fill="#808080"/>
<path d="M525.532 380.04V378.878H528.164V389H526.876V380.04H525.532ZM530.044 386.746V385.78L534.958 378.976H536.484V385.64H537.884V386.746H536.484V389H535.224V386.746H530.044ZM535.28 380.306L531.514 385.64H535.28V380.306Z" fill="#808080"/>
<path d="M579.532 380.04V378.878H582.164V389H580.876V380.04H579.532ZM590.806 379.984H585.892V383.176C586.107 382.877 586.424 382.635 586.844 382.448C587.264 382.252 587.717 382.154 588.202 382.154C588.977 382.154 589.607 382.317 590.092 382.644C590.578 382.961 590.923 383.377 591.128 383.89C591.343 384.394 591.45 384.931 591.45 385.5C591.45 386.172 591.324 386.774 591.072 387.306C590.82 387.838 590.433 388.258 589.91 388.566C589.397 388.874 588.758 389.028 587.992 389.028C587.012 389.028 586.219 388.776 585.612 388.272C585.006 387.768 584.637 387.096 584.506 386.256H585.752C585.874 386.788 586.13 387.203 586.522 387.502C586.914 387.801 587.409 387.95 588.006 387.95C588.744 387.95 589.299 387.731 589.672 387.292C590.046 386.844 590.232 386.256 590.232 385.528C590.232 384.8 590.046 384.24 589.672 383.848C589.299 383.447 588.748 383.246 588.02 383.246C587.526 383.246 587.092 383.367 586.718 383.61C586.354 383.843 586.088 384.165 585.92 384.576H584.716V378.864H590.806V379.984Z" fill="#808080"/>
<path d="M634.532 380.04V378.878H637.164V389H635.876V380.04H634.532ZM644.994 381.286C644.789 380.25 644.15 379.732 643.076 379.732C642.246 379.732 641.625 380.054 641.214 380.698C640.804 381.333 640.603 382.383 640.612 383.848C640.827 383.363 641.182 382.985 641.676 382.714C642.18 382.434 642.74 382.294 643.356 382.294C644.318 382.294 645.083 382.593 645.652 383.19C646.231 383.787 646.52 384.613 646.52 385.668C646.52 386.303 646.394 386.872 646.142 387.376C645.9 387.88 645.526 388.281 645.022 388.58C644.528 388.879 643.926 389.028 643.216 389.028C642.255 389.028 641.504 388.813 640.962 388.384C640.421 387.955 640.043 387.362 639.828 386.606C639.614 385.85 639.506 384.917 639.506 383.806C639.506 380.381 640.701 378.668 643.09 378.668C644.005 378.668 644.724 378.915 645.246 379.41C645.769 379.905 646.077 380.53 646.17 381.286H644.994ZM643.09 383.372C642.689 383.372 642.311 383.456 641.956 383.624C641.602 383.783 641.312 384.03 641.088 384.366C640.874 384.693 640.766 385.094 640.766 385.57C640.766 386.279 640.972 386.858 641.382 387.306C641.793 387.745 642.381 387.964 643.146 387.964C643.8 387.964 644.318 387.763 644.7 387.362C645.092 386.951 645.288 386.401 645.288 385.71C645.288 384.982 645.102 384.413 644.728 384.002C644.355 383.582 643.809 383.372 643.09 383.372Z" fill="#808080"/>
<path d="M683.532 380.04V378.878H686.164V389H684.876V380.04H683.532ZM694.582 379.872L690.69 389H689.402L693.35 379.998H687.946V378.906H694.582V379.872Z" fill="#808080"/>
<path d="M742.532 380.04V378.878H745.164V389H743.876V380.04H742.532ZM749.2 383.736C748.678 383.531 748.276 383.232 747.996 382.84C747.716 382.448 747.576 381.972 747.576 381.412C747.576 380.908 747.702 380.455 747.954 380.054C748.206 379.643 748.58 379.321 749.074 379.088C749.578 378.845 750.185 378.724 750.894 378.724C751.604 378.724 752.206 378.845 752.7 379.088C753.204 379.321 753.582 379.643 753.834 380.054C754.096 380.455 754.226 380.908 754.226 381.412C754.226 381.953 754.082 382.429 753.792 382.84C753.503 383.241 753.106 383.54 752.602 383.736C753.181 383.913 753.638 384.226 753.974 384.674C754.32 385.113 754.492 385.645 754.492 386.27C754.492 386.877 754.343 387.409 754.044 387.866C753.746 388.314 753.321 388.664 752.77 388.916C752.229 389.159 751.604 389.28 750.894 389.28C750.185 389.28 749.56 389.159 749.018 388.916C748.486 388.664 748.071 388.314 747.772 387.866C747.474 387.409 747.324 386.877 747.324 386.27C747.324 385.645 747.492 385.108 747.828 384.66C748.164 384.212 748.622 383.904 749.2 383.736ZM752.994 381.566C752.994 380.997 752.808 380.558 752.434 380.25C752.061 379.942 751.548 379.788 750.894 379.788C750.25 379.788 749.742 379.942 749.368 380.25C748.995 380.558 748.808 381.001 748.808 381.58C748.808 382.103 749 382.523 749.382 382.84C749.774 383.157 750.278 383.316 750.894 383.316C751.52 383.316 752.024 383.157 752.406 382.84C752.798 382.513 752.994 382.089 752.994 381.566ZM750.894 384.296C750.204 384.296 749.639 384.459 749.2 384.786C748.762 385.103 748.542 385.584 748.542 386.228C748.542 386.825 748.752 387.306 749.172 387.67C749.602 388.034 750.176 388.216 750.894 388.216C751.613 388.216 752.182 388.034 752.602 387.67C753.022 387.306 753.232 386.825 753.232 386.228C753.232 385.603 753.018 385.127 752.588 384.8C752.159 384.464 751.594 384.296 750.894 384.296Z" fill="#808080"/>
<rect width="15" height="355" rx="7.5" transform="matrix(-1 0 0 1 759 12)" fill="#EEEEEE"/>
<rect width="15" height="191" rx="7.5" transform="matrix(-1 0 0 1 759 176)" fill="url(#paint0_linear_102_3)"/>
<rect width="16" height="355" rx="8" transform="matrix(-1 0 0 1 705 12)" fill="#EEEEEE"/>
<rect width="16" height="296" rx="8" transform="matrix(-1 0 0 1 705 71)" fill="url(#paint1_linear_102_3)"/>
<rect width="16" height="355" rx="8" transform="matrix(-1 0 0 1 651 12)" fill="#EEEEEE"/>
<rect width="16" height="191" rx="8" transform="matrix(-1 0 0 1 651 177)" fill="url(#paint2_linear_102_3)"/>
<rect width="15" height="355" rx="7.5" transform="matrix(-1 0 0 1 596 12)" fill="#EEEEEE"/>
<rect width="15" height="139" rx="7.5" transform="matrix(-1 0 0 1 596 228)" fill="url(#paint3_linear_102_3)"/>
<rect width="16" height="355" rx="8" transform="matrix(-1 0 0 1 542 12)" fill="#EEEEEE"/>
<rect width="16" height="177" rx="8" transform="matrix(-1 0 0 1 542 190)" fill="url(#paint4_linear_102_3)"/>
<rect width="16" height="355" rx="8" transform="matrix(-1 0 0 1 488 12)" fill="#EEEEEE"/>
<rect width="16" height="164" rx="8" transform="matrix(-1 0 0 1 488 204)" fill="url(#paint5_linear_102_3)"/>
<rect width="15" height="355" rx="7.5" transform="matrix(-1 0 0 1 433 12)" fill="#EEEEEE"/>
<rect width="15" height="121" rx="7.5" transform="matrix(-1 0 0 1 433 246)" fill="url(#paint6_linear_102_3)"/>
<rect width="16" height="355" rx="8" transform="matrix(-1 0 0 1 379 12)" fill="#EEEEEE"/>
<rect width="16" height="149" rx="8" transform="matrix(-1 0 0 1 379 218)" fill="url(#paint7_linear_102_3)"/>
<rect width="16" height="355" rx="8" transform="matrix(-1 0 0 1 325 12)" fill="#EEEEEE"/>
<rect width="16" height="108" rx="8" transform="matrix(-1 0 0 1 325 259)" fill="url(#paint8_linear_102_3)"/>
<rect width="15" height="355" rx="7.5" transform="matrix(-1 0 0 1 270 12)" fill="#EEEEEE"/>
<rect width="15" height="191" rx="7.5" transform="matrix(-1 0 0 1 270 177)" fill="url(#paint9_linear_102_3)"/>
<rect width="16" height="355" rx="8" transform="matrix(-1 0 0 1 216 12)" fill="#EEEEEE"/>
<rect width="16" height="191" rx="8" transform="matrix(-1 0 0 1 216 177)" fill="url(#paint10_linear_102_3)"/>
<rect width="16" height="355" rx="8" transform="matrix(-1 0 0 1 162 12)" fill="#EEEEEE"/>
<rect width="16" height="159" rx="8" transform="matrix(-1 0 0 1 162 208)" fill="url(#paint11_linear_102_3)"/>
<rect width="15" height="355" rx="7.5" transform="matrix(-1 0 0 1 107 12)" fill="#EEEEEE"/>
<rect width="15" height="85" rx="7.5" transform="matrix(-1 0 0 1 107 282)" fill="url(#paint12_linear_102_3)"/>
<defs>
<linearGradient id="paint0_linear_102_3" x1="7.5" y1="0" x2="7.5" y2="191" gradientUnits="userSpaceOnUse">
<stop stop-color="#D3BF55"/>
<stop offset="1" stop-color="#150B61"/>
</linearGradient>
<linearGradient id="paint1_linear_102_3" x1="8" y1="0" x2="8" y2="296" gradientUnits="userSpaceOnUse">
<stop stop-color="#D3BF55"/>
<stop offset="1" stop-color="#150B61"/>
</linearGradient>
<linearGradient id="paint2_linear_102_3" x1="8" y1="0" x2="8" y2="191" gradientUnits="userSpaceOnUse">
<stop stop-color="#D3BF55"/>
<stop offset="1" stop-color="#150B61"/>
</linearGradient>
<linearGradient id="paint3_linear_102_3" x1="7.5" y1="0" x2="7.5" y2="139" gradientUnits="userSpaceOnUse">
<stop stop-color="#D3BF55"/>
<stop offset="1" stop-color="#150B61"/>
</linearGradient>
<linearGradient id="paint4_linear_102_3" x1="8" y1="0" x2="8" y2="177" gradientUnits="userSpaceOnUse">
<stop stop-color="#D3BF55"/>
<stop offset="1" stop-color="#150B61"/>
</linearGradient>
<linearGradient id="paint5_linear_102_3" x1="8" y1="0" x2="8" y2="164" gradientUnits="userSpaceOnUse">
<stop stop-color="#D3BF55"/>
<stop offset="1" stop-color="#150B61"/>
</linearGradient>
<linearGradient id="paint6_linear_102_3" x1="7.5" y1="0" x2="7.5" y2="121" gradientUnits="userSpaceOnUse">
<stop stop-color="#D3BF55"/>
<stop offset="1" stop-color="#150B61"/>
</linearGradient>
<linearGradient id="paint7_linear_102_3" x1="8" y1="0" x2="8" y2="149" gradientUnits="userSpaceOnUse">
<stop stop-color="#D3BF55"/>
<stop offset="1" stop-color="#150B61"/>
</linearGradient>
<linearGradient id="paint8_linear_102_3" x1="8" y1="0" x2="8" y2="108" gradientUnits="userSpaceOnUse">
<stop stop-color="#D3BF55"/>
<stop offset="1" stop-color="#150B61"/>
</linearGradient>
<linearGradient id="paint9_linear_102_3" x1="7.5" y1="0" x2="7.5" y2="191" gradientUnits="userSpaceOnUse">
<stop stop-color="#D3BF55"/>
<stop offset="1" stop-color="#150B61"/>
</linearGradient>
<linearGradient id="paint10_linear_102_3" x1="8" y1="0" x2="8" y2="191" gradientUnits="userSpaceOnUse">
<stop stop-color="#D3BF55"/>
<stop offset="1" stop-color="#150B61"/>
</linearGradient>
<linearGradient id="paint11_linear_102_3" x1="8" y1="0" x2="8" y2="159" gradientUnits="userSpaceOnUse">
<stop stop-color="#D3BF55"/>
<stop offset="1" stop-color="#150B61"/>
</linearGradient>
<linearGradient id="paint12_linear_102_3" x1="7.5" y1="0" x2="7.5" y2="85" gradientUnits="userSpaceOnUse">
<stop stop-color="#D3BF55"/>
<stop offset="1" stop-color="#150B61"/>
</linearGradient>
</defs>
</svg>
